{
.appVersion = "1361";
DisplayStrings = (
"/Acaron/Ccaron/DZcaron/Dcaron/Dzcaron/Ecaron/Gcaron/Hcaron/Icaron/Lcaron/Ncaron/Ocaron/Rcaron/Scaron/Scarondotaccent/Tcaron/Ucaron/caroncomb.case/Udieresiscaron/Zcaron"
);
classes = (
{
code = " onesuperior twosuperior threesuperior ";
name = sups2;
},
{
code = " one two three ";
name = sups1;
},
{
code = " zero one two three four five six seven eight nine ";
name = ordn1;
},
{
automatic = 1;

glyphs = (
{
glyphname = A;
lastChange = "2022-05-20 02:12:06 +0000";
layers = (
{
anchors = (
{
name = bottom;
position = "{636, 0}";
},
{
name = ogonek;
position = "{1145, 10}";
},
{
name = top;
position = "{636, 1529}";
}
);
layerId = "ED69ACE7-BE83-49AD-8DAF-057B7A1FF3CB";
paths = (
{
closed = 1;
nodes = (
"1112 -19 OFFCURVE",
"1185 -3 OFFCURVE",
"1245 34 CURVE",
"1251 136 OFFCURVE",
"1253 230 OFFCURVE",
"1025 1366 CURVE",
"692 1158 LINE {name = hr00;}",
"873 333 LINE",
"792 61 LINE",
"840 10 OFFCURVE",
"938 -21 OFFCURVE",
"1041 -20 CURVE SMOOTH"
);
},
{
closed = 1;
nodes = (
"515 -24 OFFCURVE",
"524 272 OFFCURVE",
"555 517 CURVE SMOOTH",
"589 783 OFFCURVE",
"611 1095 OFFCURVE",
"613 1167 CURVE",
"361 1187 LINE",
"183 292 LINE",
"51 303 LINE",
"6 140 LINE",
"44 41 OFFCURVE",
"154 -18 OFFCURVE",
"266 -20 CURVE SMOOTH"
);
},
{
closed = 1;
nodes = (
"1027 420 LINE",
"1012 674 LINE",
"918 664 OFFCURVE",
"524 633 OFFCURVE",
"437 617 CURVE",
"419 453 LINE",
"492 440 OFFCURVE",
"690 427 OFFCURVE",
"800 420 CURVE"
);
},
{
closed = 1;
nodes = (
"1025 1366 LINE",
"775 1442 OFFCURVE",
"521 1505 OFFCURVE",
"255 1549 CURVE",
"172 1474 OFFCURVE",
"130 1319 OFFCURVE",
"127 1216 CURVE",
"248 1170 OFFCURVE",
"536 1145 OFFCURVE",
"715 1129 CURVE"
);
}
);
userData = {
com.typemytype.robofont.guides = (
{
angle = 90;
isGlobal = 0;
x = 617;
y = 0;
}
);
};
width = 1272;
}
);
unicode = 0041;
},
{
glyphname = Aogonek;
lastChange = "2022-05-20 00:37:12 +0000";
layers = (
{
components = (
{
name = A;
}
);
layerId = "ED69ACE7-BE83-49AD-8DAF-057B7A1FF3CB";
paths = (
{
closed = 1;
nodes = (
"1098 -438 OFFCURVE",
"1177 -374 OFFCURVE",
"1244 -243 CURVE",
"1197 -116 LINE",
"1001 -183 LINE",
"987 -170 LINE {name = hr00;}",
"1026 -97 OFFCURVE",
"1174 -18 OFFCURVE",
"1245 34 CURVE",
"1023 46 LINE",
"928 -9 OFFCURVE",
"735 -114 OFFCURVE",
"735 -225 CURVE SMOOTH",
"735 -320 OFFCURVE",
"885 -438 OFFCURVE",
"982 -438 CURVE SMOOTH"
);
}
);
userData = {
com.typemytype.robofont.guides = (
{
angle = 90;
isGlobal = 0;
x = 1247;
y = 0;
}
);
};
width = 1272;
}
);
unicode = 0104;
},
{
glyphname = AE;
lastChange = "2022-05-20 04:02:55 +0000";
layers = (
{
anchors = (
{
name = bottom;
position = "{872, 0}";
},
{
name = top;
position = "{872, 1529}";
}
);
layerId = "ED69ACE7-BE83-49AD-8DAF-057B7A1FF3CB";
paths = (
{
closed = 1;
nodes = (
"1591 -20 OFFCURVE",
"1678 84 OFFCURVE",
"1678 238 CURVE SMOOTH",
"1678 327 OFFCURVE",
"1661 418 OFFCURVE",
"1640 474 CURVE",
"1460 489 LINE",
"1378 299 LINE",
"1091 319 LINE",
"1105 664 LINE",
"1212 604 OFFCURVE",
"1350 581 OFFCURVE",
"1479 581 CURVE SMOOTH",
"1499 581 OFFCURVE",
"1519 582 OFFCURVE",
"1539 584 CURVE",
"1562 609 OFFCURVE",
"1590 692 OFFCURVE",
"1590 778 CURVE SMOOTH",
"1590 832 OFFCURVE",
"1579 886 OFFCURVE",
"1550 930 CURVE",
"1400 899 OFFCURVE",
"1307 874 OFFCURVE",
"1097 851 CURVE",
"1080 1174 LINE",
"1259 1123 OFFCURVE",
"1407 1089 OFFCURVE",
"1525 1075 CURVE",
"1591 1125 OFFCURVE",
"1632 1225 OFFCURVE",
"1632 1331 CURVE SMOOTH",
"1632 1423 OFFCURVE",
"1603 1511 OFFCURVE",
"1537 1549 CURVE",
"1168 1455 LINE",
"824 1529 LINE",
"741 1471 OFFCURVE",
"661 1354 OFFCURVE",
"661 1265 CURVE",
"703 1155 LINE",
"837 541 LINE",
"762 191 LINE",
"777 149 OFFCURVE",
"797 107 OFFCURVE",
"836 68 CURVE",
"973 22 OFFCURVE",
"1281 -20 OFFCURVE",
"1427 -20 CURVE SMOOTH"
);
},
{
closed = 1;
nodes = (
"515 -24 OFFCURVE",
"524 272 OFFCURVE",
"555 517 CURVE SMOOTH",
"589 783 OFFCURVE",
"611 1095 OFFCURVE",
"613 1167 CURVE",
"361 1187 LINE",
"183 292 LINE",
"51 303 LINE",
"6 140 LINE",
"44 41 OFFCURVE",
"154 -18 OFFCURVE",
"266 -20 CURVE SMOOTH"
);
},
{
closed = 1;
nodes = (
"1027 420 LINE",
"1012 674 LINE",
"918 664 OFFCURVE",
"524 633 OFFCURVE",
"437 617 CURVE",
"419 453 LINE",
"492 440 OFFCURVE",
"690 427 OFFCURVE",
"800 420 CURVE"
);
},
{
closed = 1;
nodes = (
"1025 1366 LINE",
"759 1409 LINE",
"255 1549 LINE",
"172 1474 OFFCURVE",
"130 1309 OFFCURVE",
"127 1206 CURVE",
"248 1160 OFFCURVE",
"581 1131 OFFCURVE",
"756 1119 CURVE"
);
}
);
width = 1744;
}
);
unicode = 00C6;
},
{
glyphname = B;
lastChange = "2022-05-20 02:14:30 +0000";
layers = (
{
anchors = (
{
name = bottom;
position = "{658, 0}";
},
{
name = top;
position = "{658, 1529}";
}
);
layerId = "ED69ACE7-BE83-49AD-8DAF-057B7A1FF3CB";
paths = (
{
closed = 1;
nodes = (
"864 -23 OFFCURVE",
"900 -21 OFFCURVE",
"936 -17 CURVE",
"1145 59 OFFCURVE",
"1289 276 OFFCURVE",
"1289 497 CURVE SMOOTH",
"1289 535 OFFCURVE",
"1285 573 OFFCURVE",
"1276 611 CURVE",
"1229 670 OFFCURVE",
"971 695 OFFCURVE",
"901 697 CURVE",
"734 640 LINE",
"742 612 LINE",
"889 538 LINE",
"895 492 OFFCURVE",
"898 457 OFFCURVE",
"898 427 CURVE SMOOTH",
"898 363 OFFCURVE",
"885 317 OFFCURVE",
"866 222 CURVE",
"739 230 OFFCURVE",
"582 277 OFFCURVE",
"465 344 CURVE",
"486 594 OFFCURVE",
"543 836 OFFCURVE",
"614 1075 CURVE",
"464 969 LINE {name = hr00;}",
"435 983 LINE",
"530 1480 LINE",
"480 1514 OFFCURVE",
"422 1529 OFFCURVE",
"365 1529 CURVE SMOOTH",
"256 1529 OFFCURVE",
"148 1474 OFFCURVE",
"88 1393 CURVE SMOOTH",
"87 1391 OFFCURVE",
"87 1387 OFFCURVE",
"87 1381 CURVE SMOOTH",
"87 1268 OFFCURVE",
"166 476 OFFCURVE",
"219 370 CURVE",
"191 278 OFFCURVE",
"179 237 OFFCURVE",
"159 163 CURVE SMOOTH",
"154 146 OFFCURVE",
"152 133 OFFCURVE",
"152 123 CURVE SMOOTH",
"152 34 OFFCURVE",
"601 -23 OFFCURVE",
"827 -23 CURVE SMOOTH"
);
},
{
closed = 1;
nodes = (
"900 489 OFFCURVE",
"859 700 OFFCURVE",
"859 728 CURVE SMOOTH",
"859 730 OFFCURVE",
"860 731 OFFCURVE",
"860 731 CURVE",
"866 734 OFFCURVE",
"458 750 OFFCURVE",
"461 750 CURVE",
"461 750 OFFCURVE",
"461 750 OFFCURVE",
"461 749 CURVE SMOOTH",
"461 737 OFFCURVE",
"427 587 OFFCURVE",
"427 587 CURVE",
"427 587 OFFCURVE",
"900 489 OFFCURVE",
"900 489 CURVE"
);
},
{
closed = 1;
nodes = (
"1087 737 LINE SMOOTH",
"1134 954 OFFCURVE",
"1175 1215 OFFCURVE",
"1179 1404 CURVE",
"1058 1506 OFFCURVE",
"897 1548 OFFCURVE",
"821 1548 CURVE SMOOTH",
"763 1548 OFFCURVE",
"712 1536 OFFCURVE",
"691 1531 CURVE",
"355 699 LINE",
"515 673 LINE",
"552 758 OFFCURVE",
"684 1036 OFFCURVE",
"740 1151 CURVE",
"787 1143 LINE",
"786 1056 OFFCURVE",
"774 832 OFFCURVE",
"762 689 CURVE SMOOTH",
"762 685 OFFCURVE",
"761 682 OFFCURVE",
"761 678 CURVE",
"1070 659 LINE"
);
}
);
width = 1316;
}
);
unicode = 0042;
},
{
glyphname = C;
lastChange = "2022-05-20 02:14:38 +0000";
layers = (
{
anchors = (
{
name = bottom;
position = "{506, 0}";
},
{
name = top;
position = "{506, 1529}";
}
);
layerId = "ED69ACE7-BE83-49AD-8DAF-057B7A1FF3CB";
paths = (
{
closed = 1;
nodes = (
"701 6 OFFCURVE",
"905 188 OFFCURVE",
"973 305 CURVE",
"898 472 LINE",
"702 399 OFFCURVE",
"550 332 OFFCURVE",
"470 320 CURVE",
"493 516 OFFCURVE",
"528 976 OFFCURVE",
"510 1170 CURVE",
"534 1192 LINE {name = hr00;}",
"634 1103 OFFCURVE",
"724 1048 OFFCURVE",
"815 1010 CURVE",
"870 1037 OFFCURVE",
"998 1227 OFFCURVE",
"944 1481 CURVE",
"628 1459 LINE",
"566 1491 OFFCURVE",
"430 1537 OFFCURVE",
"369 1549 CURVE",
"250 1505 OFFCURVE",
"108 1380 OFFCURVE",
"83 1286 CURVE",
"83 1271 OFFCURVE",
"83 1205 OFFCURVE",
"89 1171 CURVE SMOOTH",
"111 1055 OFFCURVE",
"128 830 OFFCURVE",
"142 613 CURVE SMOOTH",
"153 452 OFFCURVE",
"161 295 OFFCURVE",
"166 192 CURVE",
"171 159 OFFCURVE",
"187 131 OFFCURVE",
"233 95 CURVE SMOOTH",
"292 49 OFFCURVE",
"394 -20 OFFCURVE",
"465 -20 CURVE"
);
}
);
width = 1011;
}
);
unicode = 0043;
},
{
glyphname = D;
lastChange = "2022-05-20 02:14:48 +0000";
layers = (
{
anchors = (
{
name = bottom;
position = "{667, 0}";
},
{
name = center;
position = "{667, 765}";
},
{
name = top;
position = "{667, 1529}";
}
);
layerId = "ED69ACE7-BE83-49AD-8DAF-057B7A1FF3CB";
paths = (
{
closed = 1;
nodes = (
"884 -7 OFFCURVE",
"1144 115 OFFCURVE",
"1166 190 CURVE SMOOTH",
"1205 324 OFFCURVE",
"1254 841 OFFCURVE",
"1254 996 CURVE SMOOTH",
"1254 1133 OFFCURVE",
"1249 1165 OFFCURVE",
"1242 1226 CURVE",
"1146 1334 OFFCURVE",
"991 1435 OFFCURVE",
"877 1489 CURVE",
"165 1549 LINE",
"62 1478 OFFCURVE",
"39 1346 OFFCURVE",
"30 1226 CURVE",
"288 1204 LINE",
"587 1182 LINE",
"838 1129 LINE",
"850 1002 OFFCURVE",
"855 782 OFFCURVE",
"855 586 CURVE SMOOTH",
"855 466 OFFCURVE",
"849 302 OFFCURVE",
"843 228 CURVE",
"534 200 LINE",
"564 134 OFFCURVE",
"652 35 OFFCURVE",
"755 -21 CURVE {name = hr02;}"
);
},
{
closed = 1;
nodes = (
"404 -13 OFFCURVE",
"482 111 OFFCURVE",
"534 200 CURVE",
"754 55 LINE",
"956 55 OFFCURVE",
"1078 181 OFFCURVE",
"1078 369 CURVE SMOOTH",
"1078 476 OFFCURVE",
"1063 579 OFFCURVE",
"1046 625 CURVE",
"928 639 LINE",
"890 299 LINE",
"577 394 LINE",
"318 437 LINE",
"271 437 LINE SMOOTH",
"237 437 OFFCURVE",
"201 433 OFFCURVE",
"174 423 CURVE",
"85 299 LINE {name = hr01;}",
"94 186 OFFCURVE",
"204 20 OFFCURVE",
"288 -20 CURVE"
);
},
{
closed = 1;
nodes = (
"609 1449 LINE",
"561 1478 OFFCURVE",
"571 1489 OFFCURVE",
"508 1489 CURVE SMOOTH",
"359 1489 OFFCURVE",
"227 1456 OFFCURVE",
"190 1399 CURVE",
"226 1189 OFFCURVE",
"224 871 OFFCURVE",
"315 373 CURVE",
"557 332 LINE"
);
}
);
width = 1334;
}
);
unicode = 0044;
},
{
glyphname = Eth;
lastChange = "2022-05-20 00:37:12 +0000";
layers = (
{
layerId = "ED69ACE7-BE83-49AD-8DAF-057B7A1FF3CB";
paths = (
{
closed = 1;
nodes = (
"884 -7 OFFCURVE",
"1144 115 OFFCURVE",
"1166 190 CURVE SMOOTH",
"1205 324 OFFCURVE",
"1254 841 OFFCURVE",
"1254 996 CURVE SMOOTH",
"1254 1133 OFFCURVE",
"1249 1165 OFFCURVE",
"1242 1226 CURVE",
"1146 1334 OFFCURVE",
"991 1435 OFFCURVE",
"877 1489 CURVE",
"165 1549 LINE",
"62 1478 OFFCURVE",
"39 1346 OFFCURVE",
"30 1226 CURVE",
"288 1204 LINE",
"587 1182 LINE",
"838 1129 LINE",
"850 1002 OFFCURVE",
"855 782 OFFCURVE",
"855 586 CURVE SMOOTH",
"855 466 OFFCURVE",
"849 302 OFFCURVE",
"843 228 CURVE",
"534 200 LINE",
"564 134 OFFCURVE",
"652 35 OFFCURVE",
"755 -21 CURVE {name = hr02;}"
);
},
{
closed = 1;
nodes = (
"404 -13 OFFCURVE",
"482 111 OFFCURVE",
"534 200 CURVE",
"754 55 LINE",
"956 55 OFFCURVE",
"1078 181 OFFCURVE",
"1078 369 CURVE SMOOTH",
"1078 476 OFFCURVE",
"1063 579 OFFCURVE",
"1046 625 CURVE",
"928 639 LINE",
"890 299 LINE",
"577 394 LINE",
"318 437 LINE",
"271 437 LINE SMOOTH",
"237 437 OFFCURVE",
"201 433 OFFCURVE",
"174 423 CURVE",
"85 299 LINE {name = hr01;}",
"94 186 OFFCURVE",
"204 20 OFFCURVE",
"288 -20 CURVE"
);
},
{
closed = 1;
nodes = (
"403 637 OFFCURVE",
"647 649 OFFCURVE",
"717 655 CURVE",
"762 719 OFFCURVE",
"774 845 OFFCURVE",
"733 922 CURVE",
"334 884 LINE",
"75 834 LINE",
"60 766 OFFCURVE",
"65 714 OFFCURVE",
"89 649 CURVE"
);
},
{
closed = 1;
nodes = (
"609 1449 LINE",
"561 1478 OFFCURVE",
"571 1489 OFFCURVE",
"508 1489 CURVE SMOOTH",
"359 1489 OFFCURVE",
"227 1456 OFFCURVE",
"190 1399 CURVE",
"226 1189 OFFCURVE",
"224 871 OFFCURVE",
"315 373 CURVE",
"557 332 LINE"
);
}
);
width = 1334;
}
);
unicode = 00D0;
},
{
glyphname = E;
lastChange = "2022-05-20 02:15:26 +0000";
layers = (
{
anchors = (
{
name = bottom;
position = "{555, 0}";
},
{
name = ogonek;
position = "{999, 10}";
},
{
name = top;
position = "{555, 1529}";
},
{
name = topleft;
position = "{20, 1529}";
}
);
layerId = "ED69ACE7-BE83-49AD-8DAF-057B7A1FF3CB";
paths = (
{
closed = 1;
nodes = (
"905 8 OFFCURVE",
"992 88 OFFCURVE",
"1044 193 CURVE",
"1044 282 OFFCURVE",
"1027 418 OFFCURVE",
"1006 474 CURVE",
"826 489 LINE",
"744 299 LINE",
"457 309 LINE",
"471 664 LINE",
"578 604 OFFCURVE",
"716 581 OFFCURVE",
"845 581 CURVE SMOOTH",
"865 581 OFFCURVE",
"885 582 OFFCURVE",
"905 584 CURVE",
"928 609 OFFCURVE",
"956 692 OFFCURVE",
"956 778 CURVE SMOOTH",
"956 832 OFFCURVE",
"945 886 OFFCURVE",
"916 930 CURVE",
"766 899 OFFCURVE",
"673 874 OFFCURVE",
"463 851 CURVE",
"424 1171 LINE",
"639 1112 OFFCURVE",
"775 1073 OFFCURVE",
"893 1062 CURVE",
"959 1112 OFFCURVE",
"998 1225 OFFCURVE",
"998 1331 CURVE SMOOTH",
"998 1423 OFFCURVE",
"969 1511 OFFCURVE",
"903 1549 CURVE",
"491 1455 LINE {name = hr00;}",
"158 1528 LINE",
"75 1470 OFFCURVE",
"-5 1354 OFFCURVE",
"-5 1265 CURVE",
"238 681 LINE",
"80 264 LINE",
"90 193 OFFCURVE",
"123 128 OFFCURVE",
"173 68 CURVE",
"316 30 OFFCURVE",
"615 -15 OFFCURVE",
"793 -20 CURVE"
);
}
);
width = 1110;
}
);
unicode = 0045;
},
{
glyphname = F;
lastChange = "2022-05-20 02:16:24 +0000";
layers = (
{
anchors = (
{
name = bottom;
position = "{538, 0}";
},
{
name = top;
position = "{538, 1529}";
}
);
layerId = "ED69ACE7-BE83-49AD-8DAF-057B7A1FF3CB";
paths = (
{
closed = 1;
nodes = (
"425 -20 OFFCURVE",
"613 65 OFFCURVE",
"624 194 CURVE SMOOTH",
"638 348 OFFCURVE",
"594 488 OFFCURVE",
"545 627 CURVE",
"550 632 LINE",
"645 578 OFFCURVE",
"753 547 OFFCURVE",
"858 547 CURVE SMOOTH",
"883 547 OFFCURVE",
"908 548 OFFCURVE",
"932 552 CURVE",
"955 577 OFFCURVE",
"983 660 OFFCURVE",
"983 746 CURVE SMOOTH",
"983 800 OFFCURVE",
"971 860 OFFCURVE",
"942 904 CURVE",
"800 875 OFFCURVE",
"714 855 OFFCURVE",
"532 828 CURVE",
"441 1233 LINE",
"373 1475 LINE {name = hr00;}",
"127 1541 LINE",
"64 1477 OFFCURVE",
"21 1357 OFFCURVE",
"21 1275 CURVE SMOOTH",
"21 1267 OFFCURVE",
"21 1260 OFFCURVE",
"22 1253 CURVE",
"330 311 LINE",
"97 311 LINE",
"32 174 LINE",
"71 98 OFFCURVE",
"180 -20 OFFCURVE",
"305 -20 CURVE SMOOTH"
);
},
{
closed = 1;
nodes = (
"989 1121 OFFCURVE",
"1024 1228 OFFCURVE",
"1024 1330 CURVE SMOOTH",
"1024 1425 OFFCURVE",
"994 1516 OFFCURVE",
"930 1549 CURVE",
"576 1447 LINE",
"127 1541 LINE",
"218 1251 LINE",
"433 1184 OFFCURVE",
"688 1109 OFFCURVE",
"921 1075 CURVE"
);
}
);
width = 1075;
}
);
unicode = 0046;
},
{
glyphname = G;
lastChange = "2022-05-20 02:16:36 +0000";
layers = (
{
anchors = (
{
name = bottom;
position = "{586, 0}";
},
{
name = top;
position = "{586, 1529}";
}
);
layerId = "ED69ACE7-BE83-49AD-8DAF-057B7A1FF3CB";
paths = (
{
closed = 1;
nodes = (
"440 -18 OFFCURVE",
"453 -20 OFFCURVE",
"465 1 CURVE",
"470 320 LINE",
"493 516 OFFCURVE",
"528 976 OFFCURVE",
"510 1170 CURVE",
"534 1192 LINE {name = hr01;}",
"634 1103 OFFCURVE",
"814 1029 OFFCURVE",
"905 1010 CURVE",
"960 1037 OFFCURVE",
"1088 1227 OFFCURVE",
"1034 1481 CURVE",
"691 1450 LINE",
"629 1482 OFFCURVE",
"430 1540 OFFCURVE",
"369 1549 CURVE",
"250 1505 OFFCURVE",
"108 1380 OFFCURVE",
"83 1286 CURVE",
"83 1271 OFFCURVE",
"89 1205 OFFCURVE",
"93 1171 CURVE SMOOTH",
"107 1048 OFFCURVE",
"128 830 OFFCURVE",
"142 613 CURVE SMOOTH",
"153 452 OFFCURVE",
"161 295 OFFCURVE",
"166 192 CURVE",
"171 159 OFFCURVE",
"187 131 OFFCURVE",
"233 95 CURVE SMOOTH",
"282 57 OFFCURVE",
"361 2 OFFCURVE",
"427 -15 CURVE"
);
},
{
closed = 1;
nodes = (
"574 -20 OFFCURVE",
"703 223 OFFCURVE",
"757 347 CURVE",
"781 336 LINE",
"767 217 OFFCURVE",
"751 135 OFFCURVE",
"745 48 CURVE {name = hr02;}",
"795 -2 OFFCURVE",
"882 -19 OFFCURVE",
"965 -20 CURVE SMOOTH",
"1021 -20 OFFCURVE",
"1084 2 OFFCURVE",
"1114 23 CURVE",
"1050 499 LINE",
"1148 720 LINE",
"1079 804 OFFCURVE",
"994 842 OFFCURVE",
"871 842 CURVE SMOOTH",
"794 842 OFFCURVE",
"726 827 OFFCURVE",
"703 815 CURVE",
"703 778 OFFCURVE",
"710 655 OFFCURVE",
"764 497 CURVE",
"691 435 OFFCURVE",
"521 280 OFFCURVE",
"472 282 CURVE",
"208 346 LINE",
"208 214 OFFCURVE",
"167 174 OFFCURVE",
"261 95 CURVE SMOOTH",
"317 49 OFFCURVE",
"375 -20 OFFCURVE",
"446 -20 CURVE SMOOTH"
);
}
);
width = 1171;
}
);
unicode = 0047;
},
{
glyphname = H;
lastChange = "2022-05-20 02:16:53 +0000";
layers = (
{
anchors = (
{
name = bottom;
position = "{668, 0}";
},
{
name = center;
position = "{668, 765}";
},
{
name = top;
position = "{668, 1529}";
},
{
name = topleft;
position = "{20, 1529}";
}
);
layerId = "ED69ACE7-BE83-49AD-8DAF-057B7A1FF3CB";
paths = (
{
closed = 1;
nodes = (
"1174 -20 OFFCURVE",
"1277 98 OFFCURVE",
"1309 177 CURVE",
"1274 319 LINE",
"1138 316 LINE",
"1216 1490 LINE",
"1169 1519 OFFCURVE",
"1110 1530 OFFCURVE",
"1047 1530 CURVE SMOOTH",
"898 1530 OFFCURVE",
"769 1457 OFFCURVE",
"730 1400 CURVE",
"751 1244 OFFCURVE",
"793 1032 OFFCURVE",
"838 844 CURVE",
"752 835 OFFCURVE",
"601 815 OFFCURVE",
"507 800 CURVE",
"306 801 LINE",
"283 652 LINE",
"489 609 LINE {name = hr00;}",
"575 597 OFFCURVE",
"739 587 OFFCURVE",
"839 581 CURVE",
"820 456 OFFCURVE",
"799 345 OFFCURVE",
"801 228 CURVE SMOOTH",
"803 73 OFFCURVE",
"902 -20 OFFCURVE",
"1043 -20 CURVE SMOOTH"
);
},
{
closed = 1;
nodes = (
"462 -20 OFFCURVE",
"515 -9 OFFCURVE",
"558 19 CURVE",
"547 208 OFFCURVE",
"525 444 OFFCURVE",
"491 607 CURVE",
"566 1489 LINE",
"518 1518 OFFCURVE",
"463 1529 OFFCURVE",
"400 1529 CURVE SMOOTH",
"251 1529 OFFCURVE",
"119 1456 OFFCURVE",
"82 1399 CURVE",
"118 1189 OFFCURVE",
"160 868 OFFCURVE",
"230 656 CURVE",
"181 513 OFFCURVE",
"143 258 OFFCURVE",
"133 62 CURVE",
"186 12 OFFCURVE",
"272 -20 OFFCURVE",
"391 -20 CURVE SMOOTH"
);
}
);
userData = {
com.typemytype.robofont.guides = (
{
angle = 0;
isGlobal = 0;
x = 0;
y = 1696;
},
{
angle = 90;
isGlobal = 0;
x = 653;
y = 0;
}
);
};
width = 1335;
}
);
unicode = 0048;
},
{
glyphname = Hbar;
layers = (
{
components = (
{
name = H;
}
);
layerId = "ED69ACE7-BE83-49AD-8DAF-057B7A1FF3CB";
paths = (
{
closed = 1;
nodes = (
"345 981 OFFCURVE",
"1239 1003 OFFCURVE",
"1309 1009 CURVE",
"1354 1097 OFFCURVE",
"1376 1204 OFFCURVE",
"1328 1280 CURVE",
"296 1198 LINE",
"17 1148 LINE",
"-2 1083 OFFCURVE",
"7 1058 OFFCURVE",
"31 993 CURVE {name = hr00;}"
);
}
);
width = 1348;
}
);
unicode = 0126;
},
{
glyphname = I;
lastChange = "2022-05-20 02:17:35 +0000";
layers = (
{
anchors = (
{
name = bottom;
position = "{333, 0}";
},
{
name = ogonek;
position = "{599, 10}";
},
{
name = top;
position = "{333, 1529}";
},
{
name = topleft;
position = "{20, 1529}";
}
);
layerId = "ED69ACE7-BE83-49AD-8DAF-057B7A1FF3CB";
paths = (
{
closed = 1;
nodes = (
"462 -20 OFFCURVE",
"515 -9 OFFCURVE",
"558 19 CURVE",
"547 208 OFFCURVE",
"522 420 OFFCURVE",
"488 583 CURVE",
"566 1489 LINE",
"518 1518 OFFCURVE",
"463 1529 OFFCURVE",
"400 1529 CURVE SMOOTH",
"251 1529 OFFCURVE",
"119 1456 OFFCURVE",
"82 1399 CURVE",
"118 1189 OFFCURVE",
"160 868 OFFCURVE",
"230 656 CURVE {name = hr00;}",
"181 513 OFFCURVE",
"143 258 OFFCURVE",
"133 62 CURVE",
"186 12 OFFCURVE",
"272 -20 OFFCURVE",
"391 -20 CURVE SMOOTH"
);
}
);
width = 666;
}
);
unicode = 0049;
},
{
glyphname = Iogonek;
lastChange = "2022-05-20 00:37:12 +0000";
layers = (
{
components = (
{
name = I;
}
);
layerId = "ED69ACE7-BE83-49AD-8DAF-057B7A1FF3CB";
paths = (
{
closed = 1;
nodes = (
"439 -438 OFFCURVE",
"518 -374 OFFCURVE",
"585 -243 CURVE",
"538 -116 LINE",
"342 -183 LINE",
"328 -170 LINE {name = hr00;}",
"367 -97 OFFCURVE",
"499 -19 OFFCURVE",
"558 19 CURVE",
"364 46 LINE",
"269 -9 OFFCURVE",
"76 -114 OFFCURVE",
"76 -225 CURVE SMOOTH",
"76 -320 OFFCURVE",
"226 -438 OFFCURVE",
"323 -438 CURVE SMOOTH"
);
}
);
userData = {
com.typemytype.robofont.guides = (
{
angle = 90;
isGlobal = 0;
x = 554;
y = 0;
}
);
};
width = 666;
}
);
unicode = 012E;
},
{
glyphname = J;
lastChange = "2022-05-20 02:17:44 +0000";
layers = (
{
anchors = (
{
name = bottom;
position = "{500, 0}";
},
{
name = top;
position = "{500, 1529}";
}
);
layerId = "ED69ACE7-BE83-49AD-8DAF-057B7A1FF3CB";
paths = (
{
closed = 1;
nodes = (
"503 -160 OFFCURVE",
"517 -159 OFFCURVE",
"531 -157 CURVE",
"707 -97 OFFCURVE",
"833 50 OFFCURVE",
"876 216 CURVE",
"715 818 LINE",
"784 1191 LINE",
"444 1164 LINE {name = hr01;}",
"441 726 LINE",
"506 79 LINE",
"459 95 OFFCURVE",
"289 216 OFFCURVE",
"190 276 CURVE",
"133 225 OFFCURVE",
"94 55 OFFCURVE",
"94 -3 CURVE SMOOTH",
"94 -15 OFFCURVE",
"95 -27 OFFCURVE",
"96 -40 CURVE",
"140 -98 OFFCURVE",
"338 -159 OFFCURVE",
"488 -160 CURVE SMOOTH"
);
},
{
closed = 1;
nodes = (
"312 960 LINE",
"312 1176 LINE",
"497 1153 LINE",
"782 1153 LINE",
"801 1139 OFFCURVE",
"836 1133 OFFCURVE",
"871 1133 CURVE SMOOTH",
"904 1133 OFFCURVE",
"938 1139 OFFCURVE",
"957 1150 CURVE",
"968 1180 OFFCURVE",
"973 1216 OFFCURVE",
"973 1253 CURVE SMOOTH",
"973 1367 OFFCURVE",
"923 1494 OFFCURVE",
"848 1549 CURVE",
"747 1545 OFFCURVE",
"666 1452 OFFCURVE",
"628 1395 CURVE",
"538 1454 OFFCURVE",
"338 1529 OFFCURVE",
"227 1529 CURVE SMOOTH",
"107 1529 OFFCURVE",
"7 1444 OFFCURVE",
"7 1284 CURVE SMOOTH {name = hr02;}",
"7 1148 OFFCURVE",
"87 986 OFFCURVE",
"146 924 CURVE"
);
}
);
width = 999;
}
);
unicode = 004A;
},
{
glyphname = K;
lastChange = "2022-05-20 02:19:07 +0000";
layers = (
{
anchors = (
{
name = bottom;
position = "{662, 0}";
},
{
name = top;
position = "{662, 1529}";
}
);
layerId = "ED69ACE7-BE83-49AD-8DAF-057B7A1FF3CB";
paths = (
{
closed = 1;
nodes = (
"462 -20 OFFCURVE",
"525 -9 OFFCURVE",
"568 19 CURVE",
"557 208 OFFCURVE",
"522 420 OFFCURVE",
"488 583 CURVE",
"566 1489 LINE",
"518 1518 OFFCURVE",
"463 1529 OFFCURVE",
"400 1529 CURVE SMOOTH",
"251 1529 OFFCURVE",
"119 1456 OFFCURVE",
"82 1399 CURVE",
"118 1189 OFFCURVE",
"160 868 OFFCURVE",
"230 656 CURVE",
"181 513 OFFCURVE",
"133 258 OFFCURVE",
"123 62 CURVE {name = hr02;}",
"176 12 OFFCURVE",
"272 -20 OFFCURVE",
"391 -20 CURVE SMOOTH"
);
},
{
closed = 1;
nodes = (
"841 691 LINE",
"747 681 OFFCURVE",
"531 663 OFFCURVE",
"444 647 CURVE",
"432 489 LINE",
"505 476 OFFCURVE",
"683 463 OFFCURVE",
"793 456 CURVE",
"932 454 LINE"
);
},
{
closed = 1;
nodes = (
"1126 -19 OFFCURVE",
"1189 9 OFFCURVE",
"1230 69 CURVE SMOOTH",
"1274 133 OFFCURVE",
"1324 245 OFFCURVE",
"1324 350 CURVE",
"1206 452 LINE",
"1162 415 OFFCURVE",
"1116 382 OFFCURVE",
"1071 366 CURVE",
"995 440 OFFCURVE",
"910 603 OFFCURVE",
"870 680 CURVE",
"693 532 LINE",
"699 483 OFFCURVE",
"722 317 OFFCURVE",
"765 201 CURVE SMOOTH",
"800 109 OFFCURVE",
"849 27 OFFCURVE",
"929 2 CURVE SMOOTH",
"972 -12 OFFCURVE",
"1013 -19 OFFCURVE",
"1051 -19 CURVE SMOOTH"
);
},
{
closed = 1;
nodes = (
"821 571 OFFCURVE",
"1195 1078 OFFCURVE",
"1228 1372 CURVE",
"1124 1504 OFFCURVE",
"927 1549 OFFCURVE",
"842 1549 CURVE {name = hr01;}",
"746 1505 OFFCURVE",
"687 1375 OFFCURVE",
"672 1233 CURVE",
"813 1183 LINE",
"781 1038 OFFCURVE",
"632 713 OFFCURVE",
"559 594 CURVE",
"692 544 LINE",
"725 472 LINE"
);
}
);
width = 1324;
}
);
unicode = 004B;
},
{
glyphname = L;
lastChange = "2022-05-20 02:19:48 +0000";
layers = (
{
anchors = (
{
name = bottom;
position = "{571, 0}";
},
{
name = center;
position = "{571, 765}";
},
{
name = top;
position = "{571, 1529}";
},
{
name = topright;
position = "{780, 1529}";
}
);
layerId = "ED69ACE7-BE83-49AD-8DAF-057B7A1FF3CB";
paths = (
{
closed = 1;
nodes = (
"374 -13 OFFCURVE",
"452 61 OFFCURVE",
"504 150 CURVE",
"602 72 OFFCURVE",
"739 -20 OFFCURVE",
"862 -20 CURVE SMOOTH",
"1064 -20 OFFCURVE",
"1111 181 OFFCURVE",
"1111 369 CURVE SMOOTH",
"1111 476 OFFCURVE",
"1096 579 OFFCURVE",
"1079 625 CURVE",
"895 649 LINE",
"800 360 LINE",
"547 408 LINE",
"288 437 LINE",
"279 437 OFFCURVE",
"250 437 OFFCURVE",
"241 437 CURVE SMOOTH",
"207 437 OFFCURVE",
"171 433 OFFCURVE",
"144 423 CURVE",
"55 299 LINE {name = hr00;}",
"64 186 OFFCURVE",
"174 20 OFFCURVE",
"258 -20 CURVE"
);
},
{
closed = 1;
nodes = (
"639 1489 LINE",
"591 1518 OFFCURVE",
"541 1529 OFFCURVE",
"478 1529 CURVE SMOOTH",
"329 1529 OFFCURVE",
"197 1456 OFFCURVE",
"160 1399 CURVE",
"196 1189 OFFCURVE",
"194 871 OFFCURVE",
"285 373 CURVE",
"527 332 LINE"
);
}
);
userData = {
com.typemytype.robofont.guides = (
{
angle = 90;
isGlobal = 0;
x = 406;
y = 0;
}
);
};
width = 1142;
}
);
unicode = 004C;
},
{
glyphname = Lslash;
lastChange = "2022-05-20 00:37:12 +0000";
layers = (
{
components = (
{
name = L;
}
);
layerId = "ED69ACE7-BE83-49AD-8DAF-057B7A1FF3CB";
paths = (
{
closed = 1;
nodes = (
"891 866 LINE",
"906 958 OFFCURVE",
"899 1083 OFFCURVE",
"851 1112 CURVE",
"61 713 LINE {name = hr00;}",
"67 651 OFFCURVE",
"92 566 OFFCURVE",
"135 542 CURVE"
);
}
);
width = 1142;
}
);
unicode = 0141;
},
{
glyphname = M;
lastChange = "2022-05-20 02:20:09 +0000";
layers = (
{
anchors = (
{
name = bottom;
position = "{930, 0}";
},
{
name = top;
position = "{930, 1529}";
}
);
layerId = "ED69ACE7-BE83-49AD-8DAF-057B7A1FF3CB";
paths = (
{
closed = 1;
nodes = (
"489 -20 OFFCURVE",
"547 103 OFFCURVE",
"545 248 CURVE",
"540 507 OFFCURVE",
"461 1069 OFFCURVE",
"440 1168 CURVE",
"459 1175 LINE",
"748 286 LINE",
"714 236 OFFCURVE",
"707 103 OFFCURVE",
"707 62 CURVE {name = hr02;}",
"767 12 OFFCURVE",
"870 -19 OFFCURVE",
"970 -19 CURVE SMOOTH",
"1044 -19 OFFCURVE",
"1116 -3 OFFCURVE",
"1168 35 CURVE",
"1150 137 OFFCURVE",
"1137 231 OFFCURVE",
"1094 323 CURVE",
"1288 1174 LINE",
"1307 1171 LINE",
"1302 1019 OFFCURVE",
"1303 729 OFFCURVE",
"1315 494 CURVE SMOOTH",
"1321 366 OFFCURVE",
"1328 237 OFFCURVE",
"1336 174 CURVE SMOOTH",
"1352 45 OFFCURVE",
"1458 -20 OFFCURVE",
"1575 -20 CURVE SMOOTH {name = hr03;}",
"1746 -20 OFFCURVE",
"1808 136 OFFCURVE",
"1829 168 CURVE",
"1797 334 LINE",
"1611 307 LINE",
"1676 645 OFFCURVE",
"1694 1101 OFFCURVE",
"1702 1299 CURVE",
"1615 1392 OFFCURVE",
"1313 1534 OFFCURVE",
"1207 1549 CURVE",
"1072 1496 OFFCURVE",
"1003 1367 OFFCURVE",
"992 1247 CURVE",
"1017 1232 OFFCURVE",
"1052 1216 OFFCURVE",
"1090 1200 CURVE",
"1072 1110 OFFCURVE",
"1037 925 OFFCURVE",
"1012 777 CURVE",
"986 557 LINE",
"978 556 LINE",
"806 1346 LINE",
"667 1452 OFFCURVE",
"374 1537 OFFCURVE",
"280 1549 CURVE",
"140 1478 OFFCURVE",
"102 1346 OFFCURVE",
"93 1226 CURVE",
"262 1175 LINE",
"193 305 LINE",
"179 9 LINE {name = hr01;}",
"217 -9 OFFCURVE",
"261 -20 OFFCURVE",
"314 -20 CURVE SMOOTH"
);
},
{
closed = 1;
nodes = (
"410 -22 OFFCURVE",
"474 41 OFFCURVE",
"512 133 CURVE SMOOTH",
"557 240 OFFCURVE",
"465 294 OFFCURVE",
"482 426 CURVE",
"222 294 LINE",
"82 305 LINE",
"37 142 LINE",
"75 43 OFFCURVE",
"183 -18 OFFCURVE",
"295 -20 CURVE SMOOTH"
);
}
);
width = 1859;
}
);
unicode = 004D;
},
{
glyphname = N;
lastChange = "2022-05-20 02:38:32 +0000";
layers = (
{
anchors = (
{
name = bottom;
position = "{686, 0}";
},
{
name = top;
position = "{686, 1529}";
}
);
layerId = "ED69ACE7-BE83-49AD-8DAF-057B7A1FF3CB";
paths = (
{
closed = 1;
nodes = (
"1168 -21 OFFCURVE",
"1272 24 OFFCURVE",
"1316 131 CURVE",
"1299 228 OFFCURVE",
"1261 283 OFFCURVE",
"1208 348 CURVE",
"1294 1486 LINE",
"1253 1514 OFFCURVE",
"1179 1529 OFFCURVE",
"1126 1529 CURVE SMOOTH",
"1020 1529 OFFCURVE",
"907 1483 OFFCURVE",
"882 1430 CURVE",
"882 1280 OFFCURVE",
"993 633 OFFCURVE",
"1034 395 CURVE",
"1030 391 LINE",
"642 1385 LINE {name = hr01;}",
"493 1491 OFFCURVE",
"282 1537 OFFCURVE",
"187 1549 CURVE",
"52 1477 OFFCURVE",
"28 1346 OFFCURVE",
"28 1226 CURVE",
"78 1194 OFFCURVE",
"144 1179 OFFCURVE",
"201 1175 CURVE",
"209 296 LINE",
"98 305 LINE",
"67 142 LINE",
"114 43 OFFCURVE",
"227 -20 OFFCURVE",
"346 -20 CURVE SMOOTH",
"499 -20 OFFCURVE",
"558 78 OFFCURVE",
"558 203 CURVE SMOOTH",
"558 218 OFFCURVE",
"557 233 OFFCURVE",
"556 248 CURVE SMOOTH",
"529 507 OFFCURVE",
"381 1069 OFFCURVE",
"351 1168 CURVE",
"356 1170 LINE",
"793 245 LINE",
"775 207 OFFCURVE",
"767 141 OFFCURVE",
"767 93 CURVE SMOOTH",
"767 75 OFFCURVE",
"768 60 OFFCURVE",
"770 49 CURVE {name = hr02;}",
"829 2 OFFCURVE",
"959 -21 OFFCURVE",
"1049 -21 CURVE SMOOTH"
);
}
);
userData = {
com.typemytype.robofont.guides = (
{
angle = 0;
isGlobal = 0;
x = 0;
y = -21;
},
{
angle = 0;
isGlobal = 0;
x = 0;
y = 1204;
},
{
angle = 90;
isGlobal = 0;
x = 1322;
y = 0;
},
{
angle = 90;
isGlobal = 0;
x = 698;
y = 0;
}
);
};
width = 1371;
}
);
unicode = 004E;
},
{
glyphname = Eng;
lastChange = "2022-05-20 00:37:12 +0000";
layers = (
{
layerId = "ED69ACE7-BE83-49AD-8DAF-057B7A1FF3CB";
paths = (
{
closed = 1;
nodes = (
"1134 -21 OFFCURVE",
"1212 2 OFFCURVE",
"1265 55 CURVE",
"1212 348 LINE",
"1292 1486 LINE",
"1251 1514 OFFCURVE",
"1179 1529 OFFCURVE",
"1126 1529 CURVE SMOOTH",
"1020 1529 OFFCURVE",
"907 1483 OFFCURVE",
"882 1430 CURVE",
"882 1280 OFFCURVE",
"989 543 OFFCURVE",
"1030 305 CURVE",
"1026 301 LINE",
"642 1385 LINE {name = hr01;}",
"493 1491 OFFCURVE",
"282 1537 OFFCURVE",
"187 1549 CURVE",
"52 1477 OFFCURVE",
"28 1346 OFFCURVE",
"28 1226 CURVE",
"78 1194 OFFCURVE",
"144 1179 OFFCURVE",
"201 1175 CURVE",
"209 296 LINE",
"98 305 LINE",
"67 142 LINE",
"114 43 OFFCURVE",
"227 -20 OFFCURVE",
"346 -20 CURVE SMOOTH",
"499 -20 OFFCURVE",
"558 78 OFFCURVE",
"558 203 CURVE SMOOTH",
"558 218 OFFCURVE",
"557 233 OFFCURVE",
"556 248 CURVE SMOOTH",
"529 507 OFFCURVE",
"381 1069 OFFCURVE",
"351 1168 CURVE",
"356 1170 LINE",
"793 245 LINE",
"906 -5 LINE {name = hr02;}",
"955 -15 OFFCURVE",
"1006 -21 OFFCURVE",
"1049 -21 CURVE SMOOTH"
);
},
{
closed = 1;
nodes = (
"918 -436 OFFCURVE",
"932 -435 OFFCURVE",
"946 -433 CURVE",
"1122 -373 OFFCURVE",
"1248 -226 OFFCURVE",
"1291 -60 CURVE",
"1156 542 LINE",
"1042 507 LINE",
"1055 214 LINE",
"944 477 LINE",
"852 450 LINE",
"921 -132 LINE",
"828 -132 OFFCURVE",
"630 -106 OFFCURVE",
"532 -84 CURVE",
"517 -134 OFFCURVE",
"505 -181 OFFCURVE",
"505 -239 CURVE SMOOTH",
"505 -251 OFFCURVE",
"506 -263 OFFCURVE",
"507 -276 CURVE",
"551 -334 OFFCURVE",
"753 -435 OFFCURVE",
"903 -436 CURVE SMOOTH"
);
}
);
width = 1371;
}
);
unicode = 014A;
},
{
glyphname = O;
lastChange = "2022-05-20 02:39:37 +0000";
layers = (
{
anchors = (
{
name = bottom;
position = "{646, 0}";
},
{
name = center;
position = "{646, 765}";
},
{
name = ogonek;
position = "{1162, 10}";
},
{
name = top;
position = "{646, 1529}";
},
{
name = topleft;
position = "{20, 1529}";
},
{
name = topright;
position = "{1173, 1529}";
}
);
layerId = "ED69ACE7-BE83-49AD-8DAF-057B7A1FF3CB";
paths = (
{
closed = 1;
nodes = (
"771 -14 OFFCURVE",
"837 11 OFFCURVE",
"929 58 CURVE SMOOTH",
"991 90 OFFCURVE",
"1086 132 OFFCURVE",
"1101 190 CURVE SMOOTH",
"1139 325 OFFCURVE",
"1189 841 OFFCURVE",
"1189 1060 CURVE SMOOTH",
"1189 1183 OFFCURVE",
"1182 1240 OFFCURVE",
"1173 1321 CURVE",
"1078 1436 OFFCURVE",
"726 1549 OFFCURVE",
"628 1549 CURVE SMOOTH {name = hr00;}",
"559 1549 OFFCURVE",
"213 1435 OFFCURVE",
"138 1337 CURVE SMOOTH",
"101 1288 OFFCURVE",
"102 1154 OFFCURVE",
"102 1081 CURVE SMOOTH",
"102 879 OFFCURVE",
"148 386 OFFCURVE",
"185 147 CURVE",
"274 67 OFFCURVE",
"551 -12 OFFCURVE",
"699 -21 CURVE"
);
},
{
closed = 1;
nodes = (
"655 253 OFFCURVE",
"555 299 OFFCURVE",
"500 331 CURVE",
"490 444 OFFCURVE",
"486 612 OFFCURVE",
"486 786 CURVE SMOOTH",
"486 935 OFFCURVE",
"490 1085 OFFCURVE",
"497 1174 CURVE",
"566 1209 LINE",
"777 1118 LINE",
"789 991 OFFCURVE",
"797 782 OFFCURVE",
"797 586 CURVE SMOOTH",
"797 466 OFFCURVE",
"794 354 OFFCURVE",
"786 280 CURVE",
"725 238 LINE"
);
}
);
userData = {
com.typemytype.robofont.guides = (
{
angle = 90;
isGlobal = 0;
x = 643;
y = 0;
}
);
};
width = 1291;
}
);
unicode = 004F;
},
{
glyphname = Oslash;
lastChange = "2022-05-20 02:41:27 +0000";
layers = (
{
anchors = (
{
name = bottom;
position = "{646, 0}";
},
{
name = center;
position = "{646, 765}";
},
{
name = ogonek;
position = "{1162, 10}";
},
{
name = top;
position = "{646, 1529}";
},
{
name = topleft;
position = "{20, 1529}";
},
{
name = topright;
position = "{1173, 1529}";
}
);
layerId = "ED69ACE7-BE83-49AD-8DAF-057B7A1FF3CB";
paths = (
{
closed = 1;
nodes = (
"1187 1655 LINE",
"1137 1757 OFFCURVE",
"1079 1789 OFFCURVE",
"980 1817 CURVE",
"766 1358 LINE",
"931 1159 LINE {name = hr00;}"
);
},
{
closed = 1;
nodes = (
"556 150 LINE",
"375 346 LINE",
"178 -190 LINE",
"227 -271 OFFCURVE",
"304 -253 OFFCURVE",
"383 -257 CURVE"
);
},
{
closed = 1;
nodes = (
"771 -14 OFFCURVE",
"837 11 OFFCURVE",
"929 58 CURVE SMOOTH",
"991 90 OFFCURVE",
"1086 132 OFFCURVE",
"1101 190 CURVE SMOOTH",
"1139 325 OFFCURVE",
"1189 841 OFFCURVE",
"1189 1060 CURVE SMOOTH",
"1189 1183 OFFCURVE",
"1182 1240 OFFCURVE",
"1173 1321 CURVE",
"1078 1436 OFFCURVE",
"726 1549 OFFCURVE",
"628 1549 CURVE SMOOTH {name = hr00;}",
"559 1549 OFFCURVE",
"213 1435 OFFCURVE",
"138 1337 CURVE SMOOTH",
"101 1288 OFFCURVE",
"102 1154 OFFCURVE",
"102 1081 CURVE SMOOTH",
"102 879 OFFCURVE",
"148 386 OFFCURVE",
"185 147 CURVE",
"274 67 OFFCURVE",
"551 -12 OFFCURVE",
"699 -21 CURVE"
);
},
{
closed = 1;
nodes = (
"655 253 OFFCURVE",
"555 299 OFFCURVE",
"500 331 CURVE",
"490 444 OFFCURVE",
"486 612 OFFCURVE",
"486 786 CURVE SMOOTH",
"486 935 OFFCURVE",
"490 1085 OFFCURVE",
"497 1174 CURVE",
"566 1209 LINE",
"777 1118 LINE",
"789 991 OFFCURVE",
"797 782 OFFCURVE",
"797 586 CURVE SMOOTH",
"797 466 OFFCURVE",
"794 354 OFFCURVE",
"786 280 CURVE",
"725 238 LINE"
);
}
);
width = 1297;
}
);
unicode = 00D8;
},
{
glyphname = OE;
lastChange = "2022-05-20 00:37:12 +0000";
layers = (
{
layerId = "ED69ACE7-BE83-49AD-8DAF-057B7A1FF3CB";
paths = (
{
closed = 1;
nodes = (
"775 -14 OFFCURVE",
"841 11 OFFCURVE",
"934 58 CURVE SMOOTH",
"996 90 OFFCURVE",
"1082 132 OFFCURVE",
"1098 190 CURVE SMOOTH",
"1136 325 OFFCURVE",
"1186 841 OFFCURVE",
"1186 1060 CURVE SMOOTH",
"1186 1183 OFFCURVE",
"1179 1240 OFFCURVE",
"1170 1321 CURVE",
"1074 1436 OFFCURVE",
"730 1549 OFFCURVE",
"631 1549 CURVE SMOOTH",
"562 1549 OFFCURVE",
"207 1435 OFFCURVE",
"132 1337 CURVE SMOOTH",
"95 1288 OFFCURVE",
"96 1154 OFFCURVE",
"96 1081 CURVE SMOOTH",
"96 879 OFFCURVE",
"136 386 OFFCURVE",
"173 147 CURVE",
"262 67 OFFCURVE",
"554 -12 OFFCURVE",
"703 -21 CURVE {name = hr02;}"
);
},
{
closed = 1;
nodes = (
"729 238 LINE",
"658 253 OFFCURVE",
"556 299 OFFCURVE",
"501 331 CURVE",
"490 444 OFFCURVE",
"486 612 OFFCURVE",
"486 786 CURVE SMOOTH",
"486 935 OFFCURVE",
"490 1085 OFFCURVE",
"498 1174 CURVE",
"569 1209 LINE",
"783 1118 LINE",
"795 991 OFFCURVE",
"803 782 OFFCURVE",
"803 586 CURVE SMOOTH",
"803 466 OFFCURVE",
"799 302 OFFCURVE",
"791 228 CURVE"
);
},
{
closed = 1;
nodes = (
"1644 -19 OFFCURVE",
"1731 85 OFFCURVE",
"1731 239 CURVE SMOOTH",
"1731 328 OFFCURVE",
"1714 419 OFFCURVE",
"1693 475 CURVE",
"1513 490 LINE",
"1431 300 LINE",
"1088 322 LINE",
"823 272 LINE",
"833 201 OFFCURVE",
"814 164 OFFCURVE",
"864 104 CURVE",
"1064 25 OFFCURVE",
"1269 -19 OFFCURVE",
"1480 -19 CURVE SMOOTH"
);
},
{
closed = 1;
nodes = (
"1553 581 OFFCURVE",
"1573 582 OFFCURVE",
"1593 584 CURVE",
"1616 609 OFFCURVE",
"1644 692 OFFCURVE",
"1644 778 CURVE SMOOTH",
"1644 832 OFFCURVE",
"1633 886 OFFCURVE",
"1604 930 CURVE",
"1460 900 OFFCURVE",
"1349 876 OFFCURVE",
"1156 854 CURVE",
"1158 654 LINE {name = hr01;}",
"1262 601 OFFCURVE",
"1411 581 OFFCURVE",
"1533 581 CURVE SMOOTH"
);
},
{
closed = 1;
nodes = (
"1645 1125 OFFCURVE",
"1686 1225 OFFCURVE",
"1686 1331 CURVE SMOOTH",
"1686 1423 OFFCURVE",
"1657 1511 OFFCURVE",
"1591 1549 CURVE",
"1222 1455 LINE",
"757 1366 LINE",
"1156 1168 LINE",
"1325 1120 OFFCURVE",
"1466 1088 OFFCURVE",
"1579 1075 CURVE"
);
}
);
width = 1797;
}
);
unicode = 0152;
},
{
glyphname = P;
lastChange = "2022-05-20 02:42:32 +0000";
layers = (
{
anchors = (
{
name = bottom;
position = "{632, 0}";
},
{
name = top;
position = "{632, 1529}";
}
);
layerId = "ED69ACE7-BE83-49AD-8DAF-057B7A1FF3CB";
paths = (
{
closed = 1;
nodes = (
"935 392 OFFCURVE",
"1073 519 OFFCURVE",
"1116 570 CURVE",
"1200 802 OFFCURVE",
"1236 1184 OFFCURVE",
"1219 1404 CURVE",
"1099 1506 OFFCURVE",
"937 1549 OFFCURVE",
"861 1548 CURVE SMOOTH",
"803 1547 OFFCURVE",
"752 1537 OFFCURVE",
"731 1531 CURVE",
"335 699 LINE",
"420 663 LINE",
"417 642 OFFCURVE",
"427 487 OFFCURVE",
"427 487 CURVE",
"436 486 LINE",
"429 479 LINE",
"530 438 OFFCURVE",
"776 390 OFFCURVE",
"855 391 CURVE"
);
},
{
closed = 1;
nodes = (
"565 -21 OFFCURVE",
"712 68 OFFCURVE",
"750 145 CURVE",
"722 269 LINE",
"516 282 LINE",
"468 522 LINE",
"221 496 LINE",
"202 430 OFFCURVE",
"192 173 OFFCURVE",
"192 143 CURVE SMOOTH",
"192 67 OFFCURVE",
"277 -21 OFFCURVE",
"406 -21 CURVE SMOOTH"
);
},
{
closed = 1;
nodes = (
"486 594 OFFCURVE",
"439 749 OFFCURVE",
"510 988 CURVE",
"464 969 LINE",
"435 983 LINE",
"530 1480 LINE",
"478 1515 OFFCURVE",
"419 1530 OFFCURVE",
"360 1529 CURVE SMOOTH",
"253 1527 OFFCURVE",
"147 1473 OFFCURVE",
"88 1393 CURVE",
"79 1354 OFFCURVE",
"163 600 OFFCURVE",
"219 488 CURVE",
"465 344 LINE {name = hr00;}"
);
},
{
closed = 1;
nodes = (
"779 545 OFFCURVE",
"557 676 OFFCURVE",
"504 695 CURVE",
"549 791 OFFCURVE",
"707 1040 OFFCURVE",
"780 1151 CURVE",
"827 1143 LINE",
"844 980 OFFCURVE",
"823 796 OFFCURVE",
"795 638 CURVE SMOOTH"
);
}
);
width = 1264;
}
);
unicode = 0050;
},
{
glyphname = Thorn;
lastChange = "2022-05-20 00:37:12 +0000";
layers = (
{
layerId = "ED69ACE7-BE83-49AD-8DAF-057B7A1FF3CB";
paths = (
{
closed = 1;
nodes = (
"935 241 OFFCURVE",
"1073 368 OFFCURVE",
"1116 419 CURVE",
"1200 651 OFFCURVE",
"1236 1033 OFFCURVE",
"1219 1253 CURVE",
"1099 1355 OFFCURVE",
"937 1398 OFFCURVE",
"861 1397 CURVE SMOOTH",
"803 1396 OFFCURVE",
"752 1386 OFFCURVE",
"731 1380 CURVE",
"335 718 LINE",
"420 532 LINE",
"417 511 OFFCURVE",
"427 436 OFFCURVE",
"427 436 CURVE",
"436 435 LINE",
"429 428 LINE",
"530 387 OFFCURVE",
"776 239 OFFCURVE",
"855 240 CURVE SMOOTH"
);
},
{
closed = 1;
nodes = (
"482 -20 OFFCURVE",
"535 -9 OFFCURVE",
"578 19 CURVE",
"567 208 OFFCURVE",
"499 469 OFFCURVE",
"465 632 CURVE",
"250 656 LINE",
"201 513 OFFCURVE",
"163 258 OFFCURVE",
"153 62 CURVE",
"206 12 OFFCURVE",
"292 -20 OFFCURVE",
"411 -20 CURVE SMOOTH"
);
},
{
closed = 1;
nodes = (
"455 892 LINE",
"530 1480 LINE",
"473 1516 OFFCURVE",
"417 1529 OFFCURVE",
"360 1529 CURVE SMOOTH",
"254 1529 OFFCURVE",
"147 1473 OFFCURVE",
"88 1393 CURVE",
"79 1354 OFFCURVE",
"163 600 OFFCURVE",
"219 488 CURVE",
"465 344 LINE {name = hr00;}"
);
},
{
closed = 1;
nodes = (
"779 394 OFFCURVE",
"557 685 OFFCURVE",
"504 714 CURVE",
"574 813 OFFCURVE",
"710 932 OFFCURVE",
"780 1000 CURVE",
"827 992 LINE",
"844 829 OFFCURVE",
"823 645 OFFCURVE",
"795 487 CURVE SMOOTH"
);
},
{
closed = 1;
nodes = (
"530 985 LINE",
"305 1050 LINE",
"406 870 LINE"
);
}
);
width = 1264;
}
);
unicode = 00DE;
},
{
glyphname = Q;
lastChange = "2022-05-20 00:37:12 +0000";
layers = (
{
layerId = "ED69ACE7-BE83-49AD-8DAF-057B7A1FF3CB";
paths = (
{
closed = 1;
nodes = (
"779 23 OFFCURVE",
"837 11 OFFCURVE",
"929 58 CURVE SMOOTH",
"991 90 OFFCURVE",
"1086 132 OFFCURVE",
"1101 190 CURVE SMOOTH",
"1139 325 OFFCURVE",
"1189 841 OFFCURVE",
"1189 1060 CURVE SMOOTH",
"1189 1183 OFFCURVE",
"1182 1240 OFFCURVE",
"1173 1321 CURVE",
"1078 1436 OFFCURVE",
"726 1549 OFFCURVE",
"628 1549 CURVE SMOOTH",
"559 1549 OFFCURVE",
"213 1435 OFFCURVE",
"138 1337 CURVE SMOOTH",
"101 1288 OFFCURVE",
"102 1154 OFFCURVE",
"102 1081 CURVE SMOOTH",
"102 879 OFFCURVE",
"148 386 OFFCURVE",
"185 147 CURVE",
"274 67 OFFCURVE",
"559 25 OFFCURVE",
"707 16 CURVE"
);
},
{
closed = 1;
nodes = (
"1054 -442 OFFCURVE",
"1063 -434 OFFCURVE",
"1068 -424 CURVE",
"1150 -367 OFFCURVE",
"1217 -176 OFFCURVE",
"1177 -76 CURVE",
"1069 -90 OFFCURVE",
"799 -111 OFFCURVE",
"627 -123 CURVE",
"623 -94 LINE",
"626 -82 OFFCURVE",
"896 23 OFFCURVE",
"1008 99 CURVE",
"925 273 LINE {name = hr00;}",
"421 -69 LINE",
"366 -20 LINE",
"313 -28 OFFCURVE",
"269 -51 OFFCURVE",
"221 -77 CURVE",
"215 -212 OFFCURVE",
"265 -356 OFFCURVE",
"353 -410 CURVE",
"425 -405 OFFCURVE",
"475 -367 OFFCURVE",
"513 -318 CURVE",
"692 -386 OFFCURVE",
"939 -434 OFFCURVE",
"1040 -446 CURVE"
);
},
{
closed = 1;
nodes = (
"655 253 OFFCURVE",
"555 299 OFFCURVE",
"500 331 CURVE",
"490 444 OFFCURVE",
"486 612 OFFCURVE",
"486 786 CURVE SMOOTH",
"486 935 OFFCURVE",
"490 1085 OFFCURVE",
"497 1174 CURVE",
"566 1209 LINE",
"777 1118 LINE",
"789 991 OFFCURVE",
"797 782 OFFCURVE",
"797 586 CURVE SMOOTH",
"797 466 OFFCURVE",
"794 354 OFFCURVE",
"786 280 CURVE",
"725 238 LINE"
);
}
);
width = 1291;
}
);
unicode = 0051;
},
{
glyphname = R;
lastChange = "2022-05-20 02:43:12 +0000";
layers = (
{
anchors = (
{
name = bottom;
position = "{682, 0}";
},
{
name = top;
position = "{682, 1529}";
}
);
layerId = "ED69ACE7-BE83-49AD-8DAF-057B7A1FF3CB";
paths = (
{
closed = 1;
nodes = (
"1195 415 OFFCURVE",
"1149 382 OFFCURVE",
"1104 366 CURVE",
"1047 423 OFFCURVE",
"1005 494 OFFCURVE",
"971 558 CURVE",
"1029 607 OFFCURVE",
"1081 661 OFFCURVE",
"1123 723 CURVE",
"1192 950 OFFCURVE",
"1222 1216 OFFCURVE",
"1219 1404 CURVE",
"1099 1506 OFFCURVE",
"937 1549 OFFCURVE",
"861 1548 CURVE SMOOTH",
"803 1547 OFFCURVE",
"752 1537 OFFCURVE",
"731 1531 CURVE",
"464 969 LINE",
"435 983 LINE",
"530 1480 LINE",
"384 1579 OFFCURVE",
"179 1517 OFFCURVE",
"88 1393 CURVE",
"79 1355 OFFCURVE",
"163 485 OFFCURVE",
"219 370 CURVE",
"190 291 OFFCURVE",
"170 230 OFFCURVE",
"137 69 CURVE",
"187 11 OFFCURVE",
"294 -22 OFFCURVE",
"396 -20 CURVE SMOOTH",
"458 -19 OFFCURVE",
"519 -4 OFFCURVE",
"563 27 CURVE",
"552 158 OFFCURVE",
"513 406 OFFCURVE",
"473 501 CURVE",
"741 465 LINE",
"753 344 OFFCURVE",
"789 53 OFFCURVE",
"948 2 CURVE SMOOTH",
"991 -12 OFFCURVE",
"1032 -20 OFFCURVE",
"1070 -20 CURVE SMOOTH",
"1145 -20 OFFCURVE",
"1208 9 OFFCURVE",
"1251 69 CURVE SMOOTH",
"1297 133 OFFCURVE",
"1351 245 OFFCURVE",
"1355 350 CURVE",
"1241 452 LINE"
);
},
{
closed = 1;
nodes = (
"837 1054 OFFCURVE",
"832 865 OFFCURVE",
"806 694 CURVE",
"490 672 LINE",
"541 775 OFFCURVE",
"710 1044 OFFCURVE",
"780 1151 CURVE",
"827 1143 LINE"
);
}
);
width = 1364;
}
);
unicode = 0052;
},
{
glyphname = S;
lastChange = "2022-05-20 02:43:36 +0000";
layers = (
{
anchors = (
{
name = bottom;
position = "{525, 0}";
},
{
name = top;
position = "{525, 1529}";
}
);
layerId = "ED69ACE7-BE83-49AD-8DAF-057B7A1FF3CB";
paths = (
{
closed = 1;
nodes = (
"772 24 OFFCURVE",
"852 92 OFFCURVE",
"928 168 CURVE",
"950 238 OFFCURVE",
"1002 431 OFFCURVE",
"993 528 CURVE",
"877 698 OFFCURVE",
"526 936 OFFCURVE",
"418 998 CURVE",
"456 1208 LINE",
"469 1208 LINE",
"591 1088 OFFCURVE",
"765 1009 OFFCURVE",
"856 990 CURVE",
"911 1017 OFFCURVE",
"1050 1201 OFFCURVE",
"986 1455 CURVE",
"666 1440 LINE",
"625 1460 OFFCURVE",
"509 1527 OFFCURVE",
"436 1549 CURVE",
"286 1485 OFFCURVE",
"165 1399 OFFCURVE",
"69 1244 CURVE",
"81 1129 OFFCURVE",
"89 870 OFFCURVE",
"113 779 CURVE",
"180 663 OFFCURVE",
"531 489 OFFCURVE",
"658 454 CURVE",
"675 396 OFFCURVE",
"666 328 OFFCURVE",
"654 268 CURVE",
"594 243 LINE {name = hr00;}",
"465 331 OFFCURVE",
"310 410 OFFCURVE",
"148 422 CURVE",
"132 383 OFFCURVE",
"48 247 OFFCURVE",
"169 37 CURVE",
"159 36 OFFCURVE",
"677 -22 OFFCURVE",
"667 -20 CURVE"
);
}
);
width = 1050;
}
);
unicode = 0053;
},
{
glyphname = Saltillo;
lastChange = "2022-05-20 02:44:23 +0000";
layers = (
{
anchors = (
{
name = bottom;
position = "{333, 0}";
},
{
name = ogonek;
position = "{599, 10}";
},
{
name = top;
position = "{333, 1529}";
},
{
name = topleft;
position = "{20, 1529}";
}
);
layerId = "ED69ACE7-BE83-49AD-8DAF-057B7A1FF3CB";
paths = (
{
closed = 1;
nodes = (
"419 536 OFFCURVE",
"452 547 OFFCURVE",
"479 575 CURVE",
"503 754 OFFCURVE",
"553 1182 OFFCURVE",
"566 1489 CURVE",
"518 1518 OFFCURVE",
"463 1529 OFFCURVE",
"400 1529 CURVE SMOOTH",
"251 1529 OFFCURVE",
"119 1456 OFFCURVE",
"82 1399 CURVE",
"100 1296 OFFCURVE",
"216 705 OFFCURVE",
"212 618 CURVE",
"245 568 OFFCURVE",
"299 536 OFFCURVE",
"374 536 CURVE SMOOTH"
);
}
);
width = 666;
}
);
unicode = A78B;
},
{
glyphname = Germandbls;
lastChange = "2022-05-20 02:51:50 +0000";
layers = (
{
layerId = "ED69ACE7-BE83-49AD-8DAF-057B7A1FF3CB";
paths = (
{
closed = 1;
nodes = (
"464 0 LINE",
"448 1297 LINE",
"464 1311 LINE",
"514 1278 OFFCURVE",
"619 1214 OFFCURVE",
"685 1187 CURVE",
"541 654 LINE",
"768 635 LINE",
"890 816 OFFCURVE",
"1091 1167 OFFCURVE",
"1122 1380 CURVE",
"941 1518 OFFCURVE",
"645 1601 OFFCURVE",
"484 1613 CURVE",
"313 1564 OFFCURVE",
"169 1438 OFFCURVE",
"65 1295 CURVE",
"57 1132 OFFCURVE",
"119 392 OFFCURVE",
"181 0 CURVE"
);
},
{
closed = 1;
nodes = (
"959 19 OFFCURVE",
"1064 94 OFFCURVE",
"1139 167 CURVE",
"1175 233 OFFCURVE",
"1251 403 OFFCURVE",
"1254 486 CURVE",
"1188 582 OFFCURVE",
"929 763 OFFCURVE",
"838 814 CURVE",
"541 654 LINE {name = hr00;}",
"599 579 OFFCURVE",
"816 477 OFFCURVE",
"918 432 CURVE",
"911 379 OFFCURVE",
"891 295 OFFCURVE",
"868 234 CURVE",
"845 227 LINE",
"786 303 OFFCURVE",
"744 375 OFFCURVE",
"621 391 CURVE",
"603 361 OFFCURVE",
"494 236 OFFCURVE",
"577 54 CURVE",
"653 35 OFFCURVE",
"699 21 OFFCURVE",
"851 -21 CURVE"
);
}
);
width = 1200;
}
);
unicode = 1E9E;
},
{
glyphname = Schwa;
lastChange = "2022-05-20 02:46:23 +0000";
layers = (
{
anchors = (
{
name = bottom;
position = "{645, 0}";
},
{
name = bottomleft;
position = "{118, 0}";
},
{
name = bottomright;
position = "{1271, 0}";
},
{
name = center;
position = "{645, 764}";
},
{
name = ogonek;
position = "{129, 1519}";
},
{
name = top;
position = "{645, 1529}";
}
);
layerId = "ED69ACE7-BE83-49AD-8DAF-057B7A1FF3CB";
paths = (
{
closed = 1;
nodes = (
"108 591 OFFCURVE",
"102 491 OFFCURVE",
"102 423 CURVE SMOOTH",
"102 380 OFFCURVE",
"109 289 OFFCURVE",
"118 208 CURVE",
"213 93 OFFCURVE",
"565 -20 OFFCURVE",
"663 -20 CURVE SMOOTH {name = hr00;}",
"732 -20 OFFCURVE",
"1078 94 OFFCURVE",
"1153 192 CURVE SMOOTH",
"1190 241 OFFCURVE",
"1189 375 OFFCURVE",
"1189 448 CURVE SMOOTH",
"1189 650 OFFCURVE",
"1143 1143 OFFCURVE",
"1106 1382 CURVE",
"1017 1462 OFFCURVE",
"740 1541 OFFCURVE",
"592 1550 CURVE",
"520 1543 OFFCURVE",
"454 1518 OFFCURVE",
"362 1471 CURVE SMOOTH",
"300 1439 OFFCURVE",
"205 1397 OFFCURVE",
"190 1339 CURVE SMOOTH",
"174 1282 OFFCURVE",
"156 1157 OFFCURVE",
"140 1016 CURVE",
"494 1016 LINE",
"495 1107 OFFCURVE",
"499 1190 OFFCURVE",
"505 1249 CURVE",
"566 1291 LINE",
"636 1276 OFFCURVE",
"736 1230 OFFCURVE",
"791 1198 CURVE",
"801 1085 OFFCURVE",
"805 917 OFFCURVE",
"805 743 CURVE SMOOTH",
"805 594 OFFCURVE",
"801 444 OFFCURVE",
"794 355 CURVE",
"725 320 LINE",
"514 411 LINE",
"505 504 OFFCURVE",
"499 633 OFFCURVE",
"496 697 CURVE",
"118 697 LINE"
);
},
{
closed = 1;
nodes = (
"680 848 OFFCURVE",
"475 868 OFFCURVE",
"283 868 CURVE SMOOTH",
"253 868 OFFCURVE",
"224 867 OFFCURVE",
"194 866 CURVE",
"160 844 OFFCURVE",
"118 772 OFFCURVE",
"118 697 CURVE SMOOTH",
"118 650 OFFCURVE",
"134 603 OFFCURVE",
"177 565 CURVE",
"400 592 OFFCURVE",
"539 614 OFFCURVE",
"851 634 CURVE",
"839 796 LINE"
);
}
);
width = 1291;
}
);
unicode = 018F;
},
{
glyphname = T;
lastChange = "2022-05-20 02:46:38 +0000";
layers = (
{
anchors = (
{
name = bottom;
position = "{552, 0}";
},
{
name = center;
position = "{552, 765}";
},
{
name = top;
position = "{612, 1529}";
}
);
layerId = "ED69ACE7-BE83-49AD-8DAF-057B7A1FF3CB";
paths = (
{
closed = 1;
nodes = (
"293 1247 LINE {name = hr02;}",
"582 1174 LINE",
"778 1162 LINE",
"844 1119 OFFCURVE",
"986 1084 OFFCURVE",
"1054 1084 CURVE",
"1186 1174 OFFCURVE",
"1195 1480 OFFCURVE",
"1063 1549 CURVE",
"715 1438 LINE {name = hr01;}",
"276 1549 LINE",
"181 1540 OFFCURVE",
"63 1480 OFFCURVE",
"-8 1393 CURVE",
"-67 1288 OFFCURVE",
"-15 1070 OFFCURVE",
"19 967 CURVE",
"98 933 OFFCURVE",
"173 939 OFFCURVE",
"252 966 CURVE"
);
},
{
closed = 1;
nodes = (
"884 -21 OFFCURVE",
"1035 189 OFFCURVE",
"1056 283 CURVE",
"978 415 LINE",
"758 314 LINE",
"749 598 LINE",
"462 580 LINE",
"441 455 OFFCURVE",
"402 344 OFFCURVE",
"412 227 CURVE SMOOTH",
"426 72 OFFCURVE",
"612 -21 OFFCURVE",
"753 -21 CURVE SMOOTH"
);
},
{
closed = 1;
nodes = (
"749 580 LINE",
"815 1204 LINE {name = hr03;}",
"715 1255 OFFCURVE",
"613 1318 OFFCURVE",
"402 1245 CURVE {name = hr04;}",
"464 579 LINE"
);
}
);
userData = {
com.typemytype.robofont.guides = (
{
angle = 90;
isGlobal = 0;
x = 585;
y = 0;
}
);
};
width = 1103;
}
);
unicode = 0054;
},
{
glyphname = Tbar;
lastChange = "2022-05-20 00:37:12 +0000";
layers = (
{
layerId = "ED69ACE7-BE83-49AD-8DAF-057B7A1FF3CB";
paths = (
{
closed = 1;
nodes = (
"300 1247 LINE",
"589 1174 LINE",
"775 1162 LINE",
"841 1119 OFFCURVE",
"993 1084 OFFCURVE",
"1061 1084 CURVE",
"1193 1174 OFFCURVE",
"1202 1480 OFFCURVE",
"1070 1549 CURVE",
"722 1438 LINE",
"283 1549 LINE",
"188 1540 OFFCURVE",
"70 1480 OFFCURVE",
"-1 1393 CURVE",
"-60 1288 OFFCURVE",
"-8 1070 OFFCURVE",
"26 967 CURVE",
"105 933 OFFCURVE",
"180 939 OFFCURVE",
"259 966 CURVE"
);
},
{
closed = 1;
nodes = (
"899 -21 OFFCURVE",
"1050 189 OFFCURVE",
"1071 283 CURVE",
"993 415 LINE",
"773 314 LINE",
"754 598 LINE {name = hr04;}",
"487 580 LINE {name = hr05;}",
"466 455 OFFCURVE",
"417 344 OFFCURVE",
"427 227 CURVE SMOOTH",
"441 72 OFFCURVE",
"627 -21 OFFCURVE",
"768 -21 CURVE SMOOTH"
);
},
{
closed = 1;
nodes = (
"988 677 OFFCURVE",
"1025 790 OFFCURVE",
"1002 886 CURVE",
"308 837 LINE",
"262 759 OFFCURVE",
"240 698 OFFCURVE",
"252 585 CURVE {name = hr01;}",
"629 571 OFFCURVE",
"850 564 OFFCURVE",
"934 571 CURVE"
);
},
{
closed = 1;
nodes = (
"754 580 LINE {name = hr02;}",
"820 1204 LINE",
"720 1255 OFFCURVE",
"638 1318 OFFCURVE",
"427 1245 CURVE {name = hr03;}",
"489 579 LINE"
);
}
);
width = 1103;
}
);
unicode = 0166;
},
{
glyphname = U;
lastChange = "2022-05-20 02:47:20 +0000";
layers = (
{
anchors = (
{
name = bottom;
position = "{636, 0}";
},
{
name = ogonek;
position = "{1145, 10}";
},
{
name = top;
position = "{636, 1529}";
},
{
name = topright;
position = "{1252, 1529}";
}
);
layerId = "ED69ACE7-BE83-49AD-8DAF-057B7A1FF3CB";
paths = (
{
closed = 1;
nodes = (
"1182 1306 OFFCURVE",
"1179 1326 OFFCURVE",
"1168 1409 CURVE",
"1047 1477 OFFCURVE",
"898 1539 OFFCURVE",
"830 1549 CURVE",
"695 1496 OFFCURVE",
"626 1367 OFFCURVE",
"615 1247 CURVE",
"779 1201 LINE",
"791 1073 OFFCURVE",
"800 781 OFFCURVE",
"800 586 CURVE SMOOTH",
"800 466 OFFCURVE",
"796 302 OFFCURVE",
"788 228 CURVE",
"677 242 OFFCURVE",
"593 279 OFFCURVE",
"538 311 CURVE",
"527 424 OFFCURVE",
"523 612 OFFCURVE",
"523 786 CURVE SMOOTH",
"524 1174 LINE",
"549 1345 LINE",
"549 1346 LINE {name = hr00;}",
"410 1452 OFFCURVE",
"276 1537 OFFCURVE",
"182 1549 CURVE",
"42 1478 OFFCURVE",
"4 1346 OFFCURVE",
"-5 1226 CURVE",
"135 1179 LINE",
"133 1143 OFFCURVE",
"133 1108 OFFCURVE",
"133 1081 CURVE SMOOTH",
"133 879 OFFCURVE",
"173 386 OFFCURVE",
"210 147 CURVE",
"299 67 OFFCURVE",
"551 -12 OFFCURVE",
"700 -21 CURVE",
"772 -14 OFFCURVE",
"838 11 OFFCURVE",
"931 58 CURVE SMOOTH",
"993 90 OFFCURVE",
"1095 132 OFFCURVE",
"1111 190 CURVE SMOOTH",
"1149 325 OFFCURVE",
"1199 841 OFFCURVE",
"1199 1060 CURVE SMOOTH",
"1199 1149 OFFCURVE",
"1194 1203 OFFCURVE",
"1188 1257 CURVE SMOOTH"
);
}
);
width = 1272;
}
);
unicode = 0055;
},
{
glyphname = V;
lastChange = "2022-05-20 00:37:12 +0000";
layers = (
{
layerId = "ED69ACE7-BE83-49AD-8DAF-057B7A1FF3CB";
paths = (
{
closed = 1;
nodes = (
"734 -22 OFFCURVE",
"834 -2 OFFCURVE",
"888 41 CURVE",
"871 138 OFFCURVE",
"850 205 OFFCURVE",
"827 259 CURVE",
"1196 1127 LINE",
"1185 1279 OFFCURVE",
"1115 1461 OFFCURVE",
"1003 1551 CURVE",
"859 1533 OFFCURVE",
"683 1457 OFFCURVE",
"623 1302 CURVE",
"677 1192 OFFCURVE",
"745 1141 OFFCURVE",
"814 1082 CURVE",
"645 343 LINE",
"619 672 OFFCURVE",
"432 1415 OFFCURVE",
"403 1472 CURVE {name = hr00;}",
"350 1512 OFFCURVE",
"287 1529 OFFCURVE",
"225 1529 CURVE SMOOTH",
"93 1529 OFFCURVE",
"-35 1444 OFFCURVE",
"-51 1287 CURVE",
"124 1065 LINE",
"391 282 LINE",
"368 220 OFFCURVE",
"347 145 OFFCURVE",
"340 46 CURVE",
"393 3 OFFCURVE",
"514 -22 OFFCURVE",
"631 -22 CURVE SMOOTH"
);
}
);
width = 1211;
}
);
unicode = 0056;
},
{
glyphname = Vturned;
lastChange = "2022-05-20 02:49:41 +0000";
layers = (
{
layerId = "ED69ACE7-BE83-49AD-8DAF-057B7A1FF3CB";
paths = (
{
closed = 1;
nodes = (
"477 1551 OFFCURVE",
"377 1531 OFFCURVE",
"323 1488 CURVE",
"340 1391 OFFCURVE",
"361 1324 OFFCURVE",
"384 1270 CURVE",
"15 402 LINE",
"26 250 OFFCURVE",
"96 68 OFFCURVE",
"208 -22 CURVE",
"352 -4 OFFCURVE",
"528 72 OFFCURVE",
"588 227 CURVE",
"534 337 OFFCURVE",
"466 388 OFFCURVE",
"397 447 CURVE",
"566 1186 LINE",
"592 857 OFFCURVE",
"779 114 OFFCURVE",
"808 57 CURVE {name = hr00;}",
"861 17 OFFCURVE",
"924 0 OFFCURVE",
"986 0 CURVE SMOOTH",
"1118 0 OFFCURVE",
"1246 85 OFFCURVE",
"1262 242 CURVE",
"1087 464 LINE",
"820 1247 LINE",
"843 1309 OFFCURVE",
"864 1384 OFFCURVE",
"871 1483 CURVE",
"818 1526 OFFCURVE",
"697 1551 OFFCURVE",
"580 1551 CURVE SMOOTH"
);
}
);
width = 1211;
}
);
unicode = 0245;
},
{
glyphname = W;
lastChange = "2022-05-20 02:49:52 +0000";
layers = (
{
anchors = (
{
name = bottom;
position = "{920, 0}";
},
{
name = top;
position = "{920, 1529}";
}
);
layerId = "ED69ACE7-BE83-49AD-8DAF-057B7A1FF3CB";
paths = (
{
closed = 1;
nodes = (
"811 164 OFFCURVE",
"791 223 OFFCURVE",
"768 272 CURVE",
"898 790 LINE",
"1040 298 LINE",
"1013 241 OFFCURVE",
"986 173 OFFCURVE",
"976 80 CURVE",
"1077 -18 OFFCURVE",
"1426 -26 OFFCURVE",
"1549 76 CURVE",
"1534 162 OFFCURVE",
"1514 221 OFFCURVE",
"1492 269 CURVE",
"1795 1165 LINE",
"1789 1317 OFFCURVE",
"1730 1460 OFFCURVE",
"1621 1550 CURVE",
"1477 1532 OFFCURVE",
"1283 1435 OFFCURVE",
"1218 1280 CURVE {name = hr00;}",
"1268 1170 OFFCURVE",
"1354 1115 OFFCURVE",
"1421 1056 CURVE",
"1322 373 LINE",
"1305 373 LINE",
"1288 659 OFFCURVE",
"1140 1070 OFFCURVE",
"1129 1135 CURVE",
"1129 1135 OFFCURVE",
"1129 1136 OFFCURVE",
"1130 1137 CURVE",
"1125 1291 OFFCURVE",
"1066 1470 OFFCURVE",
"981 1547 CURVE",
"837 1529 OFFCURVE",
"670 1441 OFFCURVE",
"576 1286 CURVE",
"626 1176 OFFCURVE",
"681 1119 OFFCURVE",
"748 1060 CURVE",
"589 373 LINE",
"582 373 LINE",
"565 664 OFFCURVE",
"446 1423 OFFCURVE",
"419 1480 CURVE",
"418 1480 LINE",
"375 1531 OFFCURVE",
"315 1552 OFFCURVE",
"254 1550 CURVE SMOOTH",
"129 1547 OFFCURVE",
"-20 1430 OFFCURVE",
"-69 1327 CURVE",
"104 1097 LINE",
"107 1086 LINE",
"314 291 LINE",
"288 236 OFFCURVE",
"263 169 OFFCURVE",
"253 80 CURVE",
"354 -18 OFFCURVE",
"703 -26 OFFCURVE",
"826 76 CURVE"
);
}
);
width = 1839;
}
);
unicode = 0057;
},
{
glyphname = X;
lastChange = "2022-05-20 00:37:12 +0000";
layers = (
{
layerId = "ED69ACE7-BE83-49AD-8DAF-057B7A1FF3CB";
paths = (
{
closed = 1;
nodes = (
"1065 -20 OFFCURVE",
"1144 16 OFFCURVE",
"1184 89 CURVE SMOOTH",
"1235 181 OFFCURVE",
"1270 285 OFFCURVE",
"1290 405 CURVE",
"1155 505 LINE",
"1013 379 LINE",
"778 786 LINE",
"937 1126 LINE",
"1050 940 LINE",
"1159 964 OFFCURVE",
"1243 1013 OFFCURVE",
"1302 1097 CURVE",
"1299 1258 OFFCURVE",
"1198 1430 OFFCURVE",
"1088 1529 CURVE",
"970 1524 OFFCURVE",
"851 1462 OFFCURVE",
"804 1408 CURVE SMOOTH",
"780 1381 OFFCURVE",
"734 1182 OFFCURVE",
"702 936 CURVE",
"695 1036 OFFCURVE",
"677 1193 OFFCURVE",
"599 1362 CURVE SMOOTH",
"547 1474 OFFCURVE",
"471 1527 OFFCURVE",
"356 1527 CURVE SMOOTH",
"313 1527 OFFCURVE",
"264 1520 OFFCURVE",
"209 1505 CURVE",
"108 1450 OFFCURVE",
"43 1268 OFFCURVE",
"26 1157 CURVE",
"163 1023 LINE",
"318 1120 LINE",
"505 746 LINE",
"381 433 LINE",
"240 575 LINE",
"151 543 OFFCURVE",
"86 499 OFFCURVE",
"32 421 CURVE",
"56 254 OFFCURVE",
"175 -19 OFFCURVE",
"293 -19 CURVE SMOOTH {name = hr03;}",
"401 -19 OFFCURVE",
"477 121 OFFCURVE",
"531 271 CURVE SMOOTH",
"570 379 OFFCURVE",
"597 493 OFFCURVE",
"615 562 CURVE",
"621 560 LINE {name = hr01;}",
"632 440 OFFCURVE",
"671 236 OFFCURVE",
"755 84 CURVE SMOOTH",
"794 13 OFFCURVE",
"878 -20 OFFCURVE",
"959 -20 CURVE SMOOTH {name = hr02;}"
);
}
);
width = 1345;
}
);
unicode = 0058;
},
{
glyphname = Y;
lastChange = "2022-05-20 02:50:54 +0000";
layers = (
{
anchors = (
{
name = bottom;
position = "{584, 0}";
},
{
name = top;
position = "{584, 1529}";
},
{
name = topleft;
position = "{20, 1529}";
}
);
layerId = "ED69ACE7-BE83-49AD-8DAF-057B7A1FF3CB";
paths = (
{
closed = 1;
nodes = (
"804 -20 OFFCURVE",
"993 118 OFFCURVE",
"1044 236 CURVE",
"969 382 LINE",
"904 355 OFFCURVE",
"778 315 OFFCURVE",
"723 307 CURVE",
"692 498 LINE",
"828 574 LINE",
"974 739 OFFCURVE",
"1111 1026 OFFCURVE",
"1165 1165 CURVE",
"1159 1317 OFFCURVE",
"1109 1459 OFFCURVE",
"1000 1549 CURVE",
"856 1531 OFFCURVE",
"676 1463 OFFCURVE",
"611 1308 CURVE",
"661 1198 OFFCURVE",
"716 1137 OFFCURVE",
"783 1078 CURVE",
"630 640 LINE",
"585 640 LINE",
"452 1480 LINE",
"399 1517 OFFCURVE",
"337 1530 OFFCURVE",
"265 1529 CURVE SMOOTH",
"201 1528 OFFCURVE",
"9 1494 OFFCURVE",
"0 1269 CURVE {name = hr00;}",
"120 1131 LINE",
"262 621 LINE",
"411 505 LINE",
"401 423 OFFCURVE",
"372 343 OFFCURVE",
"374 228 CURVE SMOOTH",
"376 73 OFFCURVE",
"532 -20 OFFCURVE",
"673 -20 CURVE SMOOTH"
);
}
);
width = 1168;
}
);
unicode = 0059;
},
{
glyphname = Z;
lastChange = "2022-05-20 02:51:10 +0000";
layers = (
{
anchors = (
{
name = bottom;
position = "{604, 0}";
},
{
name = center;
position = "{604, 765}";
},
{
name = top;
position = "{604, 1529}";
}
);
layerId = "ED69ACE7-BE83-49AD-8DAF-057B7A1FF3CB";
paths = (
{
closed = 1;
nodes = (
"334 -20 OFFCURVE",
"425 119 OFFCURVE",
"457 249 CURVE",
"487 226 OFFCURVE",
"559 191 OFFCURVE",
"541 419 CURVE {name = hr00;}",
"679 603 OFFCURVE",
"944 1011 OFFCURVE",
"1011 1120 CURVE",
"1134 1116 LINE",
"1208 1274 OFFCURVE",
"1183 1512 OFFCURVE",
"1030 1549 CURVE",
"940 1529 OFFCURVE",
"878 1476 OFFCURVE",
"826 1423 CURVE",
"682 1476 OFFCURVE",
"502 1529 OFFCURVE",
"356 1549 CURVE",
"314 1551 OFFCURVE",
"88 1465 OFFCURVE",
"65 1351 CURVE",
"34 1186 OFFCURVE",
"112 928 OFFCURVE",
"186 847 CURVE",
"371 887 LINE",
"416 1190 LINE",
"653 1154 LINE",
"288 469 LINE",
"247 491 OFFCURVE",
"205 503 OFFCURVE",
"168 511 CURVE",
"128 489 OFFCURVE",
"73 439 OFFCURVE",
"30 381 CURVE",
"20 251 OFFCURVE",
"110 40 OFFCURVE",
"206 -20 CURVE"
);
},
{
closed = 1;
nodes = (
"1114 -20 OFFCURVE",
"1161 181 OFFCURVE",
"1161 369 CURVE SMOOTH",
"1161 476 OFFCURVE",
"1146 579 OFFCURVE",
"1129 625 CURVE",
"945 649 LINE",
"850 360 LINE",
"529 421 LINE",
"377 282 LINE",
"504 163 OFFCURVE",
"738 -20 OFFCURVE",
"912 -20 CURVE SMOOTH"
);
}
);
width = 1208;
}
);
unicode = 005A;
},
{
color = 4;
glyphname = a;
lastChange = "2022-05-20 01:04:59 +0000";
layers = (
{
anchors = (
{
name = bottom;
position = "{601, 0}";
},
{
name = ogonek;
position = "{1081, 10}";
},
{
name = top;
position = "{601, 1182}";
}
);
layerId = "ED69ACE7-BE83-49AD-8DAF-057B7A1FF3CB";
paths = (
{
closed = 1;
nodes = (
"1032 -19 OFFCURVE",
"1132 118 OFFCURVE",
"1201 278 CURVE",
"1116 399 LINE",
"943 307 LINE {name = hr01;}",
"1042 541 OFFCURVE",
"1123 996 OFFCURVE",
"1115 1060 CURVE",
"1044 1144 OFFCURVE",
"960 1181 OFFCURVE",
"838 1181 CURVE SMOOTH {name = hr02;}",
"761 1181 OFFCURVE",
"691 1167 OFFCURVE",
"670 1153 CURVE",
"670 1121 OFFCURVE",
"676 1025 OFFCURVE",
"678 907 CURVE",
"618 1010 OFFCURVE",
"539 1129 OFFCURVE",
"432 1203 CURVE {name = hr03;}",
"393 1198 OFFCURVE",
"192 1161 OFFCURVE",
"70 1004 CURVE",
"52 979 OFFCURVE",
"45 965 OFFCURVE",
"45 949 CURVE SMOOTH",
"45 936 OFFCURVE",
"49 921 OFFCURVE",
"57 894 CURVE SMOOTH",
"106 737 OFFCURVE",
"130 477 OFFCURVE",
"133 319 CURVE SMOOTH",
"134 265 OFFCURVE",
"130 174 OFFCURVE",
"130 146 CURVE SMOOTH",
"131 93 OFFCURVE",
"214 65 OFFCURVE",
"263 30 CURVE SMOOTH",
"303 2 OFFCURVE",
"338 -22 OFFCURVE",
"374 -20 CURVE SMOOTH",
"392 -19 OFFCURVE",
"410 -12 OFFCURVE",
"430 4 CURVE",
"524 86 OFFCURVE",
"635 355 OFFCURVE",
"690 496 CURVE",
"705 489 LINE",
"691 399 OFFCURVE",
"681 321 OFFCURVE",
"671 220 CURVE SMOOTH",
"662 131 OFFCURVE",
"696 106 OFFCURVE",
"721 79 CURVE SMOOTH {name = hr04;}",
"776 20 OFFCURVE",
"854 -22 OFFCURVE",
"916 -21 CURVE SMOOTH"
);
},
{
closed = 1;
nodes = (
"431 352 LINE",
"455 473 OFFCURVE",
"469 590 OFFCURVE",
"466 712 CURVE",
"465 819 LINE",
"529 804 OFFCURVE",
"599 793 OFFCURVE",
"679 773 CURVE",
"679 689 OFFCURVE",
"680 733 OFFCURVE",
"677 693 CURVE",
"644 623 OFFCURVE",
"535 411 OFFCURVE",
"461 338 CURVE"
);
}
);
userData = {
com.typemytype.robofont.guides = (
{
angle = 0;
isGlobal = 0;
x = 0;
y = 1448;
},
{
angle = 0;
isGlobal = 0;
x = 0;
y = 1185;
}
);
};
width = 1201;
}
);
unicode = 0061;
},
{
glyphname = aogonek;
lastChange = "2022-05-20 00:37:12 +0000";
layers = (
{
components = (
{
name = ogonek;
transform = "{1, 0, 0, 1, 657, 0}";
}
);
layerId = "ED69ACE7-BE83-49AD-8DAF-057B7A1FF3CB";
paths = (
{
closed = 1;
nodes = (
"1025 -19 OFFCURVE",
"1125 118 OFFCURVE",
"1194 278 CURVE",
"1109 399 LINE",
"936 307 LINE {name = hr01;}",
"1035 541 OFFCURVE",
"1116 996 OFFCURVE",
"1108 1060 CURVE",
"1037 1144 OFFCURVE",
"953 1181 OFFCURVE",
"831 1181 CURVE SMOOTH {name = hr02;}",
"754 1181 OFFCURVE",
"684 1167 OFFCURVE",
"663 1153 CURVE",
"663 1121 OFFCURVE",
"669 1025 OFFCURVE",
"671 907 CURVE",
"611 1010 OFFCURVE",
"542 1129 OFFCURVE",
"436 1203 CURVE {name = hr03;}",
"397 1198 OFFCURVE",
"195 1161 OFFCURVE",
"71 1004 CURVE SMOOTH",
"52 979 OFFCURVE",
"45 965 OFFCURVE",
"45 949 CURVE SMOOTH",
"45 936 OFFCURVE",
"48 921 OFFCURVE",
"56 894 CURVE SMOOTH",
"102 737 OFFCURVE",
"122 477 OFFCURVE",
"122 319 CURVE SMOOTH",
"122 265 OFFCURVE",
"116 174 OFFCURVE",
"116 146 CURVE SMOOTH",
"116 93 OFFCURVE",
"198 65 OFFCURVE",
"247 30 CURVE SMOOTH",
"286 2 OFFCURVE",
"321 -22 OFFCURVE",
"357 -20 CURVE SMOOTH",
"375 -19 OFFCURVE",
"393 -12 OFFCURVE",
"413 4 CURVE SMOOTH",
"509 86 OFFCURVE",
"628 355 OFFCURVE",
"683 496 CURVE",
"698 489 LINE",
"684 399 OFFCURVE",
"674 321 OFFCURVE",
"664 220 CURVE SMOOTH",
"655 131 OFFCURVE",
"689 106 OFFCURVE",
"714 79 CURVE SMOOTH {name = hr04;}",
"769 20 OFFCURVE",
"847 -22 OFFCURVE",
"909 -21 CURVE SMOOTH"
);
},
{
closed = 1;
nodes = (
"420 352 LINE",
"446 473 OFFCURVE",
"462 590 OFFCURVE",
"462 712 CURVE SMOOTH",
"462 819 LINE",
"526 804 OFFCURVE",
"592 793 OFFCURVE",
"672 773 CURVE",
"672 689 OFFCURVE",
"673 733 OFFCURVE",
"670 693 CURVE",
"637 623 OFFCURVE",
"525 411 OFFCURVE",
"450 338 CURVE"
);
}
);
width = 1194;
}
);
unicode = 0105;
},
{
color = 4;
glyphname = ae;
lastChange = "2022-05-20 01:05:05 +0000";
layers = (
{
layerId = "ED69ACE7-BE83-49AD-8DAF-057B7A1FF3CB";
paths = (
{
closed = 1;
nodes = (
"466 -20 OFFCURVE",
"616 324 OFFCURVE",
"683 496 CURVE",
"698 492 LINE",
"709 414 OFFCURVE",
"700 311 OFFCURVE",
"694 227 CURVE SMOOTH",
"691 191 OFFCURVE",
"705 164 OFFCURVE",
"801 82 CURVE SMOOTH",
"870 23 OFFCURVE",
"911 -20 OFFCURVE",
"956 -20 CURVE SMOOTH",
"1134 -20 OFFCURVE",
"1387 192 OFFCURVE",
"1467 299 CURVE",
"1382 438 LINE",
"1253 376 OFFCURVE",
"1124 297 OFFCURVE",
"1056 284 CURVE",
"1027 284 LINE",
"1205 444 OFFCURVE",
"1456 741 OFFCURVE",
"1472 770 CURVE SMOOTH {name = hr00;}",
"1486 798 OFFCURVE",
"1493 843 OFFCURVE",
"1493 889 CURVE SMOOTH",
"1493 1016 OFFCURVE",
"1469 1031 OFFCURVE",
"1451 1038 CURVE SMOOTH",
"1388 1061 OFFCURVE",
"1342 1075 OFFCURVE",
"1276 1110 CURVE SMOOTH",
"1200 1151 OFFCURVE",
"1115 1224 OFFCURVE",
"1061 1224 CURVE SMOOTH",
"988 1224 OFFCURVE",
"865 1164 OFFCURVE",
"804 1129 CURVE SMOOTH",
"695 1066 OFFCURVE",
"688 967 OFFCURVE",
"671 907 CURVE",
"619 993 OFFCURVE",
"521 1143 OFFCURVE",
"436 1203 CURVE",
"397 1198 OFFCURVE",
"194 1161 OFFCURVE",
"71 1004 CURVE SMOOTH",
"51 979 OFFCURVE",
"45 965 OFFCURVE",
"45 949 CURVE SMOOTH",
"45 936 OFFCURVE",
"48 921 OFFCURVE",
"56 894 CURVE SMOOTH",
"102 737 OFFCURVE",
"122 477 OFFCURVE",
"122 319 CURVE SMOOTH",
"122 265 OFFCURVE",
"116 174 OFFCURVE",
"116 146 CURVE SMOOTH",
"116 93 OFFCURVE",
"198 65 OFFCURVE",
"247 30 CURVE SMOOTH",
"287 1 OFFCURVE",
"320 -20 OFFCURVE",
"357 -20 CURVE SMOOTH"
);
},
{
closed = 1;
nodes = (
"420 352 LINE",
"446 473 OFFCURVE",
"462 590 OFFCURVE",
"462 712 CURVE SMOOTH",
"462 819 LINE",
"531 812 OFFCURVE",
"592 793 OFFCURVE",
"672 773 CURVE",
"672 720 LINE SMOOTH",
"672 711 OFFCURVE",
"672 717 OFFCURVE",
"670 693 CURVE",
"637 623 OFFCURVE",
"525 411 OFFCURVE",
"450 338 CURVE"
);
},
{
closed = 1;
nodes = (
"1009 418 OFFCURVE",
"1010 419 OFFCURVE",
"1010 420 CURVE SMOOTH",
"1023 521 OFFCURVE",
"1033 795 OFFCURVE",
"1033 851 CURVE",
"1124 822 OFFCURVE",
"1192 802 OFFCURVE",
"1227 794 CURVE",
"1169 658 OFFCURVE",
"1055 485 OFFCURVE",
"1009 417 CURVE"
);
}
);
width = 1533;
}
);
unicode = 00E6;
},
{
color = 4;
glyphname = b;
lastChange = "2022-05-20 01:05:09 +0000";
layers = (
{
anchors = (
{
name = bottom;
position = "{570, 0}";
},
{
name = top;
position = "{864, 1182}";
}
);
layerId = "ED69ACE7-BE83-49AD-8DAF-057B7A1FF3CB";
paths = (
{
closed = 1;
nodes = (
"756 -19 OFFCURVE",
"870 -9 OFFCURVE",
"915 23 CURVE",
"999 258 OFFCURVE",
"1097 726 OFFCURVE",
"1104 1038 CURVE",
"984 1140 OFFCURVE",
"822 1183 OFFCURVE",
"746 1182 CURVE SMOOTH",
"688 1181 OFFCURVE",
"657 1171 OFFCURVE",
"636 1165 CURVE",
"414 517 LINE",
"399 523 LINE",
"183 370 LINE",
"183 369 OFFCURVE",
"182 369 OFFCURVE",
"182 368 CURVE",
"184 368 LINE",
"161 277 OFFCURVE",
"150 236 OFFCURVE",
"133 163 CURVE SMOOTH {name = hr00;}",
"119 105 OFFCURVE",
"131 96 OFFCURVE",
"167 77 CURVE SMOOTH",
"301 5 OFFCURVE",
"536 -22 OFFCURVE",
"676 -20 CURVE SMOOTH"
);
},
{
closed = 1;
nodes = (
"625 218 OFFCURVE",
"511 253 OFFCURVE",
"457 300 CURVE",
"489 376 OFFCURVE",
"627 667 OFFCURVE",
"685 785 CURVE",
"712 777 LINE",
"710 651 OFFCURVE",
"687 366 OFFCURVE",
"671 215 CURVE"
);
},
{
closed = 1;
nodes = (
"466 360 LINE",
"412 516 LINE",
"404 518 LINE",
"448 875 OFFCURVE",
"505 1229 OFFCURVE",
"523 1566 CURVE",
"481 1600 OFFCURVE",
"428 1613 OFFCURVE",
"371 1613 CURVE SMOOTH",
"250 1613 OFFCURVE",
"115 1548 OFFCURVE",
"48 1466 CURVE",
"38 1427 OFFCURVE",
"128 490 OFFCURVE",
"183 370 CURVE",
"183 369 OFFCURVE",
"182 369 OFFCURVE",
"182 368 CURVE",
"468 352 LINE"
);
}
);
width = 1140;
}
);
unicode = 0062;
},
{
color = 4;
glyphname = c;
lastChange = "2022-05-20 01:05:30 +0000";
layers = (
{
anchors = (
{
name = bottom;
position = "{451, 0}";
},
{
name = top;
position = "{451, 1182}";
}
);
layerId = "ED69ACE7-BE83-49AD-8DAF-057B7A1FF3CB";
paths = (
{
closed = 1;
nodes = (
"583 -20 OFFCURVE",
"827 204 OFFCURVE",
"874 290 CURVE",
"773 443 LINE",
"661 383 OFFCURVE",
"503 304 OFFCURVE",
"455 284 CURVE",
"436 300 LINE",
"473 475 OFFCURVE",
"478 745 OFFCURVE",
"462 889 CURVE",
"524 805 OFFCURVE",
"594 693 OFFCURVE",
"696 633 CURVE",
"747 648 OFFCURVE",
"912 828 OFFCURVE",
"877 1059 CURVE",
"691 1107 LINE",
"641 1130 OFFCURVE",
"521 1204 OFFCURVE",
"461 1204 CURVE SMOOTH",
"398 1204 OFFCURVE",
"276 1143 OFFCURVE",
"224 1112 CURVE SMOOTH",
"172 1081 OFFCURVE",
"45 987 OFFCURVE",
"45 930 CURVE SMOOTH",
"45 917 OFFCURVE",
"52 897 OFFCURVE",
"61 869 CURVE SMOOTH",
"100 755 OFFCURVE",
"121 504 OFFCURVE",
"121 319 CURVE SMOOTH {name = hr00;}",
"121 215 OFFCURVE",
"83 199 OFFCURVE",
"167 127 CURVE SMOOTH",
"194 105 OFFCURVE",
"338 -20 OFFCURVE",
"426 -20 CURVE SMOOTH"
);
}
);
userData = {
com.typemytype.robofont.guides = (
{
angle = 0;
isGlobal = 0;
x = 0;
y = 962;
}
);
};
width = 902;
}
);
unicode = 0063;
},
{
glyphname = d;
lastChange = "2022-05-20 00:37:12 +0000";
layers = (
{
anchors = (
{
name = bottom;
position = "{600, 0}";
},
{
name = center;
position = "{600, 591}";
},
{
name = top;
position = "{304, 1182}";
},
{
name = topright;
position = "{1180, 1182}";
}
);
layerId = "ED69ACE7-BE83-49AD-8DAF-057B7A1FF3CB";
paths = (
{
closed = 1;
nodes = (
"392 -19 OFFCURVE",
"410 -11 OFFCURVE",
"429 5 CURVE SMOOTH",
"524 87 OFFCURVE",
"638 356 OFFCURVE",
"691 497 CURVE",
"696 495 LINE",
"690 403 OFFCURVE",
"685 322 OFFCURVE",
"677 221 CURVE SMOOTH",
"669 132 OFFCURVE",
"704 107 OFFCURVE",
"729 80 CURVE SMOOTH",
"785 21 OFFCURVE",
"864 -21 OFFCURVE",
"926 -20 CURVE SMOOTH",
"1042 -18 OFFCURVE",
"1139 119 OFFCURVE",
"1206 279 CURVE",
"1118 400 LINE",
"947 308 LINE {name = hr00;}",
"1034 599 OFFCURVE",
"1077 1463 OFFCURVE",
"1068 1524 CURVE",
"997 1590 OFFCURVE",
"894 1613 OFFCURVE",
"802 1613 CURVE SMOOTH",
"706 1613 OFFCURVE",
"622 1587 OFFCURVE",
"599 1559 CURVE",
"602 1519 OFFCURVE",
"660 1108 OFFCURVE",
"677 910 CURVE",
"672 908 LINE",
"610 1011 OFFCURVE",
"539 1130 OFFCURVE",
"431 1204 CURVE",
"392 1199 OFFCURVE",
"191 1162 OFFCURVE",
"70 1005 CURVE SMOOTH",
"51 980 OFFCURVE",
"45 966 OFFCURVE",
"45 950 CURVE SMOOTH",
"45 937 OFFCURVE",
"49 922 OFFCURVE",
"57 895 CURVE SMOOTH",
"133 634 OFFCURVE",
"126 372 OFFCURVE",
"130 147 CURVE SMOOTH",
"131 94 OFFCURVE",
"213 66 OFFCURVE",
"263 31 CURVE SMOOTH",
"302 3 OFFCURVE",
"338 -22 OFFCURVE",
"374 -20 CURVE SMOOTH"
);
},
{
closed = 1;
nodes = (
"430 353 LINE",
"454 474 OFFCURVE",
"468 591 OFFCURVE",
"466 713 CURVE SMOOTH",
"464 820 LINE",
"528 805 OFFCURVE",
"595 794 OFFCURVE",
"675 774 CURVE",
"676 690 OFFCURVE",
"677 734 OFFCURVE",
"674 694 CURVE",
"642 624 OFFCURVE",
"534 412 OFFCURVE",
"460 339 CURVE"
);
}
);
userData = {
com.typemytype.robofont.guides = (
{
angle = 0;
isGlobal = 0;
x = 0;
y = 1929;
},
{
angle = 90;
isGlobal = 0;
x = 380;
y = 0;
}
);
};
width = 1200;
}
);
unicode = 0064;
},
{
glyphname = eth;
lastChange = "2022-05-20 00:37:12 +0000";
layers = (
{
layerId = "ED69ACE7-BE83-49AD-8DAF-057B7A1FF3CB";
paths = (
{
closed = 1;
nodes = (
"627 -13 OFFCURVE",
"687 9 OFFCURVE",
"772 52 CURVE SMOOTH",
"829 81 OFFCURVE",
"911 130 OFFCURVE",
"936 160 CURVE",
"970 284 OFFCURVE",
"1013 560 OFFCURVE",
"1013 759 CURVE",
"996 824 LINE",
"908 929 OFFCURVE",
"653 998 OFFCURVE",
"486 1014 CURVE {name = hr00;}",
"384 1000 OFFCURVE",
"139 910 OFFCURVE",
"80 836 CURVE",
"67 752 OFFCURVE",
"62 654 OFFCURVE",
"62 580 CURVE SMOOTH",
"62 411 OFFCURVE",
"90 266 OFFCURVE",
"126 136 CURVE",
"218 63 OFFCURVE",
"429 -8 OFFCURVE",
"562 -20 CURVE"
);
},
{
closed = 1;
nodes = (
"521 249 OFFCURVE",
"469 275 OFFCURVE",
"428 302 CURVE",
"420 366 OFFCURVE",
"417 451 OFFCURVE",
"417 506 CURVE SMOOTH",
"417 555 OFFCURVE",
"420 604 OFFCURVE",
"426 678 CURVE",
"630 852 LINE",
"641 738 OFFCURVE",
"648 611 OFFCURVE",
"648 489 CURVE SMOOTH",
"648 412 OFFCURVE",
"645 336 OFFCURVE",
"639 268 CURVE",
"584 230 LINE"
);
},
{
closed = 1;
nodes = (
"621 1059 LINE",
"564 956 LINE",
"564 852 LINE",
"836 786 LINE"
);
},
{
closed = 1;
nodes = (
"1013 759 LINE",
"1013 777 OFFCURVE",
"1013 797 OFFCURVE",
"1013 819 CURVE SMOOTH",
"1013 897 OFFCURVE",
"1010 989 OFFCURVE",
"994 1058 CURVE",
"789 1273 OFFCURVE",
"492 1511 OFFCURVE",
"156 1613 CURVE",
"106 1591 OFFCURVE",
"39 1470 OFFCURVE",
"39 1419 CURVE",
"373 1215 LINE",
"538 1083 OFFCURVE",
"669 932 OFFCURVE",
"783 743 CURVE"
);
},
{
closed = 1;
nodes = (
"739 1538 LINE",
"702 1629 OFFCURVE",
"578 1664 OFFCURVE",
"519 1671 CURVE",
"105 1168 LINE",
"130 1097 OFFCURVE",
"211 1070 OFFCURVE",
"278 1059 CURVE"
);
}
);
width = 1073;
}
);
unicode = 00F0;
},
{
glyphname = dcaron;
lastChange = "2022-05-20 00:37:12 +0000";
layers = (
{
components = (
{
name = quoteright;
transform = "{1, 0, 0, 1, 1100, 28}";
}
);
layerId = "ED69ACE7-BE83-49AD-8DAF-057B7A1FF3CB";
paths = (
{
closed = 1;
nodes = (
"392 -19 OFFCURVE",
"410 -11 OFFCURVE",
"429 5 CURVE SMOOTH",
"524 87 OFFCURVE",
"638 356 OFFCURVE",
"691 497 CURVE",
"696 495 LINE",
"690 403 OFFCURVE",
"685 322 OFFCURVE",
"677 221 CURVE SMOOTH",
"669 132 OFFCURVE",
"704 107 OFFCURVE",
"729 80 CURVE SMOOTH",
"785 21 OFFCURVE",
"864 -21 OFFCURVE",
"926 -20 CURVE SMOOTH",
"1042 -18 OFFCURVE",
"1195 150 OFFCURVE",
"1262 310 CURVE",
"1174 431 LINE",
"947 308 LINE {name = hr00;}",
"1034 599 OFFCURVE",
"1077 1463 OFFCURVE",
"1068 1524 CURVE",
"997 1590 OFFCURVE",
"894 1613 OFFCURVE",
"802 1613 CURVE SMOOTH",
"706 1613 OFFCURVE",
"622 1587 OFFCURVE",
"599 1559 CURVE",
"602 1519 OFFCURVE",
"660 1108 OFFCURVE",
"677 910 CURVE",
"672 908 LINE",
"610 1011 OFFCURVE",
"539 1130 OFFCURVE",
"431 1204 CURVE",
"392 1199 OFFCURVE",
"191 1162 OFFCURVE",
"70 1005 CURVE SMOOTH",
"51 980 OFFCURVE",
"45 966 OFFCURVE",
"45 950 CURVE SMOOTH",
"45 937 OFFCURVE",
"49 922 OFFCURVE",
"57 895 CURVE SMOOTH",
"133 634 OFFCURVE",
"126 372 OFFCURVE",
"130 147 CURVE SMOOTH",
"131 94 OFFCURVE",
"213 66 OFFCURVE",
"263 31 CURVE SMOOTH",
"302 3 OFFCURVE",
"338 -22 OFFCURVE",
"374 -20 CURVE SMOOTH"
);
},
{
closed = 1;
nodes = (
"430 353 LINE",
"454 474 OFFCURVE",
"468 591 OFFCURVE",
"466 713 CURVE SMOOTH",
"464 820 LINE",
"528 805 OFFCURVE",
"595 794 OFFCURVE",
"675 774 CURVE",
"676 690 OFFCURVE",
"677 734 OFFCURVE",
"674 694 CURVE",
"642 624 OFFCURVE",
"534 412 OFFCURVE",
"460 339 CURVE"
);
}
);
width = 1444;
}
);
unicode = 010F;
},
{
glyphname = dcroat;
lastChange = "2022-05-20 00:37:12 +0000";
layers = (
{
layerId = "ED69ACE7-BE83-49AD-8DAF-057B7A1FF3CB";
paths = (
{
closed = 1;
nodes = (
"392 -19 OFFCURVE",
"410 -11 OFFCURVE",
"429 5 CURVE SMOOTH",
"524 87 OFFCURVE",
"638 356 OFFCURVE",
"691 497 CURVE",
"696 495 LINE",
"690 403 OFFCURVE",
"685 322 OFFCURVE",
"677 221 CURVE SMOOTH",
"669 132 OFFCURVE",
"704 107 OFFCURVE",
"729 80 CURVE SMOOTH",
"785 21 OFFCURVE",
"864 -21 OFFCURVE",
"926 -20 CURVE SMOOTH",
"1042 -18 OFFCURVE",
"1139 119 OFFCURVE",
"1206 279 CURVE",
"1118 400 LINE",
"947 308 LINE",
"1034 599 OFFCURVE",
"1057 1463 OFFCURVE",
"1048 1524 CURVE",
"977 1590 OFFCURVE",
"894 1613 OFFCURVE",
"802 1613 CURVE SMOOTH",
"706 1613 OFFCURVE",
"629 1587 OFFCURVE",
"606 1559 CURVE",
"609 1519 OFFCURVE",
"676 1024 OFFCURVE",
"693 826 CURVE",
"672 824 LINE",
"610 927 OFFCURVE",
"539 1046 OFFCURVE",
"431 1120 CURVE",
"392 1115 OFFCURVE",
"191 1078 OFFCURVE",
"70 921 CURVE SMOOTH",
"51 896 OFFCURVE",
"45 882 OFFCURVE",
"45 866 CURVE SMOOTH",
"45 853 OFFCURVE",
"49 838 OFFCURVE",
"57 811 CURVE SMOOTH",
"133 550 OFFCURVE",
"126 372 OFFCURVE",
"130 147 CURVE SMOOTH",
"131 94 OFFCURVE",
"213 66 OFFCURVE",
"263 31 CURVE SMOOTH",
"302 3 OFFCURVE",
"338 -22 OFFCURVE",
"374 -20 CURVE SMOOTH"
);
},
{
closed = 1;
nodes = (
"430 353 LINE",
"454 474 OFFCURVE",
"468 591 OFFCURVE",
"466 713 CURVE SMOOTH",
"464 736 LINE",
"528 721 OFFCURVE",
"595 710 OFFCURVE",
"675 690 CURVE",
"674 684 LINE",
"642 614 OFFCURVE",
"534 412 OFFCURVE",
"460 339 CURVE"
);
},
{
closed = 1;
nodes = (
"1198 1208 OFFCURVE",
"1210 1334 OFFCURVE",
"1169 1411 CURVE",
"793 1373 LINE",
"440 1343 LINE",
"426 1284 OFFCURVE",
"430 1213 OFFCURVE",
"454 1148 CURVE {name = hr00;}",
"768 1136 OFFCURVE",
"1083 1138 OFFCURVE",
"1153 1144 CURVE"
);
}
);
width = 1211;
}
);
unicode = 0111;
},
{
color = 4;
glyphname = e;
lastChange = "2022-05-20 01:06:05 +0000";
layers = (
{
anchors = (
{
name = bottom;
position = "{475, 0}";
},
{
name = ogonek;
position = "{854, 10}";
},
{
name = top;
position = "{475, 1182}";
}
);
layerId = "ED69ACE7-BE83-49AD-8DAF-057B7A1FF3CB";
paths = (
{
closed = 1;
nodes = (
"550 -20 OFFCURVE",
"803 192 OFFCURVE",
"883 299 CURVE",
"798 438 LINE",
"669 376 OFFCURVE",
"540 297 OFFCURVE",
"472 284 CURVE",
"443 284 LINE",
"621 444 OFFCURVE",
"872 721 OFFCURVE",
"888 750 CURVE SMOOTH {name = hr00;}",
"911 794 OFFCURVE",
"913 881 OFFCURVE",
"903 946 CURVE SMOOTH",
"893 1007 OFFCURVE",
"887 1010 OFFCURVE",
"867 1018 CURVE SMOOTH",
"768 1054 OFFCURVE",
"714 1068 OFFCURVE",
"555 1174 CURVE SMOOTH",
"520 1197 OFFCURVE",
"496 1203 OFFCURVE",
"477 1204 CURVE",
"404 1204 OFFCURVE",
"280 1146 OFFCURVE",
"220 1109 CURVE SMOOTH",
"169 1077 OFFCURVE",
"45 982 OFFCURVE",
"45 922 CURVE SMOOTH",
"45 910 OFFCURVE",
"49 895 OFFCURVE",
"57 868 CURVE SMOOTH",
"83 782 OFFCURVE",
"117 536 OFFCURVE",
"117 338 CURVE SMOOTH",
"117 234 OFFCURVE",
"82 201 OFFCURVE",
"164 127 CURVE SMOOTH",
"175 118 OFFCURVE",
"199 100 OFFCURVE",
"227 75 CURVE SMOOTH",
"240 64 OFFCURVE",
"253 51 OFFCURVE",
"266 38 CURVE SMOOTH",
"307 -5 OFFCURVE",
"339 -20 OFFCURVE",
"372 -20 CURVE SMOOTH"
);
},
{
closed = 1;
nodes = (
"425 418 OFFCURVE",
"426 419 OFFCURVE",
"426 420 CURVE SMOOTH",
"439 521 OFFCURVE",
"449 775 OFFCURVE",
"449 831 CURVE",
"540 802 OFFCURVE",
"608 782 OFFCURVE",
"643 774 CURVE",
"585 638 OFFCURVE",
"471 485 OFFCURVE",
"425 417 CURVE"
);
}
);
userData = {
com.typemytype.robofont.guides = (
{
angle = 90;
isGlobal = 0;
x = 431;
y = 0;
}
);
};
width = 949;
}
);
unicode = 0065;
},
{
glyphname = eogonek;
lastChange = "2022-05-20 00:37:12 +0000";
layers = (
{
components = (
{
name = e;
}
);
layerId = "ED69ACE7-BE83-49AD-8DAF-057B7A1FF3CB";
paths = (
{
closed = 1;
nodes = (
"721 -438 OFFCURVE",
"800 -374 OFFCURVE",
"867 -243 CURVE",
"820 -116 LINE",
"624 -183 LINE",
"610 -170 LINE {name = hr00;}",
"691 -14 OFFCURVE",
"792 143 OFFCURVE",
"883 299 CURVE",
"792 209 LINE",
"758 187 OFFCURVE",
"579 179 OFFCURVE",
"510 116 CURVE",
"616 55 LINE",
"516 -27 OFFCURVE",
"358 -143 OFFCURVE",
"358 -235 CURVE SMOOTH",
"358 -316 OFFCURVE",
"508 -438 OFFCURVE",
"605 -438 CURVE SMOOTH"
);
}
);
userData = {
com.typemytype.robofont.guides = (
{
angle = 90;
isGlobal = 0;
x = 884;
y = 0;
}
);
};
width = 949;
}
);
unicode = 0119;
},
{
color = 4;
glyphname = schwa;
lastChange = "2022-05-20 01:06:15 +0000";
layers = (
{
layerId = "ED69ACE7-BE83-49AD-8DAF-057B7A1FF3CB";
paths = (
{
closed = 1;
nodes = (
"399 1202 OFFCURVE",
"146 990 OFFCURVE",
"66 883 CURVE",
"151 744 LINE",
"280 806 OFFCURVE",
"409 885 OFFCURVE",
"477 898 CURVE",
"506 898 LINE",
"328 738 OFFCURVE",
"77 461 OFFCURVE",
"61 432 CURVE SMOOTH {name = hr00;}",
"38 388 OFFCURVE",
"36 301 OFFCURVE",
"46 236 CURVE SMOOTH",
"56 175 OFFCURVE",
"62 172 OFFCURVE",
"82 164 CURVE SMOOTH",
"181 128 OFFCURVE",
"235 114 OFFCURVE",
"394 8 CURVE SMOOTH",
"429 -15 OFFCURVE",
"453 -21 OFFCURVE",
"472 -22 CURVE",
"545 -22 OFFCURVE",
"669 36 OFFCURVE",
"729 73 CURVE SMOOTH",
"780 105 OFFCURVE",
"904 200 OFFCURVE",
"904 260 CURVE SMOOTH",
"904 272 OFFCURVE",
"900 287 OFFCURVE",
"892 314 CURVE SMOOTH",
"866 400 OFFCURVE",
"832 646 OFFCURVE",
"832 844 CURVE SMOOTH",
"832 948 OFFCURVE",
"867 981 OFFCURVE",
"785 1055 CURVE SMOOTH",
"774 1064 OFFCURVE",
"750 1082 OFFCURVE",
"722 1107 CURVE SMOOTH",
"709 1118 OFFCURVE",
"696 1131 OFFCURVE",
"683 1144 CURVE SMOOTH",
"642 1187 OFFCURVE",
"610 1202 OFFCURVE",
"577 1202 CURVE SMOOTH"
);
},
{
closed = 1;
nodes = (
"524 764 OFFCURVE",
"523 763 OFFCURVE",
"523 762 CURVE SMOOTH",
"510 661 OFFCURVE",
"500 407 OFFCURVE",
"500 351 CURVE",
"409 380 OFFCURVE",
"341 400 OFFCURVE",
"306 408 CURVE",
"364 544 OFFCURVE",
"478 697 OFFCURVE",
"524 765 CURVE"
);
}
);
width = 949;
}
);
unicode = 0259;
},
{
color = 4;
glyphname = f;
lastChange = "2022-05-20 01:06:17 +0000";
layers = (
{
anchors = (
{
name = top;
position = "{310, 0}";
}
);
layerId = "ED69ACE7-BE83-49AD-8DAF-057B7A1FF3CB";
paths = (
{
closed = 1;
nodes = (
"296 -431 OFFCURVE",
"450 -328 OFFCURVE",
"469 -214 CURVE",
"479 29 OFFCURVE",
"462 431 OFFCURVE",
"443 792 CURVE",
"488 768 OFFCURVE",
"576 728 OFFCURVE",
"659 731 CURVE",
"691 778 OFFCURVE",
"749 1000 OFFCURVE",
"685 1098 CURVE",
"425 1021 LINE",
"405 1366 LINE",
"447 1308 OFFCURVE",
"486 1241 OFFCURVE",
"660 1229 CURVE",
"730 1294 OFFCURVE",
"789 1494 OFFCURVE",
"752 1568 CURVE",
"645 1557 OFFCURVE",
"540 1576 OFFCURVE",
"377 1613 CURVE",
"124 1510 OFFCURVE",
"36 1300 OFFCURVE",
"19 1262 CURVE",
"20 1078 OFFCURVE",
"158 305 OFFCURVE",
"201 -143 CURVE",
"-2 -112 LINE {name = hr00;}",
"-23 -172 OFFCURVE",
"-38 -212 OFFCURVE",
"-36 -288 CURVE",
"-3 -334 OFFCURVE",
"62 -416 OFFCURVE",
"181 -438 CURVE"
);
}
);
userData = {
com.typemytype.robofont.guides = (
{
angle = 90;
isGlobal = 0;
x = 310;
y = 0;
}
);
};
width = 744;
}
);
unicode = 0066;
},
{
color = 4;
glyphname = g;
lastChange = "2022-05-20 01:06:20 +0000";
layers = (
{
anchors = (
{
name = bottom;
position = "{572, -540}";
},
{
name = top;
position = "{572, 1182}";
}
);
layerId = "ED69ACE7-BE83-49AD-8DAF-057B7A1FF3CB";
paths = (
{
closed = 1;
nodes = (
"696 -438 OFFCURVE",
"710 -437 OFFCURVE",
"724 -435 CURVE",
"900 -375 OFFCURVE",
"1056 -228 OFFCURVE",
"1099 -62 CURVE",
"967 696 LINE",
"1082 897 OFFCURVE",
"1092 983 OFFCURVE",
"1108 1060 CURVE",
"1107 1060 LINE",
"1108 1061 LINE",
"1037 1145 OFFCURVE",
"953 1182 OFFCURVE",
"831 1182 CURVE SMOOTH {name = hr02;}",
"754 1182 OFFCURVE",
"684 1168 OFFCURVE",
"663 1154 CURVE",
"663 1122 OFFCURVE",
"669 1026 OFFCURVE",
"671 908 CURVE",
"611 1011 OFFCURVE",
"542 1130 OFFCURVE",
"436 1204 CURVE {name = hr03;}",
"397 1199 OFFCURVE",
"195 1162 OFFCURVE",
"71 1005 CURVE SMOOTH",
"52 980 OFFCURVE",
"45 966 OFFCURVE",
"45 950 CURVE SMOOTH",
"45 937 OFFCURVE",
"48 922 OFFCURVE",
"56 895 CURVE SMOOTH",
"102 738 OFFCURVE",
"122 478 OFFCURVE",
"122 320 CURVE SMOOTH",
"122 266 OFFCURVE",
"116 175 OFFCURVE",
"116 147 CURVE SMOOTH",
"116 94 OFFCURVE",
"198 66 OFFCURVE",
"247 31 CURVE SMOOTH",
"286 3 OFFCURVE",
"321 -21 OFFCURVE",
"357 -19 CURVE SMOOTH",
"375 -18 OFFCURVE",
"393 -11 OFFCURVE",
"413 5 CURVE",
"508 87 OFFCURVE",
"620 311 OFFCURVE",
"699 537 CURVE",
"712 528 LINE",
"710 340 OFFCURVE",
"735 41 OFFCURVE",
"726 -154 CURVE",
"633 -154 OFFCURVE",
"428 -128 OFFCURVE",
"330 -106 CURVE",
"312 -166 OFFCURVE",
"299 -202 OFFCURVE",
"305 -278 CURVE",
"349 -336 OFFCURVE",
"531 -437 OFFCURVE",
"681 -438 CURVE SMOOTH"
);
},
{
closed = 1;
nodes = (
"420 353 LINE {name = hr01;}",
"446 474 OFFCURVE",
"462 591 OFFCURVE",
"462 713 CURVE SMOOTH",
"462 820 LINE",
"526 805 OFFCURVE",
"592 794 OFFCURVE",
"672 774 CURVE",
"672 690 OFFCURVE",
"673 734 OFFCURVE",
"670 694 CURVE",
"637 624 OFFCURVE",
"525 412 OFFCURVE",
"450 339 CURVE"
);
}
);
userData = {
com.typemytype.robofont.guides = (
{
angle = 0;
isGlobal = 0;
x = 0;
y = 937;
},
{
angle = 90;
isGlobal = 0;
x = 542;
y = 0;
}
);
};
width = 1143;
}
);
unicode = 0067;
},
{
color = 4;
glyphname = h;
lastChange = "2022-05-20 02:52:57 +0000";
layers = (
{
anchors = (
{
name = bottom;
position = "{599, 0}";
},
{
name = center;
position = "{599, 1010}";
},
{
name = top;
position = "{283, 1551}";
}
);
layerId = "ED69ACE7-BE83-49AD-8DAF-057B7A1FF3CB";
paths = (
{
closed = 1;
nodes = (
"443 -20 OFFCURVE",
"506 -8 OFFCURVE",
"550 24 CURVE",
"535 158 OFFCURVE",
"499 263 OFFCURVE",
"466 360 CURVE",
"542 506 OFFCURVE",
"603 638 OFFCURVE",
"669 781 CURVE",
"696 772 LINE",
"671 221 LINE SMOOTH {name = hr00;}",
"668 162 OFFCURVE",
"685 121 OFFCURVE",
"732 72 CURVE SMOOTH",
"781 20 OFFCURVE",
"859 -20 OFFCURVE",
"922 -20 CURVE SMOOTH",
"1037 -20 OFFCURVE",
"1154 151 OFFCURVE",
"1197 279 CURVE",
"1108 400 LINE",
"938 311 LINE",
"1029 533 OFFCURVE",
"1100 867 OFFCURVE",
"1100 1038 CURVE",
"965 1146 OFFCURVE",
"821 1182 OFFCURVE",
"747 1182 CURVE SMOOTH",
"690 1182 OFFCURVE",
"638 1170 OFFCURVE",
"617 1165 CURVE",
"529 953 OFFCURVE",
"483 733 OFFCURVE",
"415 514 CURVE",
"411 515 LINE",
"398 518 LINE",
"430 875 OFFCURVE",
"475 1229 OFFCURVE",
"481 1566 CURVE",
"435 1601 OFFCURVE",
"382 1614 OFFCURVE",
"323 1614 CURVE SMOOTH",
"203 1614 OFFCURVE",
"72 1545 OFFCURVE",
"11 1466 CURVE",
"11 1464 OFFCURVE",
"10 1462 OFFCURVE",
"10 1458 CURVE SMOOTH",
"10 1362 OFFCURVE",
"126 486 OFFCURVE",
"183 370 CURVE",
"183 369 OFFCURVE",
"182 369 OFFCURVE",
"182 368 CURVE SMOOTH",
"155 288 OFFCURVE",
"139 227 OFFCURVE",
"112 66 CURVE",
"163 9 OFFCURVE",
"279 -20 OFFCURVE",
"378 -20 CURVE SMOOTH"
);
}
);
userData = {
com.typemytype.robofont.guides = (
{
angle = 90;
isGlobal = 0;
x = 771;
y = 0;
}
);
};
width = 1198;
}
);
unicode = 0068;
},
{
glyphname = hbar;
lastChange = "2022-05-20 00:37:12 +0000";
layers = (
{
layerId = "ED69ACE7-BE83-49AD-8DAF-057B7A1FF3CB";
paths = (
{
closed = 1;
nodes = (
"433 -22 OFFCURVE",
"503 -10 OFFCURVE",
"550 24 CURVE",
"535 158 OFFCURVE",
"499 263 OFFCURVE",
"466 360 CURVE",
"546 495 OFFCURVE",
"617 584 OFFCURVE",
"663 640 CURVE",
"690 631 LINE",
"681 438 OFFCURVE",
"671 403 OFFCURVE",
"670 221 CURVE SMOOTH",
"670 132 OFFCURVE",
"699 107 OFFCURVE",
"724 80 CURVE SMOOTH",
"781 21 OFFCURVE",
"861 -21 OFFCURVE",
"923 -20 CURVE SMOOTH",
"1039 -18 OFFCURVE",
"1163 140 OFFCURVE",
"1198 279 CURVE",
"1107 400 LINE",
"938 311 LINE",
"1029 533 OFFCURVE",
"1074 741 OFFCURVE",
"1094 897 CURVE",
"960 1005 OFFCURVE",
"815 1042 OFFCURVE",
"741 1041 CURVE SMOOTH",
"684 1040 OFFCURVE",
"632 1030 OFFCURVE",
"611 1024 CURVE",
"533 850 OFFCURVE",
"483 733 OFFCURVE",
"415 514 CURVE",
"412 515 LINE",
"411 515 LINE",
"398 518 LINE",
"471 1566 LINE",
"426 1601 OFFCURVE",
"381 1615 OFFCURVE",
"323 1614 CURVE SMOOTH",
"203 1612 OFFCURVE",
"91 1547 OFFCURVE",
"30 1466 CURVE",
"21 1427 OFFCURVE",
"124 490 OFFCURVE",
"183 370 CURVE",
"183 369 OFFCURVE",
"182 369 OFFCURVE",
"182 368 CURVE SMOOTH",
"155 288 OFFCURVE",
"139 227 OFFCURVE",
"112 66 CURVE",
"160 12 OFFCURVE",
"268 -18 OFFCURVE",
"364 -20 CURVE SMOOTH"
);
},
{
closed = 1;
nodes = (
"240 1093 OFFCURVE",
"760 1104 OFFCURVE",
"830 1110 CURVE",
"875 1198 OFFCURVE",
"907 1338 OFFCURVE",
"859 1414 CURVE",
"181 1333 LINE",
"-88 1283 LINE",
"-107 1218 OFFCURVE",
"-98 1170 OFFCURVE",
"-74 1105 CURVE {name = hr00;}"
);
}
);
width = 1198;
}
);
unicode = 0127;
},
{
glyphname = hcircumflex;
lastChange = "2022-05-20 00:37:12 +0000";
layers = (
{
components = (
{
name = circumflex.cap;
transform = "{1, 0, 0, 1, -211, 0}";
}
);
layerId = "ED69ACE7-BE83-49AD-8DAF-057B7A1FF3CB";
paths = (
{
closed = 1;
nodes = (
"444 -20 OFFCURVE",
"507 -8 OFFCURVE",
"551 24 CURVE",
"536 158 OFFCURVE",
"500 263 OFFCURVE",
"467 360 CURVE",
"543 506 OFFCURVE",
"604 638 OFFCURVE",
"670 781 CURVE",
"697 772 LINE",
"671 206 LINE SMOOTH",
"667 128 OFFCURVE",
"702 104 OFFCURVE",
"725 80 CURVE SMOOTH",
"782 20 OFFCURVE",
"862 -20 OFFCURVE",
"924 -20 CURVE {name = hr00;}",
"1040 -18 OFFCURVE",
"1164 140 OFFCURVE",
"1199 279 CURVE",
"1108 400 LINE",
"939 311 LINE",
"1030 533 OFFCURVE",
"1101 867 OFFCURVE",
"1101 1038 CURVE",
"966 1146 OFFCURVE",
"822 1182 OFFCURVE",
"748 1182 CURVE SMOOTH",
"691 1182 OFFCURVE",
"639 1170 OFFCURVE",
"618 1165 CURVE",
"530 953 OFFCURVE",
"484 733 OFFCURVE",
"416 514 CURVE",
"412 515 LINE",
"399 518 LINE",
"431 875 OFFCURVE",
"476 1144 OFFCURVE",
"482 1481 CURVE",
"436 1516 OFFCURVE",
"383 1529 OFFCURVE",
"324 1529 CURVE SMOOTH",
"204 1529 OFFCURVE",
"73 1460 OFFCURVE",
"12 1381 CURVE",
"12 1379 OFFCURVE",
"11 1377 OFFCURVE",
"11 1373 CURVE SMOOTH",
"11 1277 OFFCURVE",
"127 486 OFFCURVE",
"184 370 CURVE",
"184 369 OFFCURVE",
"183 369 OFFCURVE",
"183 368 CURVE SMOOTH",
"156 288 OFFCURVE",
"140 227 OFFCURVE",
"113 66 CURVE",
"164 9 OFFCURVE",
"280 -20 OFFCURVE",
"379 -20 CURVE SMOOTH"
);
}
);
width = 1199;
}
);
unicode = 0125;
},
{
glyphname = i;
lastChange = "2022-05-20 00:37:12 +0000";
layers = (
{
layerId = "ED69ACE7-BE83-49AD-8DAF-057B7A1FF3CB";
paths = (
{
closed = 1;
nodes = (
"476 -20 OFFCURVE",
"578 158 OFFCURVE",
"620 256 CURVE",
"541 381 LINE",
"391 314 LINE",
"410 392 LINE SMOOTH",
"464 613 OFFCURVE",
"502 1056 OFFCURVE",
"511 1105 CURVE",
"464 1146 OFFCURVE",
"407 1163 OFFCURVE",
"346 1163 CURVE SMOOTH",
"221 1163 OFFCURVE",
"86 1091 OFFCURVE",
"26 1018 CURVE",
"157 497 LINE",
"64 235 OFFCURVE",
"63 249 OFFCURVE",
"63 212 CURVE SMOOTH",
"63 104 OFFCURVE",
"251 -20 OFFCURVE",
"345 -20 CURVE SMOOTH {name = hr00;}"
);
},
{
closed = 1;
nodes = (
"364 1219 OFFCURVE",
"530 1372 OFFCURVE",
"573 1464 CURVE",
"533 1633 OFFCURVE",
"364 1681 OFFCURVE",
"228 1681 CURVE",
"193 1580 OFFCURVE",
"153 1472 OFFCURVE",
"90 1330 CURVE",
"137 1273 OFFCURVE",
"241 1208 OFFCURVE",
"291 1207 CURVE"
);
}
);
width = 615;
}
);
unicode = 0069;
},
{
color = 4;
glyphname = idotless;
lastChange = "2022-05-20 01:11:38 +0000";
layers = (
{
anchors = (
{
name = bottom;
position = "{308, 0}";
},
{
name = ogonek;
position = "{554, 10}";
},
{
name = top;
position = "{308, 1182}";
}
);
layerId = "ED69ACE7-BE83-49AD-8DAF-057B7A1FF3CB";
paths = (
{
closed = 1;
nodes = (
"476 -20 OFFCURVE",
"578 158 OFFCURVE",
"620 256 CURVE",
"541 381 LINE",
"391 314 LINE",
"410 392 LINE SMOOTH",
"464 613 OFFCURVE",
"502 1056 OFFCURVE",
"511 1105 CURVE",
"464 1146 OFFCURVE",
"407 1163 OFFCURVE",
"346 1163 CURVE SMOOTH",
"221 1163 OFFCURVE",
"86 1091 OFFCURVE",
"26 1018 CURVE",
"157 497 LINE",
"64 235 OFFCURVE",
"63 249 OFFCURVE",
"63 212 CURVE SMOOTH",
"63 104 OFFCURVE",
"251 -20 OFFCURVE",
"345 -20 CURVE SMOOTH {name = hr00;}"
);
}
);
userData = {
com.typemytype.robofont.guides = (
{
angle = 90;
isGlobal = 0;
x = 268;
y = 0;
}
);
};
width = 615;
}
);
unicode = 0131;
},
{
glyphname = imacron;
layers = (
{
components = (
{
name = idotless;
transform = "{1, 0, 0, 1, 20, 0}";
}
);
layerId = "ED69ACE7-BE83-49AD-8DAF-057B7A1FF3CB";
paths = (
{
closed = 1;
nodes = (
"306 1325 OFFCURVE",
"492 1331 OFFCURVE",
"562 1337 CURVE",
"607 1425 OFFCURVE",
"621 1528 OFFCURVE",
"602 1608 CURVE",
"38 1594 LINE",
"0 1529 OFFCURVE",
"-18 1431 OFFCURVE",
"-8 1337 CURVE {name = hr00;}"
);
}
);
width = 655;
}
);
unicode = 012B;
},
{
glyphname = iogonek;
layers = (
{
components = (
{
name = i;
},
{
name = ogonek;
transform = "{1, 0, 0, 1, 74, 0}";
}
);
layerId = "ED69ACE7-BE83-49AD-8DAF-057B7A1FF3CB";
paths = (
{
closed = 1;
nodes = (
"541 114 LINE",
"464 195 LINE",
"349 -176 LINE {name = hr00;}"
);
}
);
width = 615;
}
);
unicode = 012F;
},
{
glyphname = j;
lastChange = "2022-05-20 00:37:12 +0000";
layers = (
{
layerId = "ED69ACE7-BE83-49AD-8DAF-057B7A1FF3CB";
paths = (
{
closed = 1;
nodes = (
"345 -438 OFFCURVE",
"479 -310 OFFCURVE",
"487 -254 CURVE",
"504 -57 OFFCURVE",
"427 281 OFFCURVE",
"406 373 CURVE",
"402 371 LINE",
"406 393 LINE",
"414 428 LINE SMOOTH",
"465 649 OFFCURVE",
"505 1056 OFFCURVE",
"511 1105 CURVE",
"465 1145 OFFCURVE",
"408 1163 OFFCURVE",
"349 1163 CURVE SMOOTH",
"223 1164 OFFCURVE",
"87 1092 OFFCURVE",
"26 1018 CURVE",
"153 565 LINE",
"120 -134 LINE",
"64 -126 OFFCURVE",
"0 -116 OFFCURVE",
"-36 -113 CURVE",
"-54 -173 OFFCURVE",
"-56 -205 OFFCURVE",
"-50 -281 CURVE",
"-15 -327 OFFCURVE",
"103 -416 OFFCURVE",
"223 -438 CURVE"
);
},
{
closed = 1;
nodes = (
"335 1210 OFFCURVE",
"501 1353 OFFCURVE",
"544 1445 CURVE",
"504 1614 OFFCURVE",
"335 1662 OFFCURVE",
"199 1662 CURVE {name = hr00;}",
"164 1561 OFFCURVE",
"124 1463 OFFCURVE",
"61 1321 CURVE",
"108 1264 OFFCURVE",
"212 1199 OFFCURVE",
"262 1198 CURVE"
);
}
);
width = 564;
}
);
unicode = 006A;
},
{
glyphname = jdotless;
lastChange = "2022-05-20 00:37:12 +0000";
layers = (
{
anchors = (
{
name = bottom;
position = "{282, -540}";
},
{
name = top;
position = "{282, 1182}";
}
);
layerId = "ED69ACE7-BE83-49AD-8DAF-057B7A1FF3CB";
paths = (
{
closed = 1;
nodes = (
"345 -438 OFFCURVE",
"479 -310 OFFCURVE",
"487 -254 CURVE",
"504 -57 OFFCURVE",
"427 281 OFFCURVE",
"406 373 CURVE",
"402 371 LINE",
"406 393 LINE {name = hr00;}",
"414 428 LINE SMOOTH",
"465 649 OFFCURVE",
"505 1056 OFFCURVE",
"511 1105 CURVE",
"465 1145 OFFCURVE",
"408 1163 OFFCURVE",
"349 1163 CURVE SMOOTH",
"223 1164 OFFCURVE",
"87 1092 OFFCURVE",
"26 1018 CURVE",
"153 565 LINE",
"120 -134 LINE",
"64 -126 OFFCURVE",
"12 -117 OFFCURVE",
"-25 -109 CURVE",
"-43 -169 OFFCURVE",
"-56 -205 OFFCURVE",
"-50 -281 CURVE",
"-15 -327 OFFCURVE",
"103 -416 OFFCURVE",
"223 -438 CURVE"
);
}
);
userData = {
com.typemytype.robofont.guides = (
{
angle = 90;
isGlobal = 0;
x = 271;
y = 0;
}
);
};
width = 564;
}
);
unicode = 0237;
},
{
color = 4;
glyphname = k;
lastChange = "2022-05-20 01:11:52 +0000";
layers = (
{
anchors = (
{
name = bottom;
position = "{556, 0}";
},
{
name = top;
position = "{266, 1529}";
}
);
layerId = "ED69ACE7-BE83-49AD-8DAF-057B7A1FF3CB";
paths = (
{
closed = 1;
nodes = (
"401 49 OFFCURVE",
"490 148 OFFCURVE",
"585 250 CURVE",
"617 138 OFFCURVE",
"672 26 OFFCURVE",
"766 -3 CURVE SMOOTH",
"801 -14 OFFCURVE",
"835 -20 OFFCURVE",
"867 -20 CURVE SMOOTH",
"955 -21 OFFCURVE",
"1030 21 OFFCURVE",
"1074 117 CURVE SMOOTH",
"1107 188 OFFCURVE",
"1115 242 OFFCURVE",
"1115 347 CURVE",
"997 438 LINE",
"958 396 OFFCURVE",
"919 365 OFFCURVE",
"879 345 CURVE",
"847 377 OFFCURVE",
"798 431 OFFCURVE",
"778 460 CURVE",
"899 599 OFFCURVE",
"994 743 OFFCURVE",
"1031 807 CURVE",
"1032 942 OFFCURVE",
"951 1118 OFFCURVE",
"861 1204 CURVE",
"732 1199 OFFCURVE",
"559 1096 OFFCURVE",
"496 965 CURVE",
"534 876 OFFCURVE",
"586 810 OFFCURVE",
"647 760 CURVE",
"578 594 OFFCURVE",
"495 415 OFFCURVE",
"402 260 CURVE",
"391 265 LINE {name = hr00;}",
"438 603 OFFCURVE",
"495 1215 OFFCURVE",
"480 1566 CURVE",
"436 1601 OFFCURVE",
"381 1614 OFFCURVE",
"322 1613 CURVE SMOOTH",
"199 1612 OFFCURVE",
"63 1547 OFFCURVE",
"-2 1466 CURVE",
"49 1148 OFFCURVE",
"88 942 OFFCURVE",
"174 662 CURVE",
"128 508 OFFCURVE",
"94 299 OFFCURVE",
"88 105 CURVE",
"134 45 OFFCURVE",
"255 -14 OFFCURVE",
"298 -20 CURVE"
);
}
);
userData = {
com.typemytype.robofont.guides = (
{
angle = 90;
isGlobal = 0;
x = 527;
y = 0;
}
);
};
width = 1112;
}
);
unicode = 006B;
},
{
glyphname = kgreenlandic;
lastChange = "2022-05-20 00:37:12 +0000";
layers = (
{
layerId = "ED69ACE7-BE83-49AD-8DAF-057B7A1FF3CB";
paths = (
{
closed = 1;
nodes = (
"363 49 OFFCURVE",
"456 148 OFFCURVE",
"554 250 CURVE",
"583 138 OFFCURVE",
"634 26 OFFCURVE",
"727 -3 CURVE SMOOTH",
"761 -14 OFFCURVE",
"795 -20 OFFCURVE",
"827 -20 CURVE SMOOTH",
"915 -21 OFFCURVE",
"991 21 OFFCURVE",
"1039 117 CURVE SMOOTH",
"1074 188 OFFCURVE",
"1084 242 OFFCURVE",
"1088 347 CURVE",
"973 438 LINE",
"933 396 OFFCURVE",
"892 365 OFFCURVE",
"852 345 CURVE",
"821 377 OFFCURVE",
"774 431 OFFCURVE",
"755 460 CURVE",
"881 599 OFFCURVE",
"981 743 OFFCURVE",
"1020 807 CURVE",
"1026 942 OFFCURVE",
"951 1118 OFFCURVE",
"864 1204 CURVE",
"735 1199 OFFCURVE",
"558 1096 OFFCURVE",
"490 965 CURVE",
"524 864 OFFCURVE",
"579 817 OFFCURVE",
"634 760 CURVE",
"557 594 OFFCURVE",
"470 415 OFFCURVE",
"372 260 CURVE",
"361 265 LINE",
"401 496 OFFCURVE",
"451 854 OFFCURVE",
"477 1170 CURVE",
"447 1198 OFFCURVE",
"393 1212 OFFCURVE",
"331 1212 CURVE SMOOTH",
"223 1212 OFFCURVE",
"77 1169 OFFCURVE",
"27 1089 CURVE",
"17 1053 OFFCURVE",
"105 518 OFFCURVE",
"153 396 CURVE",
"120 324 OFFCURVE",
"68 211 OFFCURVE",
"52 105 CURVE {name = hr00;}",
"96 45 OFFCURVE",
"215 -14 OFFCURVE",
"258 -20 CURVE"
);
}
);
width = 1089;
}
);
unicode = 0138;
},
{
color = 4;
glyphname = l;
lastChange = "2022-05-20 01:11:56 +0000";
layers = (
{
anchors = (
{
name = bottom;
position = "{313, 0}";
},
{
name = center;
position = "{293, 799}";
},
{
name = top;
position = "{313, 1598}";
},
{
name = topright;
position = "{606, 1601}";
}
);
layerId = "ED69ACE7-BE83-49AD-8DAF-057B7A1FF3CB";
paths = (
{
closed = 1;
nodes = (
"479 -20 OFFCURVE",
"594 138 OFFCURVE",
"632 254 CURVE",
"552 381 LINE",
"409 314 LINE",
"468 919 OFFCURVE",
"494 1250 OFFCURVE",
"505 1566 CURVE",
"462 1601 OFFCURVE",
"407 1614 OFFCURVE",
"350 1613 CURVE SMOOTH",
"231 1612 OFFCURVE",
"101 1547 OFFCURVE",
"37 1466 CURVE",
"32 1437 OFFCURVE",
"89 921 OFFCURVE",
"149 606 CURVE",
"80 249 LINE SMOOTH",
"69 192 OFFCURVE",
"85 161 OFFCURVE",
"105 138 CURVE SMOOTH",
"164 68 OFFCURVE",
"261 -20 OFFCURVE",
"353 -20 CURVE SMOOTH {name = hr00;}"
);
}
);
userData = {
com.typemytype.robofont.guides = (
{
angle = 90;
isGlobal = 0;
x = 279;
y = 0;
}
);
};
width = 626;
}
);
unicode = 006C;
},
{
glyphname = lacute;
layers = (
{
components = (
{
name = acute.cap;
transform = "{1, 0, 0, 1, -17, 0}";
}
);
layerId = "ED69ACE7-BE83-49AD-8DAF-057B7A1FF3CB";
paths = (
{
closed = 1;
nodes = (
"479 -20 OFFCURVE",
"594 138 OFFCURVE",
"632 254 CURVE",
"552 381 LINE",
"409 314 LINE",
"468 919 OFFCURVE",
"494 1209 OFFCURVE",
"505 1525 CURVE",
"462 1560 OFFCURVE",
"407 1573 OFFCURVE",
"350 1572 CURVE SMOOTH",
"231 1571 OFFCURVE",
"101 1506 OFFCURVE",
"37 1425 CURVE",
"32 1396 OFFCURVE",
"89 921 OFFCURVE",
"149 606 CURVE",
"80 249 LINE SMOOTH",
"69 192 OFFCURVE",
"85 161 OFFCURVE",
"105 138 CURVE SMOOTH",
"164 68 OFFCURVE",
"261 -20 OFFCURVE",
"353 -20 CURVE SMOOTH {name = hr00;}"
);
}
);
width = 626;
}
);
unicode = 013A;
},
{
glyphname = lcaron;
layers = (
{
components = (
{
name = caronvertical;
transform = "{1, 0, 0, 1, 563, 10}";
}
);
layerId = "ED69ACE7-BE83-49AD-8DAF-057B7A1FF3CB";
paths = (
{
closed = 1;
nodes = (
"479 -20 OFFCURVE",
"674 198 OFFCURVE",
"712 314 CURVE",
"625 438 LINE",
"409 314 LINE",
"468 919 OFFCURVE",
"494 1250 OFFCURVE",
"505 1566 CURVE",
"461 1601 OFFCURVE",
"407 1613 OFFCURVE",
"350 1613 CURVE SMOOTH",
"231 1613 OFFCURVE",
"101 1546 OFFCURVE",
"37 1466 CURVE",
"37 1465 OFFCURVE",
"37 1463 OFFCURVE",
"37 1460 CURVE SMOOTH",
"37 1395 OFFCURVE",
"91 908 OFFCURVE",
"149 606 CURVE",
"80 249 LINE SMOOTH",
"77 236 OFFCURVE",
"76 225 OFFCURVE",
"76 214 CURVE SMOOTH",
"76 178 OFFCURVE",
"90 156 OFFCURVE",
"105 138 CURVE SMOOTH",
"164 68 OFFCURVE",
"261 -20 OFFCURVE",
"353 -20 CURVE SMOOTH {name = hr00;}"
);
}
);
userData = {
com.typemytype.robofont.guides = (
{
angle = 0;
isGlobal = 0;
x = 0;
y = 1465;
}
);
};
width = 877;
}
);
unicode = 013E;
},
{
glyphname = ldot;
layers = (
{
components = (
{
name = dotaccent;
transform = "{1, 0, 0, 1, 508, -671}";
}
);
layerId = "ED69ACE7-BE83-49AD-8DAF-057B7A1FF3CB";
paths = (
{
closed = 1;
nodes = (
"479 -20 OFFCURVE",
"674 198 OFFCURVE",
"712 314 CURVE",
"625 438 LINE",
"409 314 LINE",
"468 919 OFFCURVE",
"494 1250 OFFCURVE",
"505 1566 CURVE",
"461 1601 OFFCURVE",
"407 1613 OFFCURVE",
"350 1613 CURVE SMOOTH",
"231 1613 OFFCURVE",
"101 1546 OFFCURVE",
"37 1466 CURVE",
"37 1465 OFFCURVE",
"37 1463 OFFCURVE",
"37 1460 CURVE SMOOTH",
"37 1395 OFFCURVE",
"91 908 OFFCURVE",
"149 606 CURVE",
"80 249 LINE SMOOTH",
"77 236 OFFCURVE",
"76 225 OFFCURVE",
"76 214 CURVE SMOOTH",
"76 178 OFFCURVE",
"90 156 OFFCURVE",
"105 138 CURVE SMOOTH",
"164 68 OFFCURVE",
"261 -20 OFFCURVE",
"353 -20 CURVE SMOOTH {name = hr00;}"
);
}
);
width = 940;
}
);
unicode = 0140;
},
{
glyphname = lslash;
lastChange = "2022-05-20 00:37:12 +0000";
layers = (
{
layerId = "ED69ACE7-BE83-49AD-8DAF-057B7A1FF3CB";
paths = (
{
closed = 1;
nodes = (
"509 -20 OFFCURVE",
"672 175 OFFCURVE",
"710 291 CURVE",
"630 418 LINE",
"431 314 LINE",
"490 919 OFFCURVE",
"509 1250 OFFCURVE",
"520 1566 CURVE",
"477 1601 OFFCURVE",
"437 1614 OFFCURVE",
"380 1613 CURVE SMOOTH",
"261 1612 OFFCURVE",
"131 1547 OFFCURVE",
"67 1466 CURVE",
"62 1437 OFFCURVE",
"131 977 OFFCURVE",
"191 662 CURVE",
"110 249 LINE SMOOTH",
"99 192 OFFCURVE",
"115 161 OFFCURVE",
"135 138 CURVE SMOOTH",
"194 68 OFFCURVE",
"291 -20 OFFCURVE",
"383 -20 CURVE SMOOTH"
);
},
{
closed = 1;
nodes = (
"722 945 LINE",
"737 1037 OFFCURVE",
"710 1152 OFFCURVE",
"662 1181 CURVE",
"-14 723 LINE {name = hr00;}",
"-8 661 OFFCURVE",
"44 586 OFFCURVE",
"87 562 CURVE"
);
}
);
width = 741;
}
);
unicode = 0142;
},
{
color = 4;
glyphname = m;
lastChange = "2022-05-20 01:12:16 +0000";
layers = (
{
anchors = (
{
name = bottom;
position = "{852, 0}";
},
{
name = top;
position = "{852, 1182}";
}
);
layerId = "ED69ACE7-BE83-49AD-8DAF-057B7A1FF3CB";
paths = (
{
closed = 1;
nodes = (
"417 -20 OFFCURVE",
"483 -5 OFFCURVE",
"527 27 CURVE",
"512 161 OFFCURVE",
"476 263 OFFCURVE",
"443 360 CURVE",
"481 444 OFFCURVE",
"590 668 OFFCURVE",
"643 778 CURVE",
"667 774 LINE",
"698 366 LINE",
"682 286 OFFCURVE",
"654 248 OFFCURVE",
"637 65 CURVE",
"684 12 OFFCURVE",
"776 -20 OFFCURVE",
"867 -20 CURVE SMOOTH",
"932 -20 OFFCURVE",
"997 -4 OFFCURVE",
"1043 31 CURVE",
"1034 153 OFFCURVE",
"1028 235 OFFCURVE",
"984 363 CURVE",
"1018 445 OFFCURVE",
"1131 637 OFFCURVE",
"1200 769 CURVE",
"1224 764 LINE",
"1210 598 OFFCURVE",
"1197 417 OFFCURVE",
"1186 224 CURVE SMOOTH {name = hr01;}",
"1182 160 OFFCURVE",
"1201 121 OFFCURVE",
"1248 72 CURVE SMOOTH",
"1297 20 OFFCURVE",
"1375 -20 OFFCURVE",
"1438 -20 CURVE SMOOTH",
"1553 -20 OFFCURVE",
"1670 151 OFFCURVE",
"1713 279 CURVE",
"1624 400 LINE",
"1454 311 LINE",
"1573 622 OFFCURVE",
"1609 888 OFFCURVE",
"1616 1059 CURVE",
"1484 1167 OFFCURVE",
"1326 1184 OFFCURVE",
"1254 1183 CURVE SMOOTH {name = hr02;}",
"1197 1182 OFFCURVE",
"1172 1172 OFFCURVE",
"1151 1166 CURVE",
"961 543 LINE",
"932 549 LINE",
"970 761 OFFCURVE",
"1015 915 OFFCURVE",
"1001 1106 CURVE",
"915 1160 OFFCURVE",
"803 1183 OFFCURVE",
"729 1183 CURVE SMOOTH",
"672 1183 OFFCURVE",
"619 1188 OFFCURVE",
"573 1170 CURVE",
"408 514 LINE",
"382 517 LINE",
"455 1145 LINE {name = hr03;}",
"423 1173 OFFCURVE",
"371 1186 OFFCURVE",
"309 1186 CURVE SMOOTH",
"201 1186 OFFCURVE",
"57 1141 OFFCURVE",
"9 1061 CURVE",
"1 1025 OFFCURVE",
"99 503 OFFCURVE",
"159 368 CURVE",
"128 256 OFFCURVE",
"118 230 OFFCURVE",
"89 69 CURVE",
"139 13 OFFCURVE",
"247 -20 OFFCURVE",
"350 -20 CURVE SMOOTH"
);
}
);
userData = {
com.typemytype.robofont.guides = (
{
angle = 0;
isGlobal = 0;
x = 0;
y = 563;
},
{
angle = 0;
isGlobal = 0;
x = 0;
y = 366;
},
{
angle = 0;
isGlobal = 0;
x = 0;
y = 788;
},
{
angle = 90;
isGlobal = 0;
x = 867;
y = 0;
}
);
};
width = 1704;
}
);
unicode = 006D;
},
{
color = 4;
glyphname = n;
lastChange = "2022-05-20 01:12:16 +0000";
layers = (
{
anchors = (
{
name = bottom;
position = "{603, 0}";
},
{
name = top;
position = "{596, 1182}";
}
);
layerId = "ED69ACE7-BE83-49AD-8DAF-057B7A1FF3CB";
paths = (
{
closed = 1;
nodes = (
"437 -20 OFFCURVE",
"500 -8 OFFCURVE",
"545 24 CURVE",
"521 160 OFFCURVE",
"494 263 OFFCURVE",
"461 360 CURVE",
"536 506 OFFCURVE",
"597 638 OFFCURVE",
"662 781 CURVE",
"691 772 LINE {name = hr00;}",
"666 221 LINE SMOOTH",
"663 157 OFFCURVE",
"680 121 OFFCURVE",
"727 72 CURVE SMOOTH",
"776 20 OFFCURVE",
"854 -20 OFFCURVE",
"917 -20 CURVE SMOOTH",
"1032 -20 OFFCURVE",
"1149 151 OFFCURVE",
"1192 279 CURVE",
"1103 400 LINE",
"933 311 LINE",
"1024 533 OFFCURVE",
"1095 867 OFFCURVE",
"1095 1038 CURVE",
"1004 1144 OFFCURVE",
"873 1180 OFFCURVE",
"744 1180 CURVE SMOOTH",
"696 1180 OFFCURVE",
"649 1177 OFFCURVE",
"611 1165 CURVE",
"522 953 OFFCURVE",
"481 733 OFFCURVE",
"415 514 CURVE",
"399 517 LINE",
"472 1143 LINE",
"441 1171 OFFCURVE",
"389 1180 OFFCURVE",
"327 1180 CURVE SMOOTH",
"219 1180 OFFCURVE",
"74 1141 OFFCURVE",
"27 1061 CURVE",
"27 1059 OFFCURVE",
"26 1057 OFFCURVE",
"26 1054 CURVE SMOOTH",
"26 983 OFFCURVE",
"127 485 OFFCURVE",
"177 368 CURVE",
"151 288 OFFCURVE",
"135 227 OFFCURVE",
"107 66 CURVE",
"158 9 OFFCURVE",
"273 -20 OFFCURVE",
"358 -20 CURVE SMOOTH"
);
}
);
userData = {
com.typemytype.robofont.guides = (
{
angle = 0;
isGlobal = 0;
x = 0;
y = 719;
},
{
angle = 90;
isGlobal = 0;
x = 575;
y = 0;
}
);
};
width = 1192;
}
);
unicode = 006E;
},
{
glyphname = eng;
lastChange = "2022-05-20 00:37:12 +0000";
layers = (
{
layerId = "ED69ACE7-BE83-49AD-8DAF-057B7A1FF3CB";
paths = (
{
closed = 1;
nodes = (
"895 -438 OFFCURVE",
"1025 -310 OFFCURVE",
"1031 -254 CURVE",
"1040 -62 OFFCURVE",
"956 263 OFFCURVE",
"930 365 CURVE",
"1018 584 OFFCURVE",
"1090 881 OFFCURVE",
"1095 1038 CURVE",
"1007 1144 OFFCURVE",
"876 1180 OFFCURVE",
"747 1180 CURVE SMOOTH",
"699 1180 OFFCURVE",
"653 1177 OFFCURVE",
"615 1165 CURVE",
"519 953 OFFCURVE",
"470 733 OFFCURVE",
"396 514 CURVE",
"380 517 LINE",
"475 1143 LINE",
"445 1171 OFFCURVE",
"393 1180 OFFCURVE",
"331 1180 CURVE SMOOTH",
"223 1180 OFFCURVE",
"77 1141 OFFCURVE",
"27 1061 CURVE",
"17 1025 OFFCURVE",
"105 490 OFFCURVE",
"153 368 CURVE",
"124 288 OFFCURVE",
"106 227 OFFCURVE",
"73 66 CURVE",
"119 12 OFFCURVE",
"225 -18 OFFCURVE",
"321 -20 CURVE SMOOTH",
"390 -22 OFFCURVE",
"460 -10 OFFCURVE",
"509 24 CURVE",
"498 158 OFFCURVE",
"466 263 OFFCURVE",
"437 360 CURVE",
"517 506 OFFCURVE",
"583 638 OFFCURVE",
"653 781 CURVE",
"681 772 LINE {name = hr00;}",
"654 394 LINE",
"659 -134 LINE",
"603 -126 OFFCURVE",
"551 -117 OFFCURVE",
"514 -109 CURVE",
"498 -169 OFFCURVE",
"486 -205 OFFCURVE",
"495 -281 CURVE",
"531 -327 OFFCURVE",
"652 -416 OFFCURVE",
"773 -438 CURVE"
);
}
);
width = 1108;
}
);
unicode = 014B;
},
{
color = 4;
glyphname = o;
lastChange = "2022-05-20 04:01:33 +0000";
layers = (
{
anchors = (
{
name = bottom;
position = "{542, 0}";
},
{
name = center;
position = "{542, 591}";
},
{
name = ogonek;
position = "{978, 10}";
},
{
name = top;
position = "{532, 1182}";
},
{
name = topright;
position = "{1202, 1182}";
}
);
layerId = "ED69ACE7-BE83-49AD-8DAF-057B7A1FF3CB";
paths = (
{
closed = 1;
nodes = (
"637 -13 OFFCURVE",
"697 9 OFFCURVE",
"782 52 CURVE SMOOTH",
"839 81 OFFCURVE",
"921 130 OFFCURVE",
"946 160 CURVE",
"980 284 OFFCURVE",
"1023 560 OFFCURVE",
"1023 759 CURVE SMOOTH",
"1023 871 OFFCURVE",
"1020 927 OFFCURVE",
"1007 987 CURVE",
"919 1092 OFFCURVE",
"693 1188 OFFCURVE",
"526 1204 CURVE {name = hr00;}",
"424 1190 OFFCURVE",
"139 1080 OFFCURVE",
"80 1006 CURVE",
"38 730 OFFCURVE",
"78 441 OFFCURVE",
"126 136 CURVE",
"199 63 OFFCURVE",
"439 -8 OFFCURVE",
"572 -20 CURVE"
);
},
{
closed = 1;
nodes = (
"524 235 OFFCURVE",
"469 265 OFFCURVE",
"428 292 CURVE",
"418 393 OFFCURVE",
"414 494 OFFCURVE",
"414 593 CURVE SMOOTH",
"414 674 OFFCURVE",
"418 754 OFFCURVE",
"426 834 CURVE",
"486 863 LINE",
"640 800 LINE",
"652 685 OFFCURVE",
"657 581 OFFCURVE",
"657 480 CURVE SMOOTH",
"657 405 OFFCURVE",
"656 331 OFFCURVE",
"649 258 CURVE",
"594 220 LINE"
);
}
);
userData = {
com.typemytype.robofont.guides = (
{
angle = 90;
isGlobal = 0;
x = 534;
y = 0;
}
);
};
width = 1083;
}
);
unicode = 006F;
},
{
glyphname = oslash;
lastChange = "2022-05-20 00:37:12 +0000";
layers = (
{
components = (
{
name = o;
}
);
layerId = "ED69ACE7-BE83-49AD-8DAF-057B7A1FF3CB";
paths = (
{
closed = 1;
nodes = (
"977 1291 LINE",
"928 1389 OFFCURVE",
"882 1421 OFFCURVE",
"786 1448 CURVE",
"607 996 LINE",
"756 813 LINE {name = hr00;}"
);
},
{
closed = 1;
nodes = (
"492 149 LINE",
"319 337 LINE",
"142 -130 LINE",
"189 -208 OFFCURVE",
"244 -228 OFFCURVE",
"319 -232 CURVE"
);
}
);
width = 1083;
}
);
unicode = 00F8;
},
{
color = 4;
glyphname = oe;
lastChange = "2022-05-20 01:12:20 +0000";
layers = (
{
layerId = "ED69ACE7-BE83-49AD-8DAF-057B7A1FF3CB";
paths = (
{
closed = 1;
nodes = (
"1089 -22 OFFCURVE",
"1342 190 OFFCURVE",
"1422 297 CURVE",
"1337 436 LINE",
"1208 374 OFFCURVE",
"1079 295 OFFCURVE",
"1011 282 CURVE",
"982 282 LINE",
"1160 442 OFFCURVE",
"1411 739 OFFCURVE",
"1427 768 CURVE SMOOTH {name = hr00;}",
"1450 812 OFFCURVE",
"1452 899 OFFCURVE",
"1442 964 CURVE SMOOTH",
"1432 1025 OFFCURVE",
"1426 1028 OFFCURVE",
"1406 1036 CURVE SMOOTH",
"1307 1072 OFFCURVE",
"1253 1086 OFFCURVE",
"1094 1192 CURVE SMOOTH",
"1059 1215 OFFCURVE",
"1035 1221 OFFCURVE",
"1016 1222 CURVE",
"943 1222 OFFCURVE",
"819 1164 OFFCURVE",
"759 1127 CURVE SMOOTH",
"752 1122 LINE",
"672 1172 OFFCURVE",
"582 1204 OFFCURVE",
"526 1204 CURVE SMOOTH",
"463 1204 OFFCURVE",
"162 1100 OFFCURVE",
"94 1011 CURVE SMOOTH",
"60 967 OFFCURVE",
"61 846 OFFCURVE",
"61 778 CURVE SMOOTH",
"61 595 OFFCURVE",
"87 384 OFFCURVE",
"121 167 CURVE SMOOTH",
"137 62 OFFCURVE",
"439 -8 OFFCURVE",
"572 -20 CURVE",
"630 -14 OFFCURVE",
"703 28 OFFCURVE",
"765 73 CURVE",
"766 73 LINE",
"779 62 OFFCURVE",
"792 49 OFFCURVE",
"805 36 CURVE SMOOTH",
"846 -7 OFFCURVE",
"878 -22 OFFCURVE",
"911 -22 CURVE SMOOTH"
);
},
{
closed = 1;
nodes = (
"524 235 OFFCURVE",
"469 265 OFFCURVE",
"428 292 CURVE",
"418 393 OFFCURVE",
"414 494 OFFCURVE",
"414 593 CURVE SMOOTH",
"414 674 OFFCURVE",
"418 754 OFFCURVE",
"426 834 CURVE",
"486 863 LINE",
"640 800 LINE",
"652 685 OFFCURVE",
"657 581 OFFCURVE",
"657 480 CURVE SMOOTH",
"657 405 OFFCURVE",
"656 331 OFFCURVE",
"649 258 CURVE",
"594 220 LINE"
);
},
{
closed = 1;
nodes = (
"964 416 OFFCURVE",
"965 417 OFFCURVE",
"965 418 CURVE SMOOTH",
"978 519 OFFCURVE",
"988 793 OFFCURVE",
"988 849 CURVE",
"1079 820 OFFCURVE",
"1147 800 OFFCURVE",
"1182 792 CURVE",
"1124 656 OFFCURVE",
"1010 483 OFFCURVE",
"964 415 CURVE"
);
}
);
width = 1488;
}
);
unicode = 0153;
},
{
color = 4;
glyphname = p;
lastChange = "2022-05-20 01:12:16 +0000";
layers = (
{
anchors = (
{
name = top;
position = "{571, 0}";
}
);
layerId = "ED69ACE7-BE83-49AD-8DAF-057B7A1FF3CB";
paths = (
{
closed = 1;
nodes = (
"489 -438 OFFCURVE",
"611 -365 OFFCURVE",
"657 -295 CURVE",
"619 -132 LINE",
"427 -132 LINE",
"443 -61 OFFCURVE",
"454 3 OFFCURVE",
"461 59 CURVE {name = hr00;}",
"521 27 OFFCURVE",
"663 -20 OFFCURVE",
"806 -20 CURVE SMOOTH",
"840 -20 OFFCURVE",
"873 -14 OFFCURVE",
"904 -5 CURVE",
"1032 414 OFFCURVE",
"1082 726 OFFCURVE",
"1089 1038 CURVE",
"969 1141 OFFCURVE",
"808 1184 OFFCURVE",
"732 1184 CURVE SMOOTH",
"674 1184 OFFCURVE",
"645 1170 OFFCURVE",
"623 1165 CURVE",
"392 523 LINE",
"389 524 LINE",
"462 1143 LINE",
"431 1171 OFFCURVE",
"378 1184 OFFCURVE",
"316 1184 CURVE SMOOTH",
"208 1184 OFFCURVE",
"74 1141 OFFCURVE",
"26 1061 CURVE",
"26 1051 LINE SMOOTH",
"28 989 OFFCURVE",
"84 700 OFFCURVE",
"131 512 CURVE",
"157 -227 LINE",
"161 -317 OFFCURVE",
"195 -342 OFFCURVE",
"246 -377 CURVE SMOOTH",
"290 -408 OFFCURVE",
"349 -438 OFFCURVE",
"401 -438 CURVE SMOOTH"
);
},
{
closed = 1;
nodes = (
"621 232 OFFCURVE",
"507 273 OFFCURVE",
"452 320 CURVE",
"485 396 OFFCURVE",
"614 667 OFFCURVE",
"672 785 CURVE",
"699 777 LINE",
"697 651 OFFCURVE",
"684 380 OFFCURVE",
"668 229 CURVE"
);
}
);
userData = {
com.typemytype.robofont.guides = (
{
angle = 90;
isGlobal = 0;
x = 571;
y = 0;
}
);
};
width = 1125;
}
);
unicode = 0070;
},
{
color = 4;
glyphname = thorn;
lastChange = "2022-05-20 01:12:16 +0000";
layers = (
{
layerId = "ED69ACE7-BE83-49AD-8DAF-057B7A1FF3CB";
paths = (
{
closed = 1;
nodes = (
"437 -438 OFFCURVE",
"562 -365 OFFCURVE",
"610 -295 CURVE",
"578 -132 LINE",
"386 -132 LINE",
"404 -61 OFFCURVE",
"418 3 OFFCURVE",
"427 59 CURVE {name = hr00;}",
"485 27 OFFCURVE",
"626 -20 OFFCURVE",
"769 -20 CURVE SMOOTH",
"803 -20 OFFCURVE",
"836 -14 OFFCURVE",
"867 -5 CURVE",
"1010 414 OFFCURVE",
"1071 726 OFFCURVE",
"1089 1038 CURVE",
"972 1141 OFFCURVE",
"813 1184 OFFCURVE",
"737 1184 CURVE SMOOTH",
"679 1184 OFFCURVE",
"649 1170 OFFCURVE",
"627 1165 CURVE",
"375 525 LINE",
"419 879 OFFCURVE",
"475 1231 OFFCURVE",
"493 1566 CURVE",
"451 1600 OFFCURVE",
"398 1613 OFFCURVE",
"341 1613 CURVE SMOOTH",
"220 1613 OFFCURVE",
"85 1548 OFFCURVE",
"18 1466 CURVE",
"10 1435 OFFCURVE",
"65 830 OFFCURVE",
"116 527 CURVE",
"112 512 LINE",
"113 -227 LINE SMOOTH",
"113 -317 OFFCURVE",
"147 -342 OFFCURVE",
"196 -377 CURVE SMOOTH",
"239 -408 OFFCURVE",
"297 -438 OFFCURVE",
"349 -438 CURVE SMOOTH"
);
},
{
closed = 1;
nodes = (
"589 218 OFFCURVE",
"477 253 OFFCURVE",
"424 300 CURVE",
"459 376 OFFCURVE",
"607 667 OFFCURVE",
"669 785 CURVE",
"696 777 LINE",
"689 651 OFFCURVE",
"657 366 OFFCURVE",
"635 215 CURVE"
);
}
);
width = 1129;
}
);
unicode = 00FE;
},
{
color = 4;
glyphname = q;
lastChange = "2022-05-20 01:12:16 +0000";
layers = (
{
layerId = "ED69ACE7-BE83-49AD-8DAF-057B7A1FF3CB";
paths = (
{
closed = 1;
nodes = (
"988 -437 OFFCURVE",
"1027 -418 OFFCURVE",
"1068 -376 CURVE SMOOTH",
"1125 -319 OFFCURVE",
"1169 -227 OFFCURVE",
"1206 -127 CURVE",
"1118 -27 LINE",
"994 -97 LINE",
"938 313 LINE",
"1036 548 OFFCURVE",
"1116 997 OFFCURVE",
"1108 1061 CURVE {name = hr01;}",
"1037 1145 OFFCURVE",
"953 1182 OFFCURVE",
"831 1182 CURVE SMOOTH {name = hr02;}",
"754 1182 OFFCURVE",
"684 1168 OFFCURVE",
"663 1154 CURVE",
"663 1122 OFFCURVE",
"669 1026 OFFCURVE",
"671 908 CURVE",
"611 1011 OFFCURVE",
"542 1124 OFFCURVE",
"436 1198 CURVE {name = hr03;}",
"397 1193 OFFCURVE",
"195 1162 OFFCURVE",
"71 1005 CURVE SMOOTH",
"52 980 OFFCURVE",
"45 966 OFFCURVE",
"45 950 CURVE SMOOTH",
"45 937 OFFCURVE",
"48 922 OFFCURVE",
"56 895 CURVE SMOOTH",
"102 738 OFFCURVE",
"122 478 OFFCURVE",
"122 320 CURVE SMOOTH",
"122 266 OFFCURVE",
"116 175 OFFCURVE",
"116 147 CURVE SMOOTH",
"116 94 OFFCURVE",
"198 66 OFFCURVE",
"247 31 CURVE SMOOTH",
"286 3 OFFCURVE",
"321 -22 OFFCURVE",
"357 -20 CURVE SMOOTH",
"375 -19 OFFCURVE",
"393 -11 OFFCURVE",
"413 5 CURVE SMOOTH",
"509 87 OFFCURVE",
"628 356 OFFCURVE",
"683 497 CURVE",
"703 495 LINE",
"645 -208 LINE SMOOTH",
"639 -271 OFFCURVE",
"669 -317 OFFCURVE",
"729 -360 CURVE SMOOTH",
"796 -408 OFFCURVE",
"870 -441 OFFCURVE",
"950 -438 CURVE SMOOTH"
);
},
{
closed = 1;
nodes = (
"420 353 LINE",
"446 474 OFFCURVE",
"462 591 OFFCURVE",
"462 713 CURVE SMOOTH",
"462 820 LINE",
"526 805 OFFCURVE",
"592 794 OFFCURVE",
"672 774 CURVE",
"672 690 OFFCURVE",
"673 734 OFFCURVE",
"670 694 CURVE",
"637 624 OFFCURVE",
"525 412 OFFCURVE",
"450 339 CURVE"
);
}
);
width = 1134;
}
);
unicode = 0071;
},
{
color = 4;
glyphname = r;
lastChange = "2022-05-20 01:13:11 +0000";
layers = (
{
anchors = (
{
name = bottom;
position = "{514, 0}";
},
{
name = top;
position = "{514, 1182}";
}
);
layerId = "ED69ACE7-BE83-49AD-8DAF-057B7A1FF3CB";
paths = (
{
closed = 1;
nodes = (
"495 -20 OFFCURVE",
"613 36 OFFCURVE",
"694 164 CURVE",
"637 298 LINE",
"454 274 LINE",
"502 453 OFFCURVE",
"558 677 OFFCURVE",
"599 796 CURVE",
"648 788 LINE",
"650 703 OFFCURVE",
"649 551 OFFCURVE",
"648 490 CURVE",
"736 469 OFFCURVE",
"823 464 OFFCURVE",
"918 517 CURVE",
"951 648 OFFCURVE",
"998 899 OFFCURVE",
"970 1096 CURVE",
"915 1133 OFFCURVE",
"807 1181 OFFCURVE",
"671 1180 CURVE SMOOTH",
"632 1180 OFFCURVE",
"590 1176 OFFCURVE",
"547 1166 CURVE",
"478 1016 OFFCURVE",
"439 667 OFFCURVE",
"412 545 CURVE",
"401 547 LINE {name = hr00;}",
"408 1149 LINE",
"365 1170 OFFCURVE",
"314 1180 OFFCURVE",
"263 1180 CURVE SMOOTH",
"163 1180 OFFCURVE",
"61 1140 OFFCURVE",
"8 1063 CURVE",
"187 455 LINE",
"107 257 LINE SMOOTH",
"73 173 OFFCURVE",
"167 56 OFFCURVE",
"197 28 CURVE SMOOTH",
"240 -12 OFFCURVE",
"305 -20 OFFCURVE",
"369 -20 CURVE SMOOTH"
);
}
);
userData = {
com.typemytype.robofont.guides = (
{
angle = 0;
isGlobal = 0;
x = 0;
y = 1186;
},
{
angle = 90;
isGlobal = 0;
x = 372;
y = 0;
}
);
};
width = 1027;
}
);
unicode = 0072;
},
{
glyphname = s;
lastChange = "2022-05-20 01:13:21 +0000";
layers = (
{
anchors = (
{
name = bottom;
position = "{450, 0}";
},
{
name = top;
position = "{450, 1182}";
}
);
layerId = "ED69ACE7-BE83-49AD-8DAF-057B7A1FF3CB";
paths = (
{
closed = 1;
nodes = (
"646 24 OFFCURVE",
"731 92 OFFCURVE",
"809 168 CURVE",
"833 238 OFFCURVE",
"846 334 OFFCURVE",
"841 417 CURVE",
"764 514 OFFCURVE",
"488 678 OFFCURVE",
"396 727 CURVE",
"405 913 LINE",
"431 922 LINE {name = hr00;}",
"499 829 OFFCURVE",
"625 718 OFFCURVE",
"707 684 CURVE",
"823 804 OFFCURVE",
"881 947 OFFCURVE",
"846 1068 CURVE",
"685 1122 LINE",
"626 1146 OFFCURVE",
"541 1204 OFFCURVE",
"482 1204 CURVE SMOOTH",
"406 1204 OFFCURVE",
"283 1147 OFFCURVE",
"221 1110 CURVE SMOOTH",
"176 1083 OFFCURVE",
"43 984 OFFCURVE",
"43 925 CURVE SMOOTH",
"43 883 OFFCURVE",
"44 673 OFFCURVE",
"65 594 CURVE",
"119 524 OFFCURVE",
"292 445 OFFCURVE",
"421 397 CURVE SMOOTH",
"465 381 OFFCURVE",
"504 368 OFFCURVE",
"531 360 CURVE",
"534 323 OFFCURVE",
"532 267 OFFCURVE",
"525 229 CURVE",
"476 205 LINE",
"367 285 OFFCURVE",
"240 370 OFFCURVE",
"99 374 CURVE",
"83 340 OFFCURVE",
"-3 237 OFFCURVE",
"97 55 CURVE",
"179 42 OFFCURVE",
"359 -13 OFFCURVE",
"539 -20 CURVE"
);
}
);
userData = {
com.typemytype.robofont.guides = (
{
angle = 0;
isGlobal = 0;
x = 0;
y = 1131;
},
{
angle = 90;
isGlobal = 0;
x = 434;
y = 0;
}
);
};
width = 900;
}
);
unicode = 0073;
},
{
glyphname = saltillo;
lastChange = "2022-05-20 01:01:15 +0000";
layers = (
{
layerId = "ED69ACE7-BE83-49AD-8DAF-057B7A1FF3CB";
paths = (
{
closed = 1;
nodes = (
"363 468 OFFCURVE",
"405 534 OFFCURVE",
"409 567 CURVE",
"468 1172 OFFCURVE",
"494 1250 OFFCURVE",
"505 1566 CURVE",
"462 1601 OFFCURVE",
"407 1614 OFFCURVE",
"350 1613 CURVE SMOOTH",
"231 1612 OFFCURVE",
"101 1547 OFFCURVE",
"37 1466 CURVE",
"32 1437 OFFCURVE",
"89 921 OFFCURVE",
"149 606 CURVE",
"157 560 OFFCURVE",
"186 487 OFFCURVE",
"263 468 CURVE {name = hr00;}"
);
}
);
width = 499;
}
);
leftMetricsKey = l;
rightMetricsKey = l;
unicode = A78C;
},
{
color = 4;
glyphname = germandbls;
lastChange = "2022-05-20 01:13:30 +0000";
layers = (
{
layerId = "ED69ACE7-BE83-49AD-8DAF-057B7A1FF3CB";
paths = (
{
closed = 1;
nodes = (
"273 -438 OFFCURVE",
"395 -343 OFFCURVE",
"437 -281 CURVE SMOOTH",
"452 -260 OFFCURVE",
"464 -238 OFFCURVE",
"467 -214 CURVE",
"448 1297 LINE",
"464 1311 LINE",
"514 1278 OFFCURVE",
"619 1214 OFFCURVE",
"685 1187 CURVE",
"541 654 LINE",
"768 635 LINE",
"890 816 OFFCURVE",
"1091 1167 OFFCURVE",
"1122 1380 CURVE",
"941 1518 OFFCURVE",
"645 1601 OFFCURVE",
"484 1613 CURVE",
"313 1564 OFFCURVE",
"169 1438 OFFCURVE",
"65 1295 CURVE",
"56 1111 OFFCURVE",
"137 185 OFFCURVE",
"205 -137 CURVE",
"39 -116 OFFCURVE",
"-7 -107 OFFCURVE",
"-43 -99 CURVE",
"-67 -159 OFFCURVE",
"-84 -205 OFFCURVE",
"-85 -281 CURVE",
"-57 -327 OFFCURVE",
"51 -416 OFFCURVE",
"168 -438 CURVE"
);
},
{
closed = 1;
nodes = (
"959 19 OFFCURVE",
"1064 94 OFFCURVE",
"1139 167 CURVE",
"1175 233 OFFCURVE",
"1251 403 OFFCURVE",
"1254 486 CURVE",
"1188 582 OFFCURVE",
"929 763 OFFCURVE",
"838 814 CURVE",
"541 654 LINE {name = hr00;}",
"599 579 OFFCURVE",
"816 477 OFFCURVE",
"918 432 CURVE",
"911 379 OFFCURVE",
"891 295 OFFCURVE",
"868 234 CURVE",
"845 227 LINE",
"786 303 OFFCURVE",
"744 375 OFFCURVE",
"621 391 CURVE",
"603 361 OFFCURVE",
"494 236 OFFCURVE",
"577 54 CURVE",
"653 35 OFFCURVE",
"699 21 OFFCURVE",
"851 -21 CURVE"
);
}
);
width = 1249;
}
);
unicode = 00DF;
},
{
color = 4;
glyphname = t;
lastChange = "2022-05-20 01:13:48 +0000";
layers = (
{
anchors = (
{
name = bottom;
position = "{414, 0}";
},
{
name = center;
position = "{414, 591}";
},
{
name = top;
position = "{321, 1439}";
},
{
name = topright;
position = "{807, 1182}";
}
);
layerId = "ED69ACE7-BE83-49AD-8DAF-057B7A1FF3CB";
paths = (
{
closed = 1;
nodes = (
"591 -20 OFFCURVE",
"789 251 OFFCURVE",
"827 349 CURVE",
"700 490 LINE",
"484 312 LINE {name = hr00;}",
"482 841 LINE",
"559 844 OFFCURVE",
"654 850 OFFCURVE",
"715 855 CURVE",
"736 912 OFFCURVE",
"795 1044 OFFCURVE",
"714 1182 CURVE",
"492 1137 LINE",
"503 1418 LINE",
"406 1470 OFFCURVE",
"246 1464 OFFCURVE",
"199 1439 CURVE",
"138 1076 LINE",
"26 1037 LINE",
"23 1000 OFFCURVE",
"26 914 OFFCURVE",
"46 860 CURVE",
"142 854 LINE",
"192 496 LINE",
"135 313 OFFCURVE",
"127 265 OFFCURVE",
"127 240 CURVE",
"131 117 OFFCURVE",
"338 -20 OFFCURVE",
"460 -20 CURVE SMOOTH"
);
}
);
userData = {
com.typemytype.robofont.guides = (
{
angle = 0;
isGlobal = 0;
x = 0;
y = 1116;
},
{
angle = 90;
isGlobal = 0;
x = 367;
y = 0;
}
);
};
width = 827;
}
);
unicode = 0074;
},
{
glyphname = tbar;
lastChange = "2022-05-20 00:37:12 +0000";
layers = (
{
layerId = "ED69ACE7-BE83-49AD-8DAF-057B7A1FF3CB";
paths = (
{
closed = 1;
nodes = (
"601 -20 OFFCURVE",
"770 185 OFFCURVE",
"828 289 CURVE",
"715 433 LINE",
"494 312 LINE",
"492 861 LINE",
"569 864 OFFCURVE",
"664 870 OFFCURVE",
"725 875 CURVE {name = hr02;}",
"746 932 OFFCURVE",
"805 1044 OFFCURVE",
"724 1182 CURVE",
"502 1137 LINE",
"513 1418 LINE",
"416 1470 OFFCURVE",
"256 1464 OFFCURVE",
"209 1439 CURVE",
"158 1076 LINE",
"36 1037 LINE",
"33 1000 OFFCURVE",
"36 923 OFFCURVE",
"56 869 CURVE",
"162 863 LINE",
"202 496 LINE",
"145 313 OFFCURVE",
"137 265 OFFCURVE",
"137 240 CURVE SMOOTH",
"137 119 OFFCURVE",
"348 -20 OFFCURVE",
"470 -20 CURVE SMOOTH"
);
},
{
closed = 1;
nodes = (
"392 489 OFFCURVE",
"636 501 OFFCURVE",
"706 507 CURVE",
"751 571 OFFCURVE",
"763 697 OFFCURVE",
"722 774 CURVE",
"323 736 LINE",
"64 686 LINE",
"49 618 OFFCURVE",
"54 566 OFFCURVE",
"78 501 CURVE {name = hr01;}"
);
}
);
width = 847;
}
);
unicode = 0167;
},
{
glyphname = tcaron;
lastChange = "2022-05-20 00:37:12 +0000";
layers = (
{
layerId = "ED69ACE7-BE83-49AD-8DAF-057B7A1FF3CB";
paths = (
{
closed = 1;
nodes = (
"591 -20 OFFCURVE",
"809 251 OFFCURVE",
"847 349 CURVE",
"720 490 LINE",
"484 312 LINE",
"482 841 LINE",
"559 844 OFFCURVE",
"704 850 OFFCURVE",
"765 855 CURVE",
"786 912 OFFCURVE",
"845 1044 OFFCURVE",
"764 1182 CURVE",
"482 1137 LINE",
"473 1418 LINE",
"376 1470 OFFCURVE",
"246 1464 OFFCURVE",
"199 1439 CURVE",
"138 1076 LINE",
"26 1037 LINE",
"23 1000 OFFCURVE",
"26 914 OFFCURVE",
"46 860 CURVE",
"142 854 LINE",
"192 496 LINE",
"135 313 OFFCURVE",
"127 265 OFFCURVE",
"127 240 CURVE",
"131 117 OFFCURVE",
"338 -20 OFFCURVE",
"460 -20 CURVE SMOOTH"
);
},
{
closed = 1;
nodes = (
"800 1404 OFFCURVE",
"892 1659 OFFCURVE",
"951 1839 CURVE {name = hr00;}",
"886 1909 OFFCURVE",
"806 1940 OFFCURVE",
"714 1940 CURVE SMOOTH",
"677 1940 OFFCURVE",
"641 1935 OFFCURVE",
"610 1926 CURVE",
"559 1320 LINE",
"709 1280 LINE"
);
}
);
width = 857;
}
);
unicode = 0165;
},
{
color = 4;
glyphname = u;
lastChange = "2022-05-20 01:15:10 +0000";
layers = (
{
anchors = (
{
name = bottom;
position = "{582, 0}";
},
{
name = ogonek;
position = "{1159, 10}";
},
{
name = top;
position = "{562, 1182}";
},
{
name = topright;
position = "{1292, 1182}";
}
);
layerId = "ED69ACE7-BE83-49AD-8DAF-057B7A1FF3CB";
paths = (
{
closed = 1;
nodes = (
"435 -20 OFFCURVE",
"585 324 OFFCURVE",
"653 497 CURVE",
"668 490 LINE",
"654 400 OFFCURVE",
"644 322 OFFCURVE",
"634 221 CURVE SMOOTH",
"633 211 OFFCURVE",
"632 202 OFFCURVE",
"632 193 CURVE SMOOTH",
"632 126 OFFCURVE",
"662 104 OFFCURVE",
"684 80 CURVE SMOOTH",
"739 20 OFFCURVE",
"816 -20 OFFCURVE",
"879 -20 CURVE SMOOTH",
"995 -20 OFFCURVE",
"1095 120 OFFCURVE",
"1164 279 CURVE",
"1079 400 LINE",
"906 308 LINE",
"1000 531 OFFCURVE",
"1078 956 OFFCURVE",
"1078 1050 CURVE SMOOTH",
"1078 1061 LINE",
"1007 1145 OFFCURVE",
"923 1182 OFFCURVE",
"801 1182 CURVE SMOOTH {name = hr02;}",
"724 1182 OFFCURVE",
"654 1168 OFFCURVE",
"633 1154 CURVE",
"633 1122 OFFCURVE",
"638 1050 OFFCURVE",
"662 764 CURVE",
"642 689 OFFCURVE",
"524 434 OFFCURVE",
"449 361 CURVE",
"419 375 LINE",
"458 557 OFFCURVE",
"470 735 OFFCURVE",
"470 931 CURVE SMOOTH",
"470 1017 OFFCURVE",
"467 1100 OFFCURVE",
"460 1174 CURVE {name = hr01;}",
"437 1185 OFFCURVE",
"400 1191 OFFCURVE",
"356 1191 CURVE SMOOTH",
"234 1191 OFFCURVE",
"62 1141 OFFCURVE",
"7 1004 CURVE",
"162 573 LINE",
"78 162 LINE",
"78 109 OFFCURVE",
"168 66 OFFCURVE",
"217 31 CURVE SMOOTH",
"257 2 OFFCURVE",
"290 -20 OFFCURVE",
"327 -20 CURVE SMOOTH"
);
}
);
userData = {
com.typemytype.robofont.guides = (
{
angle = 90;
isGlobal = 0;
x = 553;
y = 0;
}
);
};
width = 1164;
}
);
unicode = 0075;
},
{
glyphname = v;
lastChange = "2022-05-20 00:37:12 +0000";
layers = (
{
layerId = "ED69ACE7-BE83-49AD-8DAF-057B7A1FF3CB";
paths = (
{
closed = 1;
nodes = (
"624 -21 OFFCURVE",
"731 0 OFFCURVE",
"784 44 CURVE",
"770 123 OFFCURVE",
"752 176 OFFCURVE",
"731 219 CURVE",
"870 451 OFFCURVE",
"1000 738 OFFCURVE",
"1045 830 CURVE",
"1040 965 OFFCURVE",
"983 1125 OFFCURVE",
"888 1204 CURVE",
"760 1188 OFFCURVE",
"594 1069 OFFCURVE",
"537 932 CURVE",
"581 835 OFFCURVE",
"639 790 OFFCURVE",
"698 739 CURVE",
"679 635 OFFCURVE",
"630 439 OFFCURVE",
"577 304 CURVE",
"564 305 LINE",
"549 558 OFFCURVE",
"458 1028 OFFCURVE",
"434 1079 CURVE",
"433 1079 LINE",
"377 1194 OFFCURVE",
"214 1194 OFFCURVE",
"101 1109 CURVE SMOOTH",
"41 1064 OFFCURVE",
"13 975 OFFCURVE",
"0 889 CURVE",
"165 693 LINE",
"297 283 LINE",
"273 233 OFFCURVE",
"260 178 OFFCURVE",
"245 47 CURVE {name = hr00;}",
"291 3 OFFCURVE",
"404 -21 OFFCURVE",
"517 -21 CURVE SMOOTH"
);
}
);
width = 1062;
}
);
unicode = 0076;
},
{
glyphname = vturned;
lastChange = "2022-05-20 01:00:22 +0000";
layers = (
{
layerId = "ED69ACE7-BE83-49AD-8DAF-057B7A1FF3CB";
paths = (
{
closed = 1;
nodes = (
"421 1204 OFFCURVE",
"314 1183 OFFCURVE",
"261 1139 CURVE",
"275 1060 OFFCURVE",
"293 1007 OFFCURVE",
"314 964 CURVE",
"175 732 OFFCURVE",
"45 445 OFFCURVE",
"0 353 CURVE",
"5 218 OFFCURVE",
"62 58 OFFCURVE",
"157 -21 CURVE",
"285 -5 OFFCURVE",
"451 114 OFFCURVE",
"508 251 CURVE",
"464 348 OFFCURVE",
"406 393 OFFCURVE",
"347 444 CURVE",
"366 548 OFFCURVE",
"415 744 OFFCURVE",
"468 879 CURVE",
"481 878 LINE",
"496 625 OFFCURVE",
"587 155 OFFCURVE",
"611 104 CURVE",
"612 104 LINE",
"668 -11 OFFCURVE",
"831 -11 OFFCURVE",
"944 74 CURVE SMOOTH",
"1004 119 OFFCURVE",
"1032 208 OFFCURVE",
"1045 294 CURVE",
"880 490 LINE",
"748 900 LINE",
"772 950 OFFCURVE",
"785 1005 OFFCURVE",
"800 1136 CURVE {name = hr00;}",
"754 1180 OFFCURVE",
"641 1204 OFFCURVE",
"528 1204 CURVE SMOOTH"
);
}
);
width = 1062;
}
);
unicode = 028C;
},
{
color = 4;
glyphname = w;
lastChange = "2022-05-20 01:15:34 +0000";
layers = (
{
anchors = (
{
name = bottom;
position = "{818, 0}";
},
{
name = top;
position = "{818, 1182}";
}
);
layerId = "ED69ACE7-BE83-49AD-8DAF-057B7A1FF3CB";
paths = (
{
closed = 1;
nodes = (
"1223 -21 OFFCURVE",
"1325 0 OFFCURVE",
"1375 44 CURVE",
"1358 122 OFFCURVE",
"1337 175 OFFCURVE",
"1313 219 CURVE",
"1442 450 OFFCURVE",
"1565 738 OFFCURVE",
"1604 830 CURVE",
"1593 965 OFFCURVE",
"1527 1125 OFFCURVE",
"1429 1204 CURVE",
"1301 1188 OFFCURVE",
"1141 1069 OFFCURVE",
"1093 932 CURVE {name = hr01;}",
"1140 835 OFFCURVE",
"1201 790 OFFCURVE",
"1263 739 CURVE",
"1250 635 OFFCURVE",
"1202 441 OFFCURVE",
"1153 306 CURVE",
"1138 306 LINE",
"1124 450 OFFCURVE",
"1079 663 OFFCURVE",
"1039 829 CURVE",
"1041 830 LINE",
"1030 965 OFFCURVE",
"964 1125 OFFCURVE",
"866 1204 CURVE",
"738 1188 OFFCURVE",
"578 1069 OFFCURVE",
"530 932 CURVE",
"577 835 OFFCURVE",
"638 790 OFFCURVE",
"700 739 CURVE",
"687 635 OFFCURVE",
"639 439 OFFCURVE",
"592 304 CURVE",
"579 305 LINE",
"549 558 OFFCURVE",
"450 1024 OFFCURVE",
"440 1093 CURVE",
"408 1152 OFFCURVE",
"339 1179 OFFCURVE",
"265 1179 CURVE SMOOTH",
"153 1179 OFFCURVE",
"5 1078 OFFCURVE",
"5 968 CURVE",
"159 693 LINE",
"312 283 LINE",
"291 232 OFFCURVE",
"283 184 OFFCURVE",
"273 47 CURVE",
"321 3 OFFCURVE",
"426 -20 OFFCURVE",
"526 -20 CURVE SMOOTH",
"622 -20 OFFCURVE",
"714 1 OFFCURVE",
"740 43 CURVE",
"740 84 OFFCURVE",
"736 119 OFFCURVE",
"725 150 CURVE",
"767 252 OFFCURVE",
"803 375 OFFCURVE",
"836 489 CURVE",
"901 256 LINE",
"885 213 OFFCURVE",
"871 160 OFFCURVE",
"864 47 CURVE {name = hr02;}",
"913 3 OFFCURVE",
"1016 -21 OFFCURVE",
"1122 -21 CURVE SMOOTH"
);
}
);
userData = {
com.typemytype.robofont.guides = (
{
angle = 0;
isGlobal = 0;
x = 0;
y = 63;
},
{
angle = 90;
isGlobal = 0;
x = 800;
y = 0;
}
);
};
width = 1636;
}
);
unicode = 0077;
},
{
color = 4;
glyphname = x;
lastChange = "2022-05-20 01:15:45 +0000";
layers = (
{
anchors = (
{
name = bottom;
position = "{570, 0}";
},
{
name = top;
position = "{570, 1182}";
}
);
layerId = "ED69ACE7-BE83-49AD-8DAF-057B7A1FF3CB";
paths = (
{
closed = 1;
nodes = (
"843 -21 OFFCURVE",
"870 -18 OFFCURVE",
"897 -11 CURVE",
"1039 38 OFFCURVE",
"1092 233 OFFCURVE",
"1115 331 CURVE",
"1033 429 LINE",
"900 358 LINE",
"712 659 LINE",
"873 848 LINE",
"900 784 OFFCURVE",
"950 695 OFFCURVE",
"979 670 CURVE",
"1017 680 OFFCURVE",
"1096 715 OFFCURVE",
"1128 763 CURVE",
"1128 898 OFFCURVE",
"1039 1132 OFFCURVE",
"955 1204 CURVE",
"840 1204 OFFCURVE",
"745 1187 OFFCURVE",
"687 1098 CURVE SMOOTH",
"670 1072 OFFCURVE",
"657 941 OFFCURVE",
"620 729 CURVE",
"608 726 LINE",
"594 806 OFFCURVE",
"595 920 OFFCURVE",
"547 1082 CURVE SMOOTH {name = hr01;}",
"519 1176 OFFCURVE",
"385 1228 OFFCURVE",
"252 1195 CURVE",
"111 1146 OFFCURVE",
"58 949 OFFCURVE",
"35 851 CURVE",
"126 738 LINE",
"269 804 LINE",
"425 553 LINE",
"265 332 LINE",
"239 396 OFFCURVE",
"189 485 OFFCURVE",
"160 510 CURVE",
"123 500 OFFCURVE",
"44 465 OFFCURVE",
"10 417 CURVE",
"10 282 OFFCURVE",
"104 52 OFFCURVE",
"188 -20 CURVE",
"355 -28 OFFCURVE",
"418 36 OFFCURVE",
"458 85 CURVE SMOOTH",
"477 107 OFFCURVE",
"497 288 OFFCURVE",
"517 475 CURVE",
"538 475 LINE",
"551 395 OFFCURVE",
"571 262 OFFCURVE",
"621 100 CURVE SMOOTH",
"644 25 OFFCURVE",
"714 -21 OFFCURVE",
"817 -21 CURVE SMOOTH {name = hr02;}"
);
}
);
width = 1139;
}
);
unicode = 0078;
},
{
glyphname = y;
lastChange = "2022-05-20 00:52:57 +0000";
layers = (
{
anchors = (
{
name = bottom;
position = "{1246, 0}";
},
{
name = top;
position = "{558, 1182}";
}
);
layerId = "ED69ACE7-BE83-49AD-8DAF-057B7A1FF3CB";
paths = (
{
closed = 1;
nodes = (
"696 -438 OFFCURVE",
"710 -437 OFFCURVE",
"724 -435 CURVE",
"900 -375 OFFCURVE",
"1056 -228 OFFCURVE",
"1099 -62 CURVE",
"961 731 LINE",
"1057 906 OFFCURVE",
"1065 977 OFFCURVE",
"1080 1049 CURVE",
"1075 1045 LINE",
"1077 1051 OFFCURVE",
"1078 1056 OFFCURVE",
"1078 1061 CURVE {name = hr01;}",
"1007 1145 OFFCURVE",
"923 1182 OFFCURVE",
"801 1182 CURVE SMOOTH {name = hr02;}",
"724 1182 OFFCURVE",
"654 1168 OFFCURVE",
"633 1154 CURVE",
"633 1122 OFFCURVE",
"638 1025 OFFCURVE",
"662 739 CURVE",
"642 664 OFFCURVE",
"524 434 OFFCURVE",
"449 361 CURVE",
"419 375 LINE",
"445 496 OFFCURVE",
"457 591 OFFCURVE",
"464 713 CURVE SMOOTH",
"473 873 OFFCURVE",
"473 1039 OFFCURVE",
"460 1174 CURVE",
"371 1215 OFFCURVE",
"81 1190 OFFCURVE",
"7 1004 CURVE {name = hr03;}",
"162 573 LINE",
"78 162 LINE",
"78 109 OFFCURVE",
"168 66 OFFCURVE",
"217 31 CURVE SMOOTH",
"256 3 OFFCURVE",
"301 -22 OFFCURVE",
"337 -20 CURVE SMOOTH",
"355 -19 OFFCURVE",
"373 -11 OFFCURVE",
"393 5 CURVE SMOOTH",
"489 87 OFFCURVE",
"650 394 OFFCURVE",
"705 535 CURVE",
"715 532 LINE",
"713 344 OFFCURVE",
"735 40 OFFCURVE",
"726 -154 CURVE",
"633 -154 OFFCURVE",
"428 -128 OFFCURVE",
"330 -106 CURVE",
"312 -166 OFFCURVE",
"299 -202 OFFCURVE",
"305 -278 CURVE",
"349 -336 OFFCURVE",
"531 -437 OFFCURVE",
"681 -438 CURVE SMOOTH"
);
}
);
userData = {
com.typemytype.robofont.guides = (
{
angle = 90;
isGlobal = 0;
x = 555;
y = 0;
}
);
};
width = 1115;
}
);
unicode = 0079;
},
{
color = 4;
glyphname = z;
lastChange = "2022-05-20 01:15:59 +0000";
layers = (
{
anchors = (
{
name = bottom;
position = "{514, 0}";
},
{
name = center;
position = "{514, 591}";
},
{
name = top;
position = "{514, 1182}";
}
);
layerId = "ED69ACE7-BE83-49AD-8DAF-057B7A1FF3CB";
paths = (
{
closed = 1;
nodes = (
"814 -20 OFFCURVE",
"878 12 OFFCURVE",
"929 80 CURVE SMOOTH",
"975 142 OFFCURVE",
"991 238 OFFCURVE",
"991 328 CURVE SMOOTH",
"991 410 OFFCURVE",
"978 488 OFFCURVE",
"961 533 CURVE",
"813 561 LINE",
"713 327 LINE",
"529 358 LINE",
"869 794 LINE",
"889 790 OFFCURVE",
"904 787 OFFCURVE",
"918 787 CURVE SMOOTH",
"937 787 OFFCURVE",
"954 792 OFFCURVE",
"974 805 CURVE",
"985 835 OFFCURVE",
"990 871 OFFCURVE",
"990 908 CURVE SMOOTH",
"990 1022 OFFCURVE",
"941 1153 OFFCURVE",
"865 1206 CURVE",
"764 1202 OFFCURVE",
"698 1108 OFFCURVE",
"660 1051 CURVE",
"567 1112 OFFCURVE",
"358 1180 OFFCURVE",
"243 1180 CURVE SMOOTH {name = hr01;}",
"124 1180 OFFCURVE",
"24 1101 OFFCURVE",
"24 941 CURVE SMOOTH {name = hr02;}",
"24 805 OFFCURVE",
"104 643 OFFCURVE",
"163 581 CURVE",
"329 617 LINE",
"329 833 LINE",
"516 810 LINE",
"331 404 LINE",
"269 457 OFFCURVE",
"228 490 OFFCURVE",
"186 502 CURVE",
"144 488 OFFCURVE",
"69 450 OFFCURVE",
"35 406 CURVE",
"35 269 OFFCURVE",
"102 35 OFFCURVE",
"188 -17 CURVE",
"286 -14 OFFCURVE",
"322 43 OFFCURVE",
"384 150 CURVE",
"452 80 OFFCURVE",
"620 -20 OFFCURVE",
"744 -20 CURVE SMOOTH {name = hr03;}"
);
}
);
userData = {
com.typemytype.robofont.guides = (
{
angle = 90;
isGlobal = 0;
x = 511;
y = 0;
}
);
};
width = 1027;
}
);
unicode = 007A;
},
{
glyphname = i.cy;
lastChange = "2022-05-20 00:37:12 +0000";
layers = (
{
layerId = "ED69ACE7-BE83-49AD-8DAF-057B7A1FF3CB";
paths = (
{
closed = 1;
nodes = (
"476 -20 OFFCURVE",
"578 158 OFFCURVE",
"620 256 CURVE",
"541 381 LINE",
"391 314 LINE",
"410 392 LINE SMOOTH",
"464 613 OFFCURVE",
"502 1056 OFFCURVE",
"511 1105 CURVE",
"464 1146 OFFCURVE",
"407 1163 OFFCURVE",
"346 1163 CURVE SMOOTH",
"221 1163 OFFCURVE",
"86 1091 OFFCURVE",
"26 1018 CURVE",
"157 497 LINE",
"64 235 OFFCURVE",
"63 249 OFFCURVE",
"63 212 CURVE SMOOTH",
"63 104 OFFCURVE",
"251 -20 OFFCURVE",
"345 -20 CURVE SMOOTH"
);
},
{
closed = 1;
nodes = (
"364 1219 OFFCURVE",
"530 1372 OFFCURVE",
"573 1464 CURVE",
"533 1633 OFFCURVE",
"364 1681 OFFCURVE",
"228 1681 CURVE",
"193 1580 OFFCURVE",
"153 1472 OFFCURVE",
"90 1330 CURVE",
"137 1273 OFFCURVE",
"241 1208 OFFCURVE",
"291 1207 CURVE"
);
}
);
width = 615;
}
);
},
{
glyphname = f_f;
lastChange = "2022-05-20 00:37:12 +0000";
layers = (
{
components = (
{
name = f;
transform = "{1, 0, 0, 1, 744, 0}";
}
);
layerId = "ED69ACE7-BE83-49AD-8DAF-057B7A1FF3CB";
paths = (
{
closed = 1;
nodes = (
"296 -431 OFFCURVE",
"450 -328 OFFCURVE",
"469 -214 CURVE",
"479 29 OFFCURVE",
"462 431 OFFCURVE",
"443 792 CURVE",
"488 768 OFFCURVE",
"576 728 OFFCURVE",
"659 731 CURVE",
"691 778 OFFCURVE",
"749 1000 OFFCURVE",
"685 1098 CURVE",
"425 1021 LINE",
"406 1387 LINE",
"427 1358 OFFCURVE",
"519 1265 OFFCURVE",
"629 1223 CURVE SMOOTH",
"739 1181 OFFCURVE",
"866 1144 OFFCURVE",
"953 1138 CURVE",
"1023 1203 OFFCURVE",
"1081 1443 OFFCURVE",
"1044 1517 CURVE",
"937 1506 OFFCURVE",
"540 1576 OFFCURVE",
"377 1613 CURVE",
"124 1510 OFFCURVE",
"36 1300 OFFCURVE",
"19 1262 CURVE",
"20 1078 OFFCURVE",
"158 305 OFFCURVE",
"201 -143 CURVE",
"-2 -112 LINE {name = hr00;}",
"-23 -172 OFFCURVE",
"-38 -212 OFFCURVE",
"-36 -288 CURVE",
"-3 -334 OFFCURVE",
"62 -416 OFFCURVE",
"181 -438 CURVE"
);
}
);
width = 1488;
}
);
},
{
glyphname = f_f_i;
lastChange = "2022-05-20 00:37:12 +0000";
layers = (
{
layerId = "ED69ACE7-BE83-49AD-8DAF-057B7A1FF3CB";
paths = (
{
closed = 1;
nodes = (
"1040 -431 OFFCURVE",
"1194 -328 OFFCURVE",
"1213 -214 CURVE",
"1223 29 OFFCURVE",
"1206 431 OFFCURVE",
"1187 792 CURVE",
"1232 768 OFFCURVE",
"1320 728 OFFCURVE",
"1403 731 CURVE",
"1435 778 OFFCURVE",
"1493 1000 OFFCURVE",
"1429 1098 CURVE",
"1169 1021 LINE",
"1150 1347 LINE",
"1316 1257 OFFCURVE",
"1713 1210 OFFCURVE",
"1914 1229 CURVE",
"1984 1294 OFFCURVE",
"2030 1539 OFFCURVE",
"1993 1613 CURVE",
"1773 1585 OFFCURVE",
"1410 1587 OFFCURVE",
"1129 1640 CURVE {name = hr02;}",
"876 1537 OFFCURVE",
"780 1300 OFFCURVE",
"763 1262 CURVE",
"764 1078 OFFCURVE",
"902 305 OFFCURVE",
"945 -143 CURVE",
"742 -112 LINE",
"721 -172 OFFCURVE",
"706 -212 OFFCURVE",
"708 -288 CURVE",
"741 -334 OFFCURVE",
"806 -416 OFFCURVE",
"925 -438 CURVE"
);
},
{
closed = 1;
nodes = (
"296 -431 OFFCURVE",
"450 -328 OFFCURVE",
"469 -214 CURVE",
"479 29 OFFCURVE",
"462 431 OFFCURVE",
"443 792 CURVE",
"488 768 OFFCURVE",
"576 728 OFFCURVE",
"659 731 CURVE",
"691 778 OFFCURVE",
"749 1000 OFFCURVE",
"685 1098 CURVE",
"425 1021 LINE",
"406 1342 LINE",
"448 1284 OFFCURVE",
"779 1150 OFFCURVE",
"953 1138 CURVE",
"1023 1203 OFFCURVE",
"1081 1443 OFFCURVE",
"1044 1517 CURVE",
"937 1506 OFFCURVE",
"540 1576 OFFCURVE",
"377 1613 CURVE",
"124 1510 OFFCURVE",
"36 1300 OFFCURVE",
"19 1262 CURVE",
"20 1078 OFFCURVE",
"158 305 OFFCURVE",
"201 -143 CURVE",
"-2 -112 LINE {name = hr01;}",
"-23 -172 OFFCURVE",
"-38 -212 OFFCURVE",
"-36 -288 CURVE",
"-3 -334 OFFCURVE",
"62 -416 OFFCURVE",
"181 -438 CURVE"
);
},
{
closed = 1;
nodes = (
"1964 -20 OFFCURVE",
"2066 158 OFFCURVE",
"2108 256 CURVE",
"2029 381 LINE",
"1879 314 LINE",
"1898 392 LINE SMOOTH",
"1952 613 OFFCURVE",
"1990 1056 OFFCURVE",
"1999 1105 CURVE",
"1952 1146 OFFCURVE",
"1895 1163 OFFCURVE",
"1834 1163 CURVE SMOOTH",
"1709 1163 OFFCURVE",
"1574 1091 OFFCURVE",
"1514 1018 CURVE",
"1645 497 LINE",
"1552 235 OFFCURVE",
"1551 249 OFFCURVE",
"1551 212 CURVE SMOOTH",
"1551 104 OFFCURVE",
"1739 -20 OFFCURVE",
"1833 -20 CURVE SMOOTH"
);
}
);
width = 2103;
}
);
},
{
glyphname = f_f_i_trk;
lastChange = "2022-05-20 00:37:12 +0000";
layers = (
{
layerId = "ED69ACE7-BE83-49AD-8DAF-057B7A1FF3CB";
paths = (
{
closed = 1;
nodes = (
"1040 -431 OFFCURVE",
"1194 -328 OFFCURVE",
"1213 -214 CURVE",
"1223 29 OFFCURVE",
"1206 431 OFFCURVE",
"1187 792 CURVE",
"1232 768 OFFCURVE",
"1320 728 OFFCURVE",
"1403 731 CURVE",
"1435 778 OFFCURVE",
"1493 1000 OFFCURVE",
"1429 1098 CURVE",
"1169 1021 LINE",
"1149 1366 LINE",
"1191 1308 OFFCURVE",
"1230 1241 OFFCURVE",
"1404 1229 CURVE",
"1474 1294 OFFCURVE",
"1533 1494 OFFCURVE",
"1496 1568 CURVE",
"1389 1557 OFFCURVE",
"1284 1576 OFFCURVE",
"1121 1613 CURVE",
"868 1510 OFFCURVE",
"780 1300 OFFCURVE",
"763 1262 CURVE",
"764 1078 OFFCURVE",
"902 305 OFFCURVE",
"945 -143 CURVE",
"742 -112 LINE",
"721 -172 OFFCURVE",
"706 -212 OFFCURVE",
"708 -288 CURVE",
"741 -334 OFFCURVE",
"806 -416 OFFCURVE",
"925 -438 CURVE"
);
},
{
closed = 1;
nodes = (
"296 -431 OFFCURVE",
"450 -328 OFFCURVE",
"469 -214 CURVE",
"479 29 OFFCURVE",
"462 431 OFFCURVE",
"443 792 CURVE",
"488 768 OFFCURVE",
"576 728 OFFCURVE",
"659 731 CURVE",
"691 778 OFFCURVE",
"749 1000 OFFCURVE",
"685 1098 CURVE",
"425 1021 LINE",
"405 1366 LINE",
"447 1308 OFFCURVE",
"486 1241 OFFCURVE",
"660 1229 CURVE",
"730 1294 OFFCURVE",
"789 1494 OFFCURVE",
"752 1568 CURVE",
"645 1557 OFFCURVE",
"540 1576 OFFCURVE",
"377 1613 CURVE",
"124 1510 OFFCURVE",
"36 1300 OFFCURVE",
"19 1262 CURVE",
"20 1078 OFFCURVE",
"158 305 OFFCURVE",
"201 -143 CURVE",
"-2 -112 LINE {name = hr00;}",
"-23 -172 OFFCURVE",
"-38 -212 OFFCURVE",
"-36 -288 CURVE",
"-3 -334 OFFCURVE",
"62 -416 OFFCURVE",
"181 -438 CURVE"
);
},
{
closed = 1;
nodes = (
"1964 -20 OFFCURVE",
"2066 158 OFFCURVE",
"2108 256 CURVE",
"2029 381 LINE",
"1879 314 LINE",
"1898 392 LINE SMOOTH",
"1952 613 OFFCURVE",
"1990 1056 OFFCURVE",
"1999 1105 CURVE",
"1952 1146 OFFCURVE",
"1895 1163 OFFCURVE",
"1834 1163 CURVE SMOOTH",
"1709 1163 OFFCURVE",
"1574 1091 OFFCURVE",
"1514 1018 CURVE",
"1645 497 LINE",
"1552 235 OFFCURVE",
"1551 249 OFFCURVE",
"1551 212 CURVE SMOOTH",
"1551 104 OFFCURVE",
"1739 -20 OFFCURVE",
"1833 -20 CURVE SMOOTH"
);
},
{
closed = 1;
nodes = (
"1852 1219 OFFCURVE",
"2018 1372 OFFCURVE",
"2061 1464 CURVE",
"2021 1633 OFFCURVE",
"1852 1681 OFFCURVE",
"1716 1681 CURVE",
"1681 1580 OFFCURVE",
"1641 1472 OFFCURVE",
"1578 1330 CURVE",
"1625 1273 OFFCURVE",
"1729 1208 OFFCURVE",
"1779 1207 CURVE"
);
}
);
userData = {
com.typemytype.robofont.mark = (
1,
0.6,
0.704,
1
);
};
width = 2103;
}
);
},
{
glyphname = f_f_l;
lastChange = "2022-05-20 00:37:12 +0000";
layers = (
{
layerId = "ED69ACE7-BE83-49AD-8DAF-057B7A1FF3CB";
paths = (
{
closed = 1;
nodes = (
"296 -431 OFFCURVE",
"450 -328 OFFCURVE",
"469 -214 CURVE",
"479 29 OFFCURVE",
"462 431 OFFCURVE",
"443 792 CURVE",
"488 768 OFFCURVE",
"576 728 OFFCURVE",
"659 731 CURVE",
"691 778 OFFCURVE",
"749 1000 OFFCURVE",
"685 1098 CURVE",
"425 1021 LINE",
"406 1387 LINE",
"427 1358 OFFCURVE",
"519 1265 OFFCURVE",
"629 1223 CURVE SMOOTH",
"739 1181 OFFCURVE",
"866 1144 OFFCURVE",
"953 1138 CURVE",
"1023 1203 OFFCURVE",
"1081 1443 OFFCURVE",
"1044 1517 CURVE",
"937 1506 OFFCURVE",
"540 1576 OFFCURVE",
"377 1613 CURVE",
"124 1510 OFFCURVE",
"36 1300 OFFCURVE",
"19 1262 CURVE",
"20 1078 OFFCURVE",
"158 305 OFFCURVE",
"201 -143 CURVE",
"-2 -112 LINE",
"-23 -172 OFFCURVE",
"-38 -212 OFFCURVE",
"-36 -288 CURVE",
"-3 -334 OFFCURVE",
"62 -416 OFFCURVE",
"181 -438 CURVE"
);
},
{
closed = 1;
nodes = (
"1040 -431 OFFCURVE",
"1194 -328 OFFCURVE",
"1213 -214 CURVE",
"1223 29 OFFCURVE",
"1206 431 OFFCURVE",
"1187 792 CURVE",
"1232 768 OFFCURVE",
"1320 748 OFFCURVE",
"1403 751 CURVE",
"1435 798 OFFCURVE",
"1493 1000 OFFCURVE",
"1429 1098 CURVE",
"1169 1053 LINE",
"1150 1345 LINE",
"1171 1316 OFFCURVE",
"1227 1259 OFFCURVE",
"1301 1229 CURVE SMOOTH",
"1377 1198 OFFCURVE",
"1473 1174 OFFCURVE",
"1569 1177 CURVE",
"1639 1242 OFFCURVE",
"1679 1436 OFFCURVE",
"1642 1510 CURVE",
"1517 1510 OFFCURVE",
"1275 1581 OFFCURVE",
"1121 1613 CURVE",
"868 1510 OFFCURVE",
"780 1300 OFFCURVE",
"763 1262 CURVE",
"764 1078 OFFCURVE",
"902 305 OFFCURVE",
"945 -143 CURVE",
"742 -112 LINE",
"721 -172 OFFCURVE",
"706 -212 OFFCURVE",
"708 -288 CURVE",
"741 -334 OFFCURVE",
"806 -416 OFFCURVE",
"925 -438 CURVE"
);
},
{
closed = 1;
nodes = (
"1967 -20 OFFCURVE",
"2082 138 OFFCURVE",
"2120 254 CURVE",
"2040 381 LINE",
"1897 314 LINE",
"1956 919 OFFCURVE",
"1982 1250 OFFCURVE",
"1993 1566 CURVE",
"1950 1601 OFFCURVE",
"1895 1614 OFFCURVE",
"1838 1613 CURVE SMOOTH",
"1719 1612 OFFCURVE",
"1589 1547 OFFCURVE",
"1525 1466 CURVE",
"1520 1437 OFFCURVE",
"1577 921 OFFCURVE",
"1637 606 CURVE",
"1568 249 LINE SMOOTH",
"1557 192 OFFCURVE",
"1573 161 OFFCURVE",
"1593 138 CURVE SMOOTH",
"1652 68 OFFCURVE",
"1749 -20 OFFCURVE",
"1841 -20 CURVE SMOOTH {name = hr00;}"
);
}
);
width = 2114;
}
);
},
{
glyphname = fi;
lastChange = "2022-05-20 00:37:12 +0000";
layers = (
{
layerId = "ED69ACE7-BE83-49AD-8DAF-057B7A1FF3CB";
paths = (
{
closed = 1;
nodes = (
"296 -431 OFFCURVE",
"450 -328 OFFCURVE",
"469 -214 CURVE",
"479 29 OFFCURVE",
"462 431 OFFCURVE",
"443 792 CURVE",
"488 768 OFFCURVE",
"576 728 OFFCURVE",
"659 731 CURVE",
"691 778 OFFCURVE",
"749 1000 OFFCURVE",
"685 1098 CURVE",
"425 1021 LINE",
"406 1331 LINE",
"572 1241 OFFCURVE",
"969 1210 OFFCURVE",
"1170 1229 CURVE",
"1240 1294 OFFCURVE",
"1286 1539 OFFCURVE",
"1249 1613 CURVE {name = hr02;}",
"1029 1585 OFFCURVE",
"666 1571 OFFCURVE",
"385 1624 CURVE {name = hr03;}",
"132 1521 OFFCURVE",
"36 1300 OFFCURVE",
"19 1262 CURVE",
"20 1078 OFFCURVE",
"158 305 OFFCURVE",
"201 -143 CURVE",
"-2 -112 LINE {name = hr01;}",
"-23 -172 OFFCURVE",
"-38 -212 OFFCURVE",
"-36 -288 CURVE",
"-3 -334 OFFCURVE",
"62 -416 OFFCURVE",
"181 -438 CURVE"
);
},
{
closed = 1;
nodes = (
"1220 -20 OFFCURVE",
"1322 158 OFFCURVE",
"1364 256 CURVE",
"1285 381 LINE",
"1135 314 LINE",
"1154 392 LINE SMOOTH",
"1208 613 OFFCURVE",
"1246 1056 OFFCURVE",
"1255 1105 CURVE",
"1208 1146 OFFCURVE",
"1151 1163 OFFCURVE",
"1090 1163 CURVE SMOOTH",
"965 1163 OFFCURVE",
"830 1091 OFFCURVE",
"770 1018 CURVE",
"901 497 LINE",
"808 235 OFFCURVE",
"807 249 OFFCURVE",
"807 212 CURVE SMOOTH",
"807 104 OFFCURVE",
"995 -20 OFFCURVE",
"1089 -20 CURVE SMOOTH"
);
}
);
width = 1359;
}
);
unicode = FB01;
},
{
glyphname = fl;
lastChange = "2022-05-20 00:37:12 +0000";
layers = (
{
layerId = "ED69ACE7-BE83-49AD-8DAF-057B7A1FF3CB";
paths = (
{
closed = 1;
nodes = (
"296 -431 OFFCURVE",
"450 -328 OFFCURVE",
"469 -214 CURVE",
"479 29 OFFCURVE",
"462 431 OFFCURVE",
"443 792 CURVE",
"488 768 OFFCURVE",
"576 728 OFFCURVE",
"659 731 CURVE",
"691 778 OFFCURVE",
"749 1000 OFFCURVE",
"685 1098 CURVE",
"425 1021 LINE",
"406 1326 LINE",
"448 1268 OFFCURVE",
"636 1172 OFFCURVE",
"825 1177 CURVE",
"895 1242 OFFCURVE",
"935 1436 OFFCURVE",
"898 1510 CURVE",
"773 1510 OFFCURVE",
"531 1581 OFFCURVE",
"377 1613 CURVE",
"124 1510 OFFCURVE",
"36 1300 OFFCURVE",
"19 1262 CURVE",
"20 1078 OFFCURVE",
"158 305 OFFCURVE",
"201 -143 CURVE",
"-2 -112 LINE {name = hr00;}",
"-23 -172 OFFCURVE",
"-38 -212 OFFCURVE",
"-36 -288 CURVE",
"-3 -334 OFFCURVE",
"62 -416 OFFCURVE",
"181 -438 CURVE"
);
},
{
closed = 1;
nodes = (
"1223 -20 OFFCURVE",
"1338 138 OFFCURVE",
"1376 254 CURVE",
"1296 381 LINE",
"1153 314 LINE",
"1212 919 OFFCURVE",
"1238 1250 OFFCURVE",
"1249 1566 CURVE",
"1206 1601 OFFCURVE",
"1151 1614 OFFCURVE",
"1094 1613 CURVE SMOOTH",
"996 1612 OFFCURVE",
"845 1547 OFFCURVE",
"781 1466 CURVE",
"776 1437 OFFCURVE",
"833 921 OFFCURVE",
"893 606 CURVE",
"824 249 LINE SMOOTH",
"813 192 OFFCURVE",
"829 161 OFFCURVE",
"849 138 CURVE SMOOTH",
"908 68 OFFCURVE",
"1005 -20 OFFCURVE",
"1097 -20 CURVE SMOOTH"
);
}
);
width = 1370;
}
);
unicode = FB02;
},
{
glyphname = pi;
lastChange = "2022-05-20 00:37:12 +0000";
layers = (
{
layerId = "ED69ACE7-BE83-49AD-8DAF-057B7A1FF3CB";
paths = (
{
closed = 1;
nodes = (
"342 901 LINE",
"1048 829 LINE",
"1318 768 OFFCURVE",
"1402 749 OFFCURVE",
"1470 749 CURVE",
"1602 839 OFFCURVE",
"1611 1135 OFFCURVE",
"1479 1204 CURVE",
"1201 1093 LINE {name = hr01;}",
"311 1204 LINE",
"193 1180 OFFCURVE",
"86 1120 OFFCURVE",
"27 1048 CURVE {name = hr02;}",
"-22 944 OFFCURVE",
"80 686 OFFCURVE",
"114 583 CURVE",
"180 565 OFFCURVE",
"256 563 OFFCURVE",
"337 582 CURVE"
);
},
{
closed = 1;
nodes = (
"697 -20 OFFCURVE",
"765 -10 OFFCURVE",
"804 16 CURVE",
"794 186 OFFCURVE",
"771 348 OFFCURVE",
"741 495 CURVE",
"783 1011 LINE",
"409 1019 LINE",
"478 404 LINE",
"434 275 OFFCURVE",
"399 167 OFFCURVE",
"391 54 CURVE",
"439 9 OFFCURVE",
"526 -20 OFFCURVE",
"633 -20 CURVE SMOOTH"
);
},
{
closed = 1;
nodes = (
"1338 -20 OFFCURVE",
"1431 158 OFFCURVE",
"1468 256 CURVE",
"1382 381 LINE",
"1204 309 LINE",
"1241 521 OFFCURVE",
"1267 734 OFFCURVE",
"1285 946 CURVE",
"796 944 LINE",
"929 887 LINE",
"906 611 OFFCURVE",
"911 249 OFFCURVE",
"913 212 CURVE SMOOTH",
"919 104 OFFCURVE",
"1113 -20 OFFCURVE",
"1207 -20 CURVE SMOOTH"
);
}
);
width = 1617;
}
);
unicode = 03C0;
},
{
glyphname = zero;
lastChange = "2022-05-20 00:37:12 +0000";
layers = (
{
layerId = "ED69ACE7-BE83-49AD-8DAF-057B7A1FF3CB";
paths = (
{
closed = 1;
nodes = (
"935 -20 OFFCURVE",
"1082 253 OFFCURVE",
"1087 581 CURVE SMOOTH",
"1093 915 OFFCURVE",
"990 1185 OFFCURVE",
"588 1185 CURVE SMOOTH",
"210 1185 OFFCURVE",
"77 915 OFFCURVE",
"71 581 CURVE SMOOTH {name = hr00;}",
"66 249 OFFCURVE",
"189 -20 OFFCURVE",
"567 -20 CURVE SMOOTH"
);
},
{
closed = 1;
nodes = (
"559 238 OFFCURVE",
"500 260 OFFCURVE",
"455 290 CURVE",
"435 391 OFFCURVE",
"425 495 OFFCURVE",
"425 588 CURVE SMOOTH",
"425 677 OFFCURVE",
"434 762 OFFCURVE",
"453 850 CURVE",
"522 883 LINE",
"685 826 LINE",
"708 731 OFFCURVE",
"718 610 OFFCURVE",
"718 513 CURVE SMOOTH",
"718 433 OFFCURVE",
"710 354 OFFCURVE",
"694 265 CURVE",
"632 222 LINE"
);
}
);
width = 1158;
}
);
unicode = 0030;
},
{
glyphname = one;
lastChange = "2022-05-20 00:37:12 +0000";
layers = (
{
layerId = "ED69ACE7-BE83-49AD-8DAF-057B7A1FF3CB";
paths = (
{
closed = 1;
nodes = (
"523 -19 OFFCURVE",
"586 -8 OFFCURVE",
"626 22 CURVE",
"606 182 OFFCURVE",
"560 314 OFFCURVE",
"542 371 CURVE",
"591 588 OFFCURVE",
"623 894 OFFCURVE",
"630 1058 CURVE",
"579 1104 OFFCURVE",
"523 1145 OFFCURVE",
"464 1180 CURVE {name = hr00;}",
"280 1139 OFFCURVE",
"99 1005 OFFCURVE",
"3 884 CURVE",
"72 735 LINE",
"263 768 LINE",
"293 565 LINE",
"216 22 LINE",
"257 -7 OFFCURVE",
"389 -21 OFFCURVE",
"460 -20 CURVE SMOOTH"
);
}
);
width = 748;
}
);
unicode = 0031;
},
{
glyphname = two;
lastChange = "2022-05-20 00:37:12 +0000";
layers = (
{
layerId = "ED69ACE7-BE83-49AD-8DAF-057B7A1FF3CB";
paths = (
{
closed = 1;
nodes = (
"499 150 LINE",
"592 338 LINE",
"560 349 LINE",
"559 367 LINE {name = hr01;}",
"669 429 OFFCURVE",
"941 619 OFFCURVE",
"1035 743 CURVE",
"1054 855 OFFCURVE",
"1039 945 OFFCURVE",
"1022 1012 CURVE",
"906 1134 OFFCURVE",
"665 1201 OFFCURVE",
"548 1208 CURVE",
"429 1208 OFFCURVE",
"202 1102 OFFCURVE",
"127 1028 CURVE",
"64 919 OFFCURVE",
"143 680 OFFCURVE",
"185 595 CURVE",
"217 586 OFFCURVE",
"246 580 OFFCURVE",
"275 580 CURVE SMOOTH",
"309 580 OFFCURVE",
"345 586 OFFCURVE",
"387 601 CURVE",
"424 878 LINE",
"455 890 LINE",
"664 815 LINE",
"667 762 LINE",
"613 681 OFFCURVE",
"434 477 OFFCURVE",
"344 392 CURVE",
"487 130 LINE"
);
},
{
closed = 1;
nodes = (
"899 -20 OFFCURVE",
"963 12 OFFCURVE",
"1014 80 CURVE SMOOTH",
"1102 200 OFFCURVE",
"1071 347 OFFCURVE",
"1036 441 CURVE",
"888 469 LINE",
"798 327 LINE",
"453 371 LINE",
"376 404 LINE",
"314 457 OFFCURVE",
"274 479 OFFCURVE",
"232 491 CURVE",
"177 473 OFFCURVE",
"126 443 OFFCURVE",
"81 403 CURVE",
"75 268 OFFCURVE",
"144 37 OFFCURVE",
"233 -17 CURVE",
"320 -14 OFFCURVE",
"391 28 OFFCURVE",
"442 105 CURVE SMOOTH",
"449 115 OFFCURVE",
"458 131 OFFCURVE",
"469 150 CURVE",
"537 80 OFFCURVE",
"705 -20 OFFCURVE",
"829 -20 CURVE SMOOTH {name = hr02;}"
);
}
);
width = 1135;
}
);
unicode = 0032;
},
{
glyphname = three;
lastChange = "2022-05-20 00:37:12 +0000";
layers = (
{
layerId = "ED69ACE7-BE83-49AD-8DAF-057B7A1FF3CB";
paths = (
{
closed = 1;
nodes = (
"592 -291 OFFCURVE",
"728 -264 OFFCURVE",
"810 -217 CURVE SMOOTH {name = hr02;}",
"949 -137 OFFCURVE",
"1039 19 OFFCURVE",
"1039 258 CURVE",
"1041 359 OFFCURVE",
"815 483 OFFCURVE",
"608 508 CURVE",
"533 507 OFFCURVE",
"467 482 OFFCURVE",
"399 465 CURVE",
"358 353 OFFCURVE",
"379 388 OFFCURVE",
"430 365 CURVE SMOOTH",
"516 326 OFFCURVE",
"628 280 OFFCURVE",
"683 191 CURVE",
"675 137 OFFCURVE",
"657 44 OFFCURVE",
"633 -3 CURVE",
"596 -10 OFFCURVE",
"559 -15 OFFCURVE",
"523 -15 CURVE SMOOTH",
"378 -13 OFFCURVE",
"244 46 OFFCURVE",
"121 107 CURVE",
"78 71 OFFCURVE",
"54 34 OFFCURVE",
"54 -24 CURVE SMOOTH",
"54 -40 OFFCURVE",
"56 -59 OFFCURVE",
"60 -79 CURVE",
"143 -199 OFFCURVE",
"289 -291 OFFCURVE",
"494 -291 CURVE SMOOTH"
);
},
{
closed = 1;
nodes = (
"357 203 OFFCURVE",
"456 274 OFFCURVE",
"495 347 CURVE",
"531 379 OFFCURVE",
"494 350 OFFCURVE",
"531 391 CURVE",
"426 520 LINE {name = hr01;}",
"275 566 LINE",
"183 530 LINE",
"99 393 OFFCURVE",
"193 210 OFFCURVE",
"286 189 CURVE"
);
},
{
closed = 1;
nodes = (
"447 429 LINE",
"521 467 OFFCURVE",
"763 533 OFFCURVE",
"940 740 CURVE",
"962 853 OFFCURVE",
"953 937 OFFCURVE",
"930 1012 CURVE",
"841 1104 OFFCURVE",
"571 1208 OFFCURVE",
"481 1208 CURVE SMOOTH",
"457 1208 OFFCURVE",
"400 1194 OFFCURVE",
"336 1172 CURVE",
"233 1141 OFFCURVE",
"114 1091 OFFCURVE",
"60 1028 CURVE",
"-3 919 OFFCURVE",
"53 795 OFFCURVE",
"87 692 CURVE",
"166 658 OFFCURVE",
"241 664 OFFCURVE",
"320 691 CURVE",
"348 874 LINE",
"379 890 LINE",
"595 810 LINE",
"598 787 LINE",
"544 706 OFFCURVE",
"367 477 OFFCURVE",
"277 392 CURVE"
);
}
);
width = 1075;
}
);
unicode = 0033;
},
{
glyphname = four;
lastChange = "2022-05-20 00:37:12 +0000";
layers = (
{
layerId = "ED69ACE7-BE83-49AD-8DAF-057B7A1FF3CB";
paths = (
{
closed = 1;
nodes = (
"896 333 LINE",
"435 366 LINE",
"702 1126 LINE {name = hr00;}",
"665 1174 OFFCURVE",
"563 1181 OFFCURVE",
"521 1181 CURVE SMOOTH",
"417 1181 OFFCURVE",
"307 1147 OFFCURVE",
"245 1066 CURVE",
"160 184 LINE",
"163 181 LINE",
"160 177 LINE",
"164 174 LINE",
"791 66 LINE"
);
},
{
closed = 1;
nodes = (
"242 53 OFFCURVE",
"341 124 OFFCURVE",
"380 197 CURVE",
"416 229 OFFCURVE",
"379 200 OFFCURVE",
"416 241 CURVE",
"311 370 LINE",
"68 400 LINE",
"-16 263 OFFCURVE",
"78 60 OFFCURVE",
"171 39 CURVE"
);
},
{
closed = 1;
nodes = (
"972 -292 OFFCURVE",
"1035 -281 OFFCURVE",
"1075 -251 CURVE",
"1055 -91 OFFCURVE",
"1009 137 OFFCURVE",
"991 194 CURVE",
"1054 472 OFFCURVE",
"1087 866 OFFCURVE",
"1078 940 CURVE",
"1055 950 OFFCURVE",
"1029 955 OFFCURVE",
"1003 955 CURVE SMOOTH",
"779 955 OFFCURVE",
"631 776 OFFCURVE",
"652 777 CURVE",
"752 292 LINE",
"675 -251 LINE",
"716 -280 OFFCURVE",
"838 -294 OFFCURVE",
"909 -293 CURVE SMOOTH"
);
}
);
width = 1198;
}
);
unicode = 0034;
},
{
glyphname = five;
lastChange = "2022-05-20 00:37:12 +0000";
layers = (
{
layerId = "ED69ACE7-BE83-49AD-8DAF-057B7A1FF3CB";
paths = (
{
closed = 1;
nodes = (
"836 -291 OFFCURVE",
"995 -64 OFFCURVE",
"995 237 CURVE SMOOTH",
"995 462 OFFCURVE",
"871 658 OFFCURVE",
"638 654 CURVE {name = hr01;}",
"505 618 OFFCURVE",
"360 445 OFFCURVE",
"316 400 CURVE {name = hr02;}",
"313 388 OFFCURVE",
"309 384 OFFCURVE",
"304 384 CURVE SMOOTH",
"295 384 OFFCURVE",
"286 400 OFFCURVE",
"282 400 CURVE SMOOTH",
"281 400 OFFCURVE",
"280 399 OFFCURVE",
"280 396 CURVE SMOOTH",
"282 371 OFFCURVE",
"309 338 OFFCURVE",
"343 338 CURVE",
"599 346 LINE",
"621 326 OFFCURVE",
"637 241 OFFCURVE",
"637 160 CURVE SMOOTH",
"637 75 OFFCURVE",
"616 -5 OFFCURVE",
"595 -17 CURVE",
"569 -21 OFFCURVE",
"537 -23 OFFCURVE",
"512 -23 CURVE SMOOTH",
"369 -23 OFFCURVE",
"239 44 OFFCURVE",
"110 107 CURVE",
"71 72 OFFCURVE",
"49 37 OFFCURVE",
"49 -17 CURVE SMOOTH",
"49 -34 OFFCURVE",
"50 -56 OFFCURVE",
"57 -79 CURVE",
"144 -199 OFFCURVE",
"292 -291 OFFCURVE",
"497 -291 CURVE SMOOTH"
);
},
{
closed = 1;
nodes = (
"300 159 OFFCURVE",
"410 288 OFFCURVE",
"439 361 CURVE",
"335 487 LINE",
"92 501 LINE",
"68 468 OFFCURVE",
"59 429 OFFCURVE",
"61 390 CURVE",
"64 288 OFFCURVE",
"150 164 OFFCURVE",
"220 143 CURVE"
);
},
{
closed = 1;
nodes = (
"479 435 LINE",
"400 500 LINE",
"429 865 LINE",
"543 805 OFFCURVE",
"780 755 OFFCURVE",
"853 751 CURVE",
"888 769 OFFCURVE",
"964 889 OFFCURVE",
"964 1026 CURVE SMOOTH",
"964 1083 OFFCURVE",
"952 1144 OFFCURVE",
"917 1205 CURVE",
"542 1135 LINE",
"481 1145 OFFCURVE",
"283 1194 OFFCURVE",
"228 1205 CURVE",
"148 1166 OFFCURVE",
"86 1048 OFFCURVE",
"83 962 CURVE",
"265 389 LINE"
);
}
);
width = 1049;
}
);
unicode = 0035;
},
{
glyphname = six;
lastChange = "2022-05-20 00:37:12 +0000";
layers = (
{
layerId = "ED69ACE7-BE83-49AD-8DAF-057B7A1FF3CB";
paths = (
{
closed = 1;
nodes = (
"925 -20 OFFCURVE",
"1076 213 OFFCURVE",
"1087 541 CURVE SMOOTH",
"1095 782 OFFCURVE",
"1040 930 OFFCURVE",
"791 926 CURVE SMOOTH",
"641 924 OFFCURVE",
"482 762 OFFCURVE",
"392 662 CURVE",
"370 674 LINE",
"512 906 OFFCURVE",
"765 1185 OFFCURVE",
"930 1365 CURVE",
"884 1464 OFFCURVE",
"849 1509 OFFCURVE",
"769 1549 CURVE",
"526 1373 OFFCURVE",
"164 1069 OFFCURVE",
"73 682 CURVE",
"49 279 OFFCURVE",
"183 -20 OFFCURVE",
"557 -20 CURVE SMOOTH"
);
},
{
closed = 1;
nodes = (
"577 235 OFFCURVE",
"491 271 OFFCURVE",
"451 307 CURVE",
"427 389 OFFCURVE",
"421 399 OFFCURVE",
"420 501 CURVE",
"498 568 OFFCURVE",
"581 629 OFFCURVE",
"680 654 CURVE {name = hr00;}",
"712 513 OFFCURVE",
"717 405 OFFCURVE",
"690 272 CURVE",
"627 229 LINE"
);
}
);
width = 1158;
}
);
unicode = 0036;
},
{
glyphname = seven;
lastChange = "2022-05-20 00:37:12 +0000";
layers = (
{
layerId = "ED69ACE7-BE83-49AD-8DAF-057B7A1FF3CB";
paths = (
{
closed = 1;
nodes = (
"490 -292 OFFCURVE",
"516 -287 OFFCURVE",
"552 -275 CURVE",
"715 284 LINE",
"885 790 LINE",
"1007 770 LINE {name = hr00;}",
"1081 928 OFFCURVE",
"1047 1129 OFFCURVE",
"913 1203 CURVE",
"830 1177 OFFCURVE",
"762 1135 OFFCURVE",
"689 1077 CURVE",
"585 1124 OFFCURVE",
"489 1174 OFFCURVE",
"340 1203 CURVE",
"298 1205 OFFCURVE",
"72 1109 OFFCURVE",
"49 995 CURVE",
"18 830 OFFCURVE",
"96 592 OFFCURVE",
"170 511 CURVE",
"345 531 LINE",
"372 858 LINE",
"611 823 LINE",
"458 365 LINE",
"171 -162 LINE",
"203 -242 OFFCURVE",
"328 -286 OFFCURVE",
"442 -290 CURVE SMOOTH"
);
}
);
width = 1050;
}
);
unicode = 0037;
},
{
glyphname = eight;
lastChange = "2022-05-20 00:37:12 +0000";
layers = (
{
layerId = "ED69ACE7-BE83-49AD-8DAF-057B7A1FF3CB";
paths = (
{
closed = 1;
nodes = (
"696 3 OFFCURVE",
"896 73 OFFCURVE",
"995 185 CURVE",
"1045 306 OFFCURVE",
"1040 422 OFFCURVE",
"1015 538 CURVE",
"731 776 LINE {name = hr01;}",
"848 867 OFFCURVE",
"970 1017 OFFCURVE",
"1012 1107 CURVE",
"1025 1220 OFFCURVE",
"1006 1309 OFFCURVE",
"985 1375 CURVE",
"863 1491 OFFCURVE",
"619 1546 OFFCURVE",
"502 1547 CURVE",
"383 1541 OFFCURVE",
"162 1424 OFFCURVE",
"91 1346 CURVE",
"33 1234 OFFCURVE",
"78 1004 OFFCURVE",
"124 921 CURVE",
"124 920 LINE",
"323 751 LINE",
"209 662 OFFCURVE",
"84 544 OFFCURVE",
"60 406 CURVE {name = hr02;}",
"47 293 OFFCURVE",
"66 204 OFFCURVE",
"87 138 CURVE",
"209 22 OFFCURVE",
"453 -33 OFFCURVE",
"570 -34 CURVE"
);
},
{
closed = 1;
nodes = (
"546 269 OFFCURVE",
"448 294 OFFCURVE",
"355 341 CURVE",
"347 433 LINE",
"367 464 OFFCURVE",
"438 581 OFFCURVE",
"481 631 CURVE",
"696 418 LINE",
"687 296 LINE",
"647 278 LINE"
);
},
{
closed = 1;
nodes = (
"571 914 OFFCURVE",
"534 951 OFFCURVE",
"507 980 CURVE SMOOTH",
"467 1023 OFFCURVE",
"415 1077 OFFCURVE",
"376 1115 CURVE",
"386 1218 LINE",
"425 1236 LINE",
"510 1235 OFFCURVE",
"583 1210 OFFCURVE",
"649 1169 CURVE",
"636 1046 OFFCURVE",
"624 985 OFFCURVE",
"589 896 CURVE"
);
}
);
width = 1087;
}
);
unicode = 0038;
},
{
glyphname = nine;
lastChange = "2022-05-20 00:37:12 +0000";
layers = (
{
layerId = "ED69ACE7-BE83-49AD-8DAF-057B7A1FF3CB";
paths = (
{
closed = 1;
nodes = (
"640 -115 OFFCURVE",
"989 141 OFFCURVE",
"1080 528 CURVE",
"1104 931 OFFCURVE",
"970 1230 OFFCURVE",
"596 1230 CURVE SMOOTH",
"228 1230 OFFCURVE",
"38 997 OFFCURVE",
"66 669 CURVE SMOOTH",
"86 429 OFFCURVE",
"219 282 OFFCURVE",
"362 284 CURVE SMOOTH",
"512 286 OFFCURVE",
"671 448 OFFCURVE",
"761 548 CURVE",
"783 536 LINE",
"641 304 OFFCURVE",
"401 73 OFFCURVE",
"236 -107 CURVE",
"282 -206 OFFCURVE",
"317 -251 OFFCURVE",
"397 -291 CURVE"
);
},
{
closed = 1;
nodes = (
"441 668 OFFCURVE",
"436 805 OFFCURVE",
"463 938 CURVE",
"526 981 LINE",
"576 975 OFFCURVE",
"662 939 OFFCURVE",
"702 903 CURVE",
"726 821 OFFCURVE",
"732 782 OFFCURVE",
"733 680 CURVE",
"473 527 LINE {name = hr00;}"
);
}
);
width = 1153;
}
);
unicode = 0039;
},
{
glyphname = zero.lf;
lastChange = "2022-05-20 03:00:12 +0000";
layers = (
{
layerId = "ED69ACE7-BE83-49AD-8DAF-057B7A1FF3CB";
paths = (
{
closed = 1;
nodes = (
"935 -20 OFFCURVE",
"1082 258 OFFCURVE",
"1087 736 CURVE SMOOTH",
"1093 1230 OFFCURVE",
"990 1500 OFFCURVE",
"588 1500 CURVE SMOOTH",
"210 1500 OFFCURVE",
"77 1230 OFFCURVE",
"71 736 CURVE SMOOTH {name = hr00;}",
"66 254 OFFCURVE",
"189 -20 OFFCURVE",
"567 -20 CURVE SMOOTH"
);
},
{
closed = 1;
nodes = (
"559 238 OFFCURVE",
"500 260 OFFCURVE",
"455 290 CURVE",
"435 391 OFFCURVE",
"425 500 OFFCURVE",
"425 743 CURVE SMOOTH",
"425 992 OFFCURVE",
"434 1077 OFFCURVE",
"453 1165 CURVE",
"522 1198 LINE",
"685 1141 LINE",
"708 1046 OFFCURVE",
"718 925 OFFCURVE",
"718 668 CURVE SMOOTH",
"718 438 OFFCURVE",
"710 354 OFFCURVE",
"694 265 CURVE",
"632 222 LINE"
);
}
);
width = 1158;
}
);
},
{
glyphname = one.lf;
lastChange = "2022-05-20 03:00:41 +0000";
layers = (
{
layerId = "ED69ACE7-BE83-49AD-8DAF-057B7A1FF3CB";
paths = (
{
closed = 1;
nodes = (
"523 -19 OFFCURVE",
"586 -8 OFFCURVE",
"626 22 CURVE",
"606 182 OFFCURVE",
"560 524 OFFCURVE",
"542 581 CURVE",
"591 798 OFFCURVE",
"623 1209 OFFCURVE",
"630 1373 CURVE",
"579 1419 OFFCURVE",
"523 1460 OFFCURVE",
"464 1495 CURVE {name = hr00;}",
"280 1454 OFFCURVE",
"99 1320 OFFCURVE",
"3 1199 CURVE",
"72 1050 LINE",
"263 1083 LINE",
"293 775 LINE",
"216 22 LINE",
"257 -7 OFFCURVE",
"389 -21 OFFCURVE",
"460 -20 CURVE SMOOTH"
);
}
);
width = 748;
}
);
},
{
glyphname = two.lf;
lastChange = "2022-05-20 03:01:20 +0000";
layers = (
{
layerId = "ED69ACE7-BE83-49AD-8DAF-057B7A1FF3CB";
paths = (
{
closed = 1;
nodes = (
"459 150 LINE",
"592 338 LINE",
"560 349 LINE",
"499 357 LINE {name = hr01;}",
"609 419 OFFCURVE",
"941 911 OFFCURVE",
"1035 1035 CURVE",
"1054 1147 OFFCURVE",
"1039 1237 OFFCURVE",
"1022 1304 CURVE",
"906 1426 OFFCURVE",
"665 1493 OFFCURVE",
"548 1500 CURVE",
"429 1500 OFFCURVE",
"202 1394 OFFCURVE",
"127 1320 CURVE",
"64 1211 OFFCURVE",
"143 972 OFFCURVE",
"185 887 CURVE",
"217 878 OFFCURVE",
"246 872 OFFCURVE",
"275 872 CURVE SMOOTH",
"309 872 OFFCURVE",
"345 878 OFFCURVE",
"387 893 CURVE",
"424 1170 LINE",
"497 1198 LINE",
"664 1107 LINE",
"667 1054 LINE",
"613 973 OFFCURVE",
"374 467 OFFCURVE",
"284 382 CURVE",
"447 130 LINE"
);
},
{
closed = 1;
nodes = (
"899 -20 OFFCURVE",
"963 12 OFFCURVE",
"1014 80 CURVE SMOOTH",
"1102 200 OFFCURVE",
"1091 408 OFFCURVE",
"1056 502 CURVE",
"908 530 LINE",
"798 327 LINE",
"453 371 LINE",
"376 404 LINE",
"314 457 OFFCURVE",
"274 479 OFFCURVE",
"232 491 CURVE",
"177 473 OFFCURVE",
"126 443 OFFCURVE",
"81 403 CURVE",
"75 268 OFFCURVE",
"144 37 OFFCURVE",
"233 -17 CURVE",
"320 -14 OFFCURVE",
"351 28 OFFCURVE",
"402 105 CURVE SMOOTH",
"409 115 OFFCURVE",
"418 131 OFFCURVE",
"429 150 CURVE",
"497 80 OFFCURVE",
"705 -20 OFFCURVE",
"829 -20 CURVE SMOOTH {name = hr02;}"
);
}
);
width = 1135;
}
);
},
{
glyphname = four.lf;
lastChange = "2022-05-20 03:01:54 +0000";
layers = (
{
layerId = "ED69ACE7-BE83-49AD-8DAF-057B7A1FF3CB";
paths = (
{
closed = 1;
nodes = (
"896 619 LINE",
"435 652 LINE",
"702 1446 LINE {name = hr00;}",
"665 1494 OFFCURVE",
"563 1501 OFFCURVE",
"521 1501 CURVE SMOOTH",
"417 1501 OFFCURVE",
"307 1467 OFFCURVE",
"245 1386 CURVE",
"160 470 LINE",
"163 467 LINE",
"160 463 LINE",
"164 460 LINE",
"791 352 LINE"
);
},
{
closed = 1;
nodes = (
"242 339 OFFCURVE",
"341 410 OFFCURVE",
"380 483 CURVE",
"416 515 OFFCURVE",
"379 486 OFFCURVE",
"416 527 CURVE",
"311 656 LINE",
"68 686 LINE",
"-16 549 OFFCURVE",
"78 346 OFFCURVE",
"171 325 CURVE"
);
},
{
closed = 1;
nodes = (
"972 -6 OFFCURVE",
"1035 5 OFFCURVE",
"1075 35 CURVE",
"1055 195 OFFCURVE",
"1009 423 OFFCURVE",
"991 480 CURVE",
"1054 758 OFFCURVE",
"1087 1102 OFFCURVE",
"1078 1176 CURVE",
"1055 1186 OFFCURVE",
"1029 1191 OFFCURVE",
"1003 1191 CURVE SMOOTH",
"779 1191 OFFCURVE",
"631 1012 OFFCURVE",
"652 1013 CURVE",
"752 578 LINE",
"675 35 LINE",
"716 6 OFFCURVE",
"838 -8 OFFCURVE",
"909 -7 CURVE SMOOTH"
);
}
);
width = 1198;
}
);
},
{
glyphname = five.lf;
lastChange = "2022-05-20 03:02:10 +0000";
layers = (
{
layerId = "ED69ACE7-BE83-49AD-8DAF-057B7A1FF3CB";
paths = (
{
closed = 1;
nodes = (
"836 -12 OFFCURVE",
"995 215 OFFCURVE",
"995 516 CURVE SMOOTH",
"995 741 OFFCURVE",
"871 937 OFFCURVE",
"638 933 CURVE {name = hr01;}",
"505 897 OFFCURVE",
"360 724 OFFCURVE",
"316 679 CURVE {name = hr02;}",
"313 667 OFFCURVE",
"309 663 OFFCURVE",
"304 663 CURVE SMOOTH",
"295 663 OFFCURVE",
"286 679 OFFCURVE",
"282 679 CURVE SMOOTH",
"281 679 OFFCURVE",
"280 678 OFFCURVE",
"280 675 CURVE SMOOTH",
"282 650 OFFCURVE",
"309 617 OFFCURVE",
"343 617 CURVE",
"599 625 LINE",
"621 605 OFFCURVE",
"637 520 OFFCURVE",
"637 439 CURVE SMOOTH",
"637 354 OFFCURVE",
"616 274 OFFCURVE",
"595 262 CURVE",
"569 258 OFFCURVE",
"537 256 OFFCURVE",
"512 256 CURVE SMOOTH",
"369 256 OFFCURVE",
"239 323 OFFCURVE",
"110 386 CURVE",
"71 351 OFFCURVE",
"49 316 OFFCURVE",
"49 262 CURVE SMOOTH",
"49 245 OFFCURVE",
"50 223 OFFCURVE",
"57 200 CURVE",
"144 80 OFFCURVE",
"292 -12 OFFCURVE",
"497 -12 CURVE SMOOTH"
);
},
{
closed = 1;
nodes = (
"300 438 OFFCURVE",
"410 567 OFFCURVE",
"439 640 CURVE",
"335 766 LINE",
"92 780 LINE",
"68 747 OFFCURVE",
"59 708 OFFCURVE",
"61 669 CURVE",
"64 567 OFFCURVE",
"150 443 OFFCURVE",
"220 422 CURVE"
);
},
{
closed = 1;
nodes = (
"479 714 LINE",
"400 779 LINE",
"429 1160 LINE",
"543 1100 OFFCURVE",
"780 1050 OFFCURVE",
"853 1046 CURVE",
"888 1064 OFFCURVE",
"964 1184 OFFCURVE",
"964 1321 CURVE SMOOTH",
"964 1378 OFFCURVE",
"952 1439 OFFCURVE",
"917 1500 CURVE",
"542 1430 LINE",
"481 1440 OFFCURVE",
"283 1489 OFFCURVE",
"228 1500 CURVE",
"148 1461 OFFCURVE",
"86 1343 OFFCURVE",
"83 1257 CURVE",
"265 668 LINE"
);
}
);
width = 1049;
}
);
},
{
glyphname = seven.lf;
lastChange = "2022-05-20 02:59:41 +0000";
layers = (
{
layerId = "ED69ACE7-BE83-49AD-8DAF-057B7A1FF3CB";
paths = (
{
closed = 1;
nodes = (
"490 -5 OFFCURVE",
"516 0 OFFCURVE",
"552 12 CURVE",
"715 571 LINE",
"885 1077 LINE",
"1007 1057 LINE {name = hr00;}",
"1081 1215 OFFCURVE",
"1047 1416 OFFCURVE",
"913 1490 CURVE",
"830 1464 OFFCURVE",
"762 1422 OFFCURVE",
"689 1364 CURVE",
"585 1411 OFFCURVE",
"489 1461 OFFCURVE",
"340 1490 CURVE",
"298 1492 OFFCURVE",
"72 1396 OFFCURVE",
"49 1282 CURVE",
"18 1117 OFFCURVE",
"96 879 OFFCURVE",
"170 798 CURVE",
"345 818 LINE",
"372 1145 LINE",
"611 1110 LINE",
"458 652 LINE",
"171 125 LINE",
"203 45 OFFCURVE",
"328 1 OFFCURVE",
"442 -3 CURVE SMOOTH"
);
}
);
width = 1050;
}
);
},
{
glyphname = threesuperior;
lastChange = "2022-05-20 00:37:12 +0000";
layers = (
{
layerId = "ED69ACE7-BE83-49AD-8DAF-057B7A1FF3CB";
paths = (
{
closed = 1;
nodes = (
"384 1022 LINE",
"394 1027 OFFCURVE",
"409 1034 OFFCURVE",
"426 1040 CURVE",
"487 1057 LINE",
"557 1095 OFFCURVE",
"677 1166 OFFCURVE",
"793 1267 CURVE",
"799 1301 OFFCURVE",
"802 1331 OFFCURVE",
"802 1358 CURVE SMOOTH",
"802 1399 OFFCURVE",
"796 1456 OFFCURVE",
"785 1491 CURVE",
"721 1558 OFFCURVE",
"466 1614 OFFCURVE",
"401 1614 CURVE SMOOTH",
"384 1614 OFFCURVE",
"339 1603 OFFCURVE",
"296 1589 CURVE",
"224 1566 OFFCURVE",
"138 1530 OFFCURVE",
"98 1483 CURVE",
"82 1454 OFFCURVE",
"75 1425 OFFCURVE",
"75 1397 CURVE SMOOTH",
"75 1349 OFFCURVE",
"91 1311 OFFCURVE",
"106 1269 CURVE",
"106 1271 LINE",
"116 1239 LINE",
"152 1223 OFFCURVE",
"182 1217 OFFCURVE",
"209 1217 CURVE SMOOTH",
"240 1217 OFFCURVE",
"273 1224 OFFCURVE",
"309 1237 CURVE",
"315 1276 OFFCURVE",
"323 1315 OFFCURVE",
"329 1355 CURVE",
"333 1356 LINE",
"513 1300 LINE",
"469 1239 OFFCURVE",
"314 1074 OFFCURVE",
"227 992 CURVE"
);
},
{
closed = 1;
nodes = (
"540 522 OFFCURVE",
"637 541 OFFCURVE",
"695 575 CURVE SMOOTH",
"796 633 OFFCURVE",
"860 742 OFFCURVE",
"861 913 CURVE",
"863 991 OFFCURVE",
"721 1066 OFFCURVE",
"571 1084 CURVE",
"529 1084 OFFCURVE",
"408 1103 OFFCURVE",
"373 1093 CURVE",
"329 1081 LINE",
"297 993 OFFCURVE",
"304 992 OFFCURVE",
"342 985 CURVE SMOOTH",
"346 984 OFFCURVE",
"351 983 OFFCURVE",
"358 979 CURVE",
"375 971 LINE",
"374 972 LINE",
"426 949 OFFCURVE",
"568 900 OFFCURVE",
"599 852 CURVE",
"594 820 OFFCURVE",
"584 782 OFFCURVE",
"572 753 CURVE",
"550 749 OFFCURVE",
"529 746 OFFCURVE",
"511 746 CURVE SMOOTH",
"417 748 OFFCURVE",
"242 773 OFFCURVE",
"154 817 CURVE",
"113 782 OFFCURVE",
"90 770 OFFCURVE",
"90 724 CURVE SMOOTH",
"90 710 OFFCURVE",
"91 664 OFFCURVE",
"94 651 CURVE",
"157 561 OFFCURVE",
"323 522 OFFCURVE",
"470 522 CURVE SMOOTH"
);
},
{
closed = 1;
nodes = (
"322 867 OFFCURVE",
"395 918 OFFCURVE",
"427 971 CURVE",
"442 985 OFFCURVE",
"442 991 OFFCURVE",
"442 997 CURVE SMOOTH",
"442 996 OFFCURVE",
"444 996 OFFCURVE",
"461 1015 CURVE",
"375 1119 LINE {name = hr00;}",
"259 1154 LINE",
"185 1126 LINE",
"165 1093 OFFCURVE",
"156 1059 OFFCURVE",
"156 1029 CURVE SMOOTH",
"156 947 OFFCURVE",
"213 869 OFFCURVE",
"269 856 CURVE"
);
}
);
width = 949;
}
);
unicode = 00B3;
},
{
glyphname = fraction;
lastChange = "2022-05-20 00:37:12 +0000";
layers = (
{
layerId = "ED69ACE7-BE83-49AD-8DAF-057B7A1FF3CB";
paths = (
{
closed = 1;
nodes = (
"1360 1412 LINE {name = hr00;}",
"1306 1487 OFFCURVE",
"1192 1572 OFFCURVE",
"1114 1576 CURVE",
"48 35 LINE",
"62 -32 OFFCURVE",
"134 -90 OFFCURVE",
"211 -112 CURVE"
);
}
);
width = 1388;
}
);
unicode = 2044;
},
{
glyphname = onequarter;
lastChange = "2022-05-20 00:37:12 +0000";
layers = (
{
components = (
{
name = one;
transform = "{0.876, 0, 0, 0.875, 145, 781}";
},
{
name = fraction;
transform = "{1, 0, 0, 1, 264, 93}";
}
);
layerId = "ED69ACE7-BE83-49AD-8DAF-057B7A1FF3CB";
paths = (
{
closed = 1;
nodes = (
"1901 477 LINE",
"1521 504 LINE",
"1729 1017 LINE {name = hr00;}",
"1698 1056 OFFCURVE",
"1614 1062 OFFCURVE",
"1580 1062 CURVE SMOOTH",
"1494 1062 OFFCURVE",
"1404 1034 OFFCURVE",
"1353 967 CURVE",
"1295 354 LINE",
"1297 352 LINE",
"1295 349 LINE",
"1298 346 LINE",
"1814 257 LINE"
);
},
{
closed = 1;
nodes = (
"1362 247 OFFCURVE",
"1444 305 OFFCURVE",
"1476 365 CURVE",
"1505 391 OFFCURVE",
"1475 368 OFFCURVE",
"1505 401 CURVE",
"1419 508 LINE",
"1219 532 LINE",
"1150 419 OFFCURVE",
"1227 252 OFFCURVE",
"1304 235 CURVE"
);
},
{
closed = 1;
nodes = (
"1963 -19 OFFCURVE",
"2024 -10 OFFCURVE",
"2057 14 CURVE",
"2040 146 OFFCURVE",
"2003 334 OFFCURVE",
"1988 381 CURVE",
"2040 609 OFFCURVE",
"2066 840 OFFCURVE",
"2058 901 CURVE",
"2039 909 OFFCURVE",
"2018 913 OFFCURVE",
"1997 913 CURVE SMOOTH",
"1812 913 OFFCURVE",
"1723 810 OFFCURVE",
"1705 773 CURVE",
"1782 461 LINE",
"1719 14 LINE",
"1752 -9 OFFCURVE",
"1853 -21 OFFCURVE",
"1911 -20 CURVE SMOOTH"
);
}
);
width = 2198;
}
);
unicode = 00BC;
},
{
glyphname = threequarters;
lastChange = "2022-05-20 00:37:12 +0000";
layers = (
{
components = (
{
name = threesuperior;
transform = "{1, 0, 0, 1, 0, 199}";
},
{
name = fraction;
transform = "{1, 0, 0, 1, 354, 93}";
}
);
layerId = "ED69ACE7-BE83-49AD-8DAF-057B7A1FF3CB";
paths = (
{
closed = 1;
nodes = (
"1986 477 LINE",
"1606 504 LINE",
"1814 1017 LINE {name = hr00;}",
"1783 1056 OFFCURVE",
"1699 1062 OFFCURVE",
"1665 1062 CURVE SMOOTH",
"1579 1062 OFFCURVE",
"1489 1034 OFFCURVE",
"1438 967 CURVE",
"1380 354 LINE",
"1382 352 LINE",
"1380 349 LINE",
"1383 346 LINE",
"1899 257 LINE"
);
},
{
closed = 1;
nodes = (
"1447 247 OFFCURVE",
"1529 305 OFFCURVE",
"1561 365 CURVE",
"1590 391 OFFCURVE",
"1560 368 OFFCURVE",
"1590 401 CURVE",
"1504 508 LINE",
"1304 532 LINE",
"1235 419 OFFCURVE",
"1312 252 OFFCURVE",
"1389 235 CURVE"
);
},
{
closed = 1;
nodes = (
"2048 -19 OFFCURVE",
"2109 -10 OFFCURVE",
"2142 14 CURVE",
"2125 146 OFFCURVE",
"2088 334 OFFCURVE",
"2073 381 CURVE",
"2125 609 OFFCURVE",
"2151 840 OFFCURVE",
"2143 901 CURVE",
"2124 909 OFFCURVE",
"2103 913 OFFCURVE",
"2082 913 CURVE SMOOTH",
"1897 913 OFFCURVE",
"1808 810 OFFCURVE",
"1790 773 CURVE",
"1867 461 LINE",
"1804 14 LINE",
"1837 -9 OFFCURVE",
"1938 -21 OFFCURVE",
"1996 -20 CURVE SMOOTH"
);
}
);
width = 2478;
}
);
unicode = 00BE;
},
{
glyphname = period;
lastChange = "2022-05-20 00:37:12 +0000";
layers = (
{
layerId = "ED69ACE7-BE83-49AD-8DAF-057B7A1FF3CB";
paths = (
{
closed = 1;
nodes = (
"342 -4 OFFCURVE",
"515 119 OFFCURVE",
"546 251 CURVE {name = hr00;}",
"478 346 OFFCURVE",
"372 439 OFFCURVE",
"244 475 CURVE",
"193 441 OFFCURVE",
"31 244 OFFCURVE",
"15 195 CURVE",
"54 83 OFFCURVE",
"148 11 OFFCURVE",
"252 -34 CURVE"
);
}
);
width = 590;
}
);
unicode = 002E;
},
{
glyphname = comma;
lastChange = "2022-05-20 00:37:12 +0000";
layers = (
{
layerId = "ED69ACE7-BE83-49AD-8DAF-057B7A1FF3CB";
paths = (
{
closed = 1;
nodes = (
"185 -203 OFFCURVE",
"478 38 OFFCURVE",
"549 204 CURVE",
"536 257 OFFCURVE",
"465 448 OFFCURVE",
"188 451 CURVE {name = hr00;}",
"-11 -176 LINE",
"110 -244 LINE"
);
}
);
width = 651;
}
);
unicode = 002C;
},
{
glyphname = ellipsis;
lastChange = "2022-05-20 00:37:12 +0000";
layers = (
{
layerId = "ED69ACE7-BE83-49AD-8DAF-057B7A1FF3CB";
paths = (
{
closed = 1;
nodes = (
"1522 -4 OFFCURVE",
"1695 119 OFFCURVE",
"1726 251 CURVE",
"1658 346 OFFCURVE",
"1552 439 OFFCURVE",
"1424 475 CURVE",
"1373 441 OFFCURVE",
"1211 244 OFFCURVE",
"1195 195 CURVE",
"1234 83 OFFCURVE",
"1328 11 OFFCURVE",
"1432 -34 CURVE"
);
},
{
closed = 1;
nodes = (
"342 -4 OFFCURVE",
"515 119 OFFCURVE",
"546 251 CURVE {name = hr00;}",
"478 346 OFFCURVE",
"372 439 OFFCURVE",
"244 475 CURVE",
"193 441 OFFCURVE",
"31 244 OFFCURVE",
"15 195 CURVE",
"54 83 OFFCURVE",
"148 11 OFFCURVE",
"252 -34 CURVE"
);
},
{
closed = 1;
nodes = (
"932 -4 OFFCURVE",
"1105 119 OFFCURVE",
"1136 251 CURVE",
"1068 346 OFFCURVE",
"962 439 OFFCURVE",
"834 475 CURVE",
"783 441 OFFCURVE",
"621 244 OFFCURVE",
"605 195 CURVE",
"644 83 OFFCURVE",
"738 11 OFFCURVE",
"842 -34 CURVE"
);
}
);
width = 1770;
}
);
unicode = 2026;
},
{
glyphname = exclam;
lastChange = "2022-05-20 00:37:12 +0000";
layers = (
{
layerId = "ED69ACE7-BE83-49AD-8DAF-057B7A1FF3CB";
paths = (
{
closed = 1;
nodes = (
"249 550 OFFCURVE",
"481 599 OFFCURVE",
"521 687 CURVE",
"457 964 LINE",
"573 1566 LINE {name = hr00;}",
"537 1596 OFFCURVE",
"480 1615 OFFCURVE",
"423 1613 CURVE SMOOTH",
"288 1609 OFFCURVE",
"150 1553 OFFCURVE",
"85 1467 CURVE",
"117 1223 OFFCURVE",
"159 1136 OFFCURVE",
"217 913 CURVE",
"193 831 OFFCURVE",
"176 745 OFFCURVE",
"165 655 CURVE"
);
},
{
closed = 1;
nodes = (
"408 -4 OFFCURVE",
"581 119 OFFCURVE",
"612 251 CURVE",
"544 346 OFFCURVE",
"438 439 OFFCURVE",
"310 475 CURVE",
"259 441 OFFCURVE",
"97 244 OFFCURVE",
"81 195 CURVE",
"120 83 OFFCURVE",
"214 11 OFFCURVE",
"318 -34 CURVE"
);
}
);
width = 691;
}
);
unicode = 0021;
},
{
glyphname = question;
lastChange = "2022-05-20 00:37:12 +0000";
layers = (
{
layerId = "ED69ACE7-BE83-49AD-8DAF-057B7A1FF3CB";
paths = (
{
closed = 1;
nodes = (
"525 813 LINE",
"683 804 OFFCURVE",
"832 874 OFFCURVE",
"832 874 CURVE",
"878 1034 OFFCURVE",
"872 1259 OFFCURVE",
"837 1377 CURVE",
"704 1569 OFFCURVE",
"397 1611 OFFCURVE",
"299 1611 CURVE",
"219 1576 OFFCURVE",
"128 1429 OFFCURVE",
"110 1306 CURVE",
"292 1267 OFFCURVE",
"497 1238 OFFCURVE",
"620 1170 CURVE",
"317 988 LINE SMOOTH",
"141 881 OFFCURVE",
"245 801 OFFCURVE",
"290 605 CURVE {name = hr00;}",
"477 595 LINE"
);
},
{
closed = 1;
nodes = (
"487 -4 OFFCURVE",
"660 119 OFFCURVE",
"691 251 CURVE",
"623 346 OFFCURVE",
"517 439 OFFCURVE",
"389 475 CURVE",
"338 441 OFFCURVE",
"176 244 OFFCURVE",
"160 195 CURVE",
"199 83 OFFCURVE",
"293 11 OFFCURVE",
"397 -34 CURVE"
);
}
);
userData = {
com.typemytype.robofont.guides = (
{
angle = 0;
isGlobal = 0;
x = 0;
y = 1677;
}
);
};
width = 955;
}
);
unicode = 003F;
},
{
glyphname = asterisk;
lastChange = "2022-05-20 00:37:12 +0000";
layers = (
{
layerId = "ED69ACE7-BE83-49AD-8DAF-057B7A1FF3CB";
paths = (
{
closed = 1;
nodes = (
"520 965 LINE",
"528 963 LINE {name = hr00;}",
"569 836 OFFCURVE",
"625 701 OFFCURVE",
"678 612 CURVE",
"799 627 OFFCURVE",
"903 686 OFFCURVE",
"964 787 CURVE",
"656 1031 LINE",
"659 1037 OFFCURVE",
"658 1036 OFFCURVE",
"661 1041 CURVE",
"718 1033 OFFCURVE",
"801 1022 OFFCURVE",
"874 1022 CURVE SMOOTH",
"919 1022 OFFCURVE",
"976 1026 OFFCURVE",
"1025 1037 CURVE",
"1038 1075 OFFCURVE",
"1044 1117 OFFCURVE",
"1044 1159 CURVE SMOOTH",
"1044 1245 OFFCURVE",
"1018 1328 OFFCURVE",
"967 1376 CURVE",
"650 1151 LINE",
"645 1155 OFFCURVE",
"644 1158 OFFCURVE",
"638 1162 CURVE",
"776 1618 LINE",
"732 1640 OFFCURVE",
"663 1649 OFFCURVE",
"619 1649 CURVE SMOOTH",
"541 1649 OFFCURVE",
"467 1619 OFFCURVE",
"414 1570 CURVE",
"420 1483 OFFCURVE",
"448 1264 OFFCURVE",
"487 1170 CURVE",
"482 1167 OFFCURVE",
"478 1165 OFFCURVE",
"474 1162 CURVE",
"199 1403 LINE",
"103 1338 OFFCURVE",
"46 1200 OFFCURVE",
"37 1080 CURVE",
"135 1049 OFFCURVE",
"265 1037 OFFCURVE",
"376 1037 CURVE SMOOTH",
"387 1037 OFFCURVE",
"414 1038 OFFCURVE",
"425 1038 CURVE",
"427 1027 LINE",
"313 962 OFFCURVE",
"208 878 OFFCURVE",
"119 770 CURVE",
"166 689 OFFCURVE",
"269 596 OFFCURVE",
"385 596 CURVE"
);
}
);
width = 1081;
}
);
unicode = 002A;
},
{
glyphname = numbersign;
lastChange = "2022-05-20 03:27:16 +0000";
layers = (
{
layerId = "ED69ACE7-BE83-49AD-8DAF-057B7A1FF3CB";
paths = (
{
closed = 1;
nodes = (
"531 72 LINE",
"746 64 LINE",
"696 -182 LINE",
"788 -231 OFFCURVE",
"871 -257 OFFCURVE",
"973 -255 CURVE",
"1038 58 LINE {name = hr03;}",
"1304 45 LINE",
"1340 123 OFFCURVE",
"1359 225 OFFCURVE",
"1330 309 CURVE",
"1100 309 LINE",
"1156 621 LINE",
"1380 621 LINE",
"1418 704 OFFCURVE",
"1420 780 OFFCURVE",
"1402 859 CURVE",
"1203 859 LINE",
"1252 1109 LINE",
"1155 1182 OFFCURVE",
"1057 1202 OFFCURVE",
"932 1181 CURVE",
"885 859 LINE {name = hr01;}",
"663 859 LINE",
"711 1109 LINE",
"618 1166 OFFCURVE",
"515 1201 OFFCURVE",
"383 1182 CURVE",
"337 859 LINE {name = hr02;}",
"91 859 LINE",
"54 761 OFFCURVE",
"51 723 OFFCURVE",
"76 626 CURVE",
"305 614 LINE",
"264 309 LINE",
"53 309 LINE",
"18 245 OFFCURVE",
"14 189 OFFCURVE",
"23 101 CURVE",
"231 82 LINE",
"188 -182 LINE",
"276 -227 OFFCURVE",
"370 -251 OFFCURVE",
"474 -256 CURVE"
);
},
{
closed = 1;
nodes = (
"636 611 LINE {name = hr04;}",
"844 611 LINE",
"794 309 LINE",
"580 309 LINE"
);
}
);
userData = {
com.typemytype.robofont.guides = (
{
angle = 0;
isGlobal = 0;
x = 0;
y = 480;
}
);
};
width = 1444;
}
);
unicode = 0023;
},
{
glyphname = slash;
lastChange = "2022-05-20 00:37:12 +0000";
layers = (
{
layerId = "ED69ACE7-BE83-49AD-8DAF-057B7A1FF3CB";
paths = (
{
closed = 1;
nodes = (
"721 1605 LINE {name = hr00;}",
"643 1654 OFFCURVE",
"449 1686 OFFCURVE",
"375 1660 CURVE",
"103 -166 LINE",
"179 -219 OFFCURVE",
"257 -242 OFFCURVE",
"360 -239 CURVE"
);
}
);
width = 788;
}
);
unicode = 002F;
},
{
glyphname = parenright;
layers = (
{
layerId = "ED69ACE7-BE83-49AD-8DAF-057B7A1FF3CB";
paths = (
{
closed = 1;
nodes = (
"358 -165 OFFCURVE",
"575 401 OFFCURVE",
"576 761 CURVE {name = hr02;}",
"554 1065 OFFCURVE",
"487 1417 OFFCURVE",
"281 1852 CURVE",
"175 1834 OFFCURVE",
"79 1800 OFFCURVE",
"1 1740 CURVE",
"122 1423 OFFCURVE",
"246 1066 OFFCURVE",
"265 706 CURVE",
"261 584 OFFCURVE",
"197 200 OFFCURVE",
"58 -241 CURVE",
"214 -291 LINE {name = hr01;}"
);
}
);
width = 694;
}
);
unicode = 0029;
},
{
glyphname = braceleft;
lastChange = "2022-05-20 00:37:12 +0000";
layers = (
{
layerId = "ED69ACE7-BE83-49AD-8DAF-057B7A1FF3CB";
paths = (
{
closed = 1;
nodes = (
"597 -29 LINE",
"652 573 LINE {name = hr05;}",
"631 632 OFFCURVE",
"559 697 OFFCURVE",
"471 765 CURVE",
"471 780 LINE {name = hr06;}",
"528 829 OFFCURVE",
"581 876 OFFCURVE",
"640 959 CURVE {name = hr07;}",
"640 960 LINE",
"641 960 LINE",
"641 1578 LINE",
"698 1540 OFFCURVE",
"762 1531 OFFCURVE",
"827 1544 CURVE",
"850 1632 OFFCURVE",
"856 1715 OFFCURVE",
"852 1803 CURVE",
"720 1803 OFFCURVE",
"618 1817 OFFCURVE",
"488 1849 CURVE {name = hr03;}",
"436 1839 OFFCURVE",
"333 1768 OFFCURVE",
"298 1697 CURVE",
"386 895 LINE",
"372 788 LINE",
"382 663 LINE {name = hr04;}",
"403 -31 LINE"
);
},
{
closed = 1;
nodes = (
"776 -96 LINE",
"597 -29 LINE",
"597 -29 LINE",
"620 486 LINE",
"386 766 LINE {name = hr01;}",
"387 759 LINE",
"317 -232 LINE",
"458 -284 OFFCURVE",
"568 -304 OFFCURVE",
"738 -282 CURVE"
);
},
{
closed = 1;
nodes = (
"421 655 LINE {name = hr02;}",
"271 644 LINE",
"496 428 LINE"
);
},
{
closed = 1;
nodes = (
"230 550 OFFCURVE",
"308 571 OFFCURVE",
"377 624 CURVE",
"425 807 LINE",
"394 831 OFFCURVE",
"259 941 OFFCURVE",
"224 965 CURVE",
"81 911 OFFCURVE",
"60 694 OFFCURVE",
"140 579 CURVE"
);
},
{
closed = 1;
nodes = (
"471 1049 LINE",
"289 827 LINE",
"439 816 LINE"
);
}
);
width = 852;
}
);
unicode = 007B;
},
{
glyphname = braceright;
lastChange = "2022-05-20 00:37:12 +0000";
layers = (
{
layerId = "ED69ACE7-BE83-49AD-8DAF-057B7A1FF3CB";
paths = (
{
closed = 1;
nodes = (
"401 -282 OFFCURVE",
"504 -211 OFFCURVE",
"539 -140 CURVE",
"478 617 LINE",
"526 676 LINE",
"635 592 LINE",
"778 646 OFFCURVE",
"799 863 OFFCURVE",
"719 978 CURVE",
"650 1000 OFFCURVE",
"589 993 OFFCURVE",
"533 965 CURVE",
"487 1010 LINE",
"564 1789 LINE",
"423 1841 OFFCURVE",
"235 1861 OFFCURVE",
"65 1839 CURVE",
"27 1653 LINE",
"229 1586 LINE",
"219 972 LINE",
"243 920 OFFCURVE",
"300 860 OFFCURVE",
"388 792 CURVE",
"388 777 LINE",
"331 728 OFFCURVE",
"263 667 OFFCURVE",
"219 598 CURVE",
"219 597 LINE",
"218 597 LINE {name = hr00;}",
"263 -48 LINE",
"206 -17 OFFCURVE",
"148 -7 OFFCURVE",
"83 -13 CURVE",
"60 -101 OFFCURVE",
"54 -154 OFFCURVE",
"58 -245 CURVE",
"349 -292 LINE"
);
}
);
width = 852;
}
);
unicode = 007D;
},
{
glyphname = bracketleft;
lastChange = "2022-05-20 00:37:12 +0000";
layers = (
{
layerId = "ED69ACE7-BE83-49AD-8DAF-057B7A1FF3CB";
paths = (
{
closed = 1;
nodes = (
"639 -95 LINE",
"462 -28 LINE",
"484 1578 LINE {name = hr00;}",
"546 1549 OFFCURVE",
"596 1538 OFFCURVE",
"658 1544 CURVE",
"681 1632 OFFCURVE",
"687 1715 OFFCURVE",
"683 1803 CURVE",
"300 1849 LINE",
"149 1724 LINE",
"207 -245 LINE",
"601 -291 LINE"
);
}
);
width = 710;
}
);
unicode = 005B;
},
{
glyphname = bracketright;
lastChange = "2022-05-20 00:37:12 +0000";
layers = (
{
layerId = "ED69ACE7-BE83-49AD-8DAF-057B7A1FF3CB";
paths = (
{
closed = 1;
nodes = (
"504 -167 LINE",
"507 1802 LINE",
"60 1849 LINE",
"11 1633 LINE",
"61 1595 OFFCURVE",
"131 1576 OFFCURVE",
"179 1565 CURVE",
"252 -52 LINE {name = hr00;}",
"190 -23 OFFCURVE",
"118 -12 OFFCURVE",
"56 -18 CURVE",
"33 -106 OFFCURVE",
"27 -158 OFFCURVE",
"31 -246 CURVE",
"353 -292 LINE"
);
}
);
width = 710;
}
);
unicode = 005D;
},
{
glyphname = hyphen;
lastChange = "2022-05-20 00:37:12 +0000";
layers = (
{
layerId = "ED69ACE7-BE83-49AD-8DAF-057B7A1FF3CB";
paths = (
{
closed = 1;
nodes = (
"847 529 OFFCURVE",
"884 642 OFFCURVE",
"861 738 CURVE",
"167 689 LINE",
"121 611 OFFCURVE",
"99 550 OFFCURVE",
"111 437 CURVE {name = hr00;}",
"488 423 OFFCURVE",
"709 416 OFFCURVE",
"793 423 CURVE"
);
}
);
width = 967;
}
);
unicode = 002D;
},
{
glyphname = endash;
layers = (
{
layerId = "ED69ACE7-BE83-49AD-8DAF-057B7A1FF3CB";
paths = (
{
closed = 1;
nodes = (
"488 423 OFFCURVE",
"1074 432 OFFCURVE",
"1158 439 CURVE",
"1212 545 OFFCURVE",
"1249 658 OFFCURVE",
"1226 754 CURVE",
"167 689 LINE",
"121 611 OFFCURVE",
"99 550 OFFCURVE",
"111 437 CURVE {name = hr00;}"
);
}
);
width = 1357;
}
);
unicode = 2013;
},
{
glyphname = emdash;
layers = (
{
layerId = "ED69ACE7-BE83-49AD-8DAF-057B7A1FF3CB";
paths = (
{
closed = 1;
nodes = (
"488 423 OFFCURVE",
"1755 432 OFFCURVE",
"1839 439 CURVE",
"1893 545 OFFCURVE",
"1930 658 OFFCURVE",
"1907 754 CURVE",
"167 689 LINE",
"121 611 OFFCURVE",
"99 550 OFFCURVE",
"111 437 CURVE {name = hr00;}"
);
}
);
width = 2021;
}
);
unicode = 2014;
},
{
glyphname = figuredash;
lastChange = "2022-05-20 03:03:45 +0000";
layers = (
{
layerId = "ED69ACE7-BE83-49AD-8DAF-057B7A1FF3CB";
paths = (
{
closed = 1;
nodes = (
"1031 529 OFFCURVE",
"1068 642 OFFCURVE",
"1045 738 CURVE",
"167 689 LINE",
"121 611 OFFCURVE",
"99 550 OFFCURVE",
"111 437 CURVE {name = hr00;}",
"488 423 OFFCURVE",
"893 416 OFFCURVE",
"977 423 CURVE"
);
}
);
width = 1158;
}
);
unicode = 2012;
},
{
glyphname = underscore;
lastChange = "2022-05-20 00:37:12 +0000";
layers = (
{
layerId = "ED69ACE7-BE83-49AD-8DAF-057B7A1FF3CB";
paths = (
{
closed = 1;
nodes = (
"1647 -371 LINE {name = hr00;}",
"1697 -304 OFFCURVE",
"1738 -196 OFFCURVE",
"1715 -112 CURVE",
"15 -111 LINE",
"-31 -189 OFFCURVE",
"-59 -291 OFFCURVE",
"-41 -373 CURVE"
);
}
);
userData = {
com.typemytype.robofont.guides = (
{
angle = 0;
isGlobal = 0;
x = 0;
y = -156;
}
);
};
width = 1698;
}
);
unicode = 005F;
},
{
glyphname = quoteright;
lastChange = "2022-05-20 00:37:12 +0000";
layers = (
{
layerId = "ED69ACE7-BE83-49AD-8DAF-057B7A1FF3CB";
paths = (
{
closed = 1;
nodes = (
"315 1087 OFFCURVE",
"404 1305 OFFCURVE",
"454 1494 CURVE {name = hr00;}",
"389 1564 OFFCURVE",
"289 1595 OFFCURVE",
"197 1595 CURVE SMOOTH",
"160 1595 OFFCURVE",
"124 1590 OFFCURVE",
"93 1581 CURVE",
"38 960 LINE",
"196 908 LINE"
);
}
);
width = 489;
}
);
unicode = 2019;
},
{
glyphname = quotereversed;
lastChange = "2022-05-20 00:37:12 +0000";
layers = (
{
layerId = "ED69ACE7-BE83-49AD-8DAF-057B7A1FF3CB";
paths = (
{
closed = 1;
nodes = (
"454 960 LINE",
"399 1581 LINE",
"368 1590 OFFCURVE",
"332 1595 OFFCURVE",
"295 1595 CURVE SMOOTH",
"203 1595 OFFCURVE",
"103 1564 OFFCURVE",
"38 1494 CURVE {name = hr00;}",
"88 1305 OFFCURVE",
"177 1087 OFFCURVE",
"296 908 CURVE"
);
}
);
width = 489;
}
);
unicode = 201B;
},
{
glyphname = guilsinglleft;
lastChange = "2022-05-20 00:37:12 +0000";
layers = (
{
layerId = "ED69ACE7-BE83-49AD-8DAF-057B7A1FF3CB";
paths = (
{
closed = 1;
nodes = (
"594 42 OFFCURVE",
"665 109 OFFCURVE",
"698 176 CURVE",
"630 270 OFFCURVE",
"457 437 OFFCURVE",
"359 526 CURVE {name = hr00;}",
"458 626 OFFCURVE",
"627 834 OFFCURVE",
"663 938 CURVE",
"646 1005 OFFCURVE",
"550 1084 OFFCURVE",
"495 1107 CURVE",
"59 682 LINE",
"44 596 OFFCURVE",
"74 390 OFFCURVE",
"115 343 CURVE",
"207 286 OFFCURVE",
"449 99 OFFCURVE",
"540 10 CURVE"
);
}
);
width = 698;
}
);
unicode = 2039;
},
{
glyphname = quotesingle;
lastChange = "2022-05-20 00:37:12 +0000";
layers = (
{
layerId = "ED69ACE7-BE83-49AD-8DAF-057B7A1FF3CB";
paths = (
{
closed = 1;
nodes = (
"280 940 LINE",
"346 1110 OFFCURVE",
"389 1352 OFFCURVE",
"398 1531 CURVE {name = hr00;}",
"357 1576 OFFCURVE",
"280 1595 OFFCURVE",
"210 1595 CURVE SMOOTH",
"147 1595 OFFCURVE",
"71 1582 OFFCURVE",
"22 1561 CURVE",
"108 940 LINE"
);
}
);
userData = {
com.typemytype.robofont.guides = (
{
angle = 0;
isGlobal = 0;
x = 0;
y = 1611;
}
);
};
width = 453;
}
);
unicode = 0027;
},
{
glyphname = .notdef;
lastChange = "2022-05-20 00:37:12 +0000";
layers = (
{
layerId = "ED69ACE7-BE83-49AD-8DAF-057B7A1FF3CB";
paths = (
{
closed = 1;
nodes = (
"1405 0 LINE SMOOTH {name = hr00;}",
"1456 0 OFFCURVE",
"1481 29 OFFCURVE",
"1481 76 CURVE SMOOTH",
"1481 1457 LINE SMOOTH",
"1481 1504 OFFCURVE",
"1456 1533 OFFCURVE",
"1405 1533 CURVE SMOOTH",
"288 1533 LINE SMOOTH",
"247 1533 OFFCURVE",
"222 1504 OFFCURVE",
"222 1454 CURVE SMOOTH",
"222 78 LINE SMOOTH",
"222 29 OFFCURVE",
"247 0 OFFCURVE",
"291 0 CURVE SMOOTH"
);
},
{
closed = 1;
nodes = (
"1187 339 OFFCURVE",
"1160 341 OFFCURVE",
"1136 366 CURVE",
"855 645 LINE",
"579 368 LINE SMOOTH",
"553 341 OFFCURVE",
"525 340 OFFCURVE",
"500 366 CURVE SMOOTH",
"445 421 LINE SMOOTH",
"423 443 OFFCURVE",
"424 471 OFFCURVE",
"442 488 CURVE SMOOTH",
"727 773 LINE",
"440 1062 LINE",
"423 1078 OFFCURVE",
"418 1104 OFFCURVE",
"440 1126 CURVE SMOOTH",
"501 1184 LINE SMOOTH",
"522 1205 OFFCURVE",
"547 1198 OFFCURVE",
"562 1183 CURVE SMOOTH",
"849 895 LINE",
"1130 1177 LINE SMOOTH",
"1145 1193 OFFCURVE",
"1171 1201 OFFCURVE",
"1194 1177 CURVE SMOOTH",
"1261 1108 LINE",
"1280 1090 OFFCURVE",
"1275 1065 OFFCURVE",
"1252 1043 CURVE",
"977 767 LINE",
"1261 483 LINE SMOOTH",
"1282 463 OFFCURVE",
"1285 437 OFFCURVE",
"1261 413 CURVE SMOOTH",
"1209 361 LINE SMOOTH"
);
}
);
width = 1703;
}
);
},
{
glyphname = cedi;
lastChange = "2022-05-20 03:05:19 +0000";
layers = (
{
anchors = (
{
name = bottom;
position = "{506, 0}";
},
{
name = top;
position = "{506, 1529}";
}
);
layerId = "ED69ACE7-BE83-49AD-8DAF-057B7A1FF3CB";
paths = (
{
closed = 1;
nodes = (
"641 -184 OFFCURVE",
"625 -14 OFFCURVE",
"589 88 CURVE",
"377 70 LINE",
"319 -264 LINE",
"389 -345 OFFCURVE",
"549 -371 OFFCURVE",
"651 -300 CURVE"
);
},
{
closed = 1;
nodes = (
"748 1818 LINE",
"722 1843 OFFCURVE",
"657 1854 OFFCURVE",
"603 1854 CURVE SMOOTH",
"508 1854 OFFCURVE",
"450 1827 OFFCURVE",
"406 1757 CURVE {name = hr02;}",
"447 1369 LINE",
"631 1314 LINE {name = hr01;}"
);
},
{
closed = 1;
nodes = (
"701 6 OFFCURVE",
"905 188 OFFCURVE",
"973 305 CURVE",
"898 472 LINE",
"702 399 OFFCURVE",
"550 332 OFFCURVE",
"470 320 CURVE",
"493 516 OFFCURVE",
"528 976 OFFCURVE",
"510 1170 CURVE",
"534 1192 LINE {name = hr00;}",
"634 1103 OFFCURVE",
"724 1048 OFFCURVE",
"815 1010 CURVE",
"870 1037 OFFCURVE",
"998 1227 OFFCURVE",
"944 1481 CURVE",
"628 1459 LINE",
"566 1491 OFFCURVE",
"430 1537 OFFCURVE",
"369 1549 CURVE",
"250 1505 OFFCURVE",
"108 1380 OFFCURVE",
"83 1286 CURVE",
"83 1271 OFFCURVE",
"83 1205 OFFCURVE",
"89 1171 CURVE SMOOTH",
"111 1055 OFFCURVE",
"128 830 OFFCURVE",
"142 613 CURVE SMOOTH",
"153 452 OFFCURVE",
"161 295 OFFCURVE",
"166 192 CURVE",
"171 159 OFFCURVE",
"187 131 OFFCURVE",
"233 95 CURVE SMOOTH",
"292 49 OFFCURVE",
"394 -20 OFFCURVE",
"465 -20 CURVE"
);
}
);
width = 1011;
}
);
unicode = 20B5;
},
{
glyphname = cent;
lastChange = "2022-05-20 00:37:12 +0000";
layers = (
{
layerId = "ED69ACE7-BE83-49AD-8DAF-057B7A1FF3CB";
paths = (
{
closed = 1;
nodes = (
"587 -20 OFFCURVE",
"861 204 OFFCURVE",
"908 290 CURVE",
"807 443 LINE",
"695 383 OFFCURVE",
"507 304 OFFCURVE",
"459 284 CURVE {name = hr03;}",
"440 300 LINE",
"477 475 OFFCURVE",
"452 755 OFFCURVE",
"436 899 CURVE",
"498 815 OFFCURVE",
"628 713 OFFCURVE",
"730 653 CURVE",
"781 668 OFFCURVE",
"946 848 OFFCURVE",
"911 1079 CURVE",
"705 1127 LINE",
"655 1150 OFFCURVE",
"515 1204 OFFCURVE",
"455 1204 CURVE SMOOTH",
"392 1204 OFFCURVE",
"270 1143 OFFCURVE",
"218 1112 CURVE SMOOTH",
"166 1081 OFFCURVE",
"39 987 OFFCURVE",
"39 930 CURVE SMOOTH",
"39 917 OFFCURVE",
"46 897 OFFCURVE",
"55 869 CURVE SMOOTH",
"94 755 OFFCURVE",
"115 504 OFFCURVE",
"115 319 CURVE SMOOTH",
"115 215 OFFCURVE",
"77 199 OFFCURVE",
"161 127 CURVE SMOOTH",
"188 105 OFFCURVE",
"342 -20 OFFCURVE",
"430 -20 CURVE SMOOTH"
);
},
{
closed = 1;
nodes = (
"571 -184 OFFCURVE",
"555 -14 OFFCURVE",
"519 88 CURVE",
"307 70 LINE",
"249 -264 LINE",
"319 -345 OFFCURVE",
"479 -371 OFFCURVE",
"581 -300 CURVE"
);
},
{
closed = 1;
nodes = (
"743 1508 LINE",
"717 1533 OFFCURVE",
"652 1544 OFFCURVE",
"598 1544 CURVE SMOOTH",
"503 1544 OFFCURVE",
"445 1517 OFFCURVE",
"401 1447 CURVE {name = hr02;}",
"442 1059 LINE",
"626 1004 LINE {name = hr01;}"
);
}
);
width = 962;
}
);
unicode = 00A2;
},
{
glyphname = colonsign;
lastChange = "2022-05-20 03:06:23 +0000";
layers = (
{
components = (
{
name = C;
}
);
layerId = "ED69ACE7-BE83-49AD-8DAF-057B7A1FF3CB";
paths = (
{
closed = 1;
nodes = (
"452 -184 OFFCURVE",
"439 36 OFFCURVE",
"431 138 CURVE",
"265 120 LINE",
"199 -264 LINE",
"254 -345 OFFCURVE",
"379 -371 OFFCURVE",
"460 -300 CURVE"
);
},
{
closed = 1;
nodes = (
"556 1818 LINE",
"535 1843 OFFCURVE",
"484 1854 OFFCURVE",
"442 1854 CURVE SMOOTH",
"367 1854 OFFCURVE",
"322 1827 OFFCURVE",
"287 1757 CURVE {name = hr02;}",
"319 1369 LINE",
"464 1314 LINE {name = hr01;}"
);
},
{
closed = 1;
nodes = (
"768 -184 OFFCURVE",
"755 36 OFFCURVE",
"727 138 CURVE",
"561 120 LINE",
"515 -264 LINE",
"570 -345 OFFCURVE",
"695 -371 OFFCURVE",
"776 -300 CURVE"
);
},
{
closed = 1;
nodes = (
"852 1818 LINE",
"831 1843 OFFCURVE",
"780 1854 OFFCURVE",
"738 1854 CURVE SMOOTH",
"663 1854 OFFCURVE",
"618 1827 OFFCURVE",
"583 1757 CURVE {name = hr02;}",
"615 1369 LINE",
"760 1314 LINE {name = hr01;}"
);
}
);
width = 1011;
}
);
unicode = 20A1;
},
{
glyphname = currency;
lastChange = "2022-05-20 00:37:12 +0000";
layers = (
{
layerId = "ED69ACE7-BE83-49AD-8DAF-057B7A1FF3CB";
paths = (
{
closed = 1;
nodes = (
"817 160 OFFCURVE",
"1011 362 OFFCURVE",
"1011 582 CURVE SMOOTH",
"1011 636 OFFCURVE",
"996 715 OFFCURVE",
"971 779 CURVE",
"769 964 LINE {name = hr01;}",
"710 998 OFFCURVE",
"645 1002 OFFCURVE",
"591 1002 CURVE SMOOTH",
"358 1002 OFFCURVE",
"169 816 OFFCURVE",
"169 582 CURVE SMOOTH",
"169 533 OFFCURVE",
"181 451 OFFCURVE",
"207 406 CURVE",
"379 215 LINE",
"431 183 OFFCURVE",
"531 160 OFFCURVE",
"591 160 CURVE SMOOTH"
);
},
{
closed = 1;
nodes = (
"282 60 OFFCURVE",
"338 124 OFFCURVE",
"408 237 CURVE",
"218 425 LINE",
"21 281 LINE",
"21 200 OFFCURVE",
"153 42 OFFCURVE",
"237 38 CURVE"
);
},
{
closed = 1;
nodes = (
"580 428 OFFCURVE",
"507 450 OFFCURVE",
"476 476 CURVE",
"463 511 OFFCURVE",
"456 544 OFFCURVE",
"456 577 CURVE SMOOTH",
"456 618 OFFCURVE",
"467 659 OFFCURVE",
"491 704 CURVE",
"506 712 OFFCURVE",
"526 715 OFFCURVE",
"549 715 CURVE SMOOTH",
"605 715 OFFCURVE",
"674 694 OFFCURVE",
"707 668 CURVE",
"718 634 OFFCURVE",
"725 601 OFFCURVE",
"725 568 CURVE SMOOTH",
"725 526 OFFCURVE",
"715 485 OFFCURVE",
"693 441 CURVE SMOOTH",
"691 438 LINE",
"677 431 OFFCURVE",
"659 428 OFFCURVE",
"637 428 CURVE SMOOTH"
);
},
{
closed = 1;
nodes = (
"982 31 OFFCURVE",
"1140 163 OFFCURVE",
"1144 247 CURVE",
"1123 290 OFFCURVE",
"1053 355 OFFCURVE",
"945 416 CURVE",
"761 220 LINE",
"901 31 LINE"
);
},
{
closed = 1;
nodes = (
"414 963 LINE",
"270 1160 LINE",
"189 1160 OFFCURVE",
"31 1028 OFFCURVE",
"27 944 CURVE",
"49 899 OFFCURVE",
"113 843 OFFCURVE",
"226 773 CURVE"
);
},
{
closed = 1;
nodes = (
"1150 912 LINE",
"1150 993 OFFCURVE",
"1018 1151 OFFCURVE",
"934 1155 CURVE",
"891 1134 OFFCURVE",
"826 1064 OFFCURVE",
"765 956 CURVE",
"961 772 LINE"
);
}
);
width = 1183;
}
);
unicode = 00A4;
},
{
glyphname = dollar;
lastChange = "2022-05-20 00:37:12 +0000";
layers = (
{
layerId = "ED69ACE7-BE83-49AD-8DAF-057B7A1FF3CB";
paths = (
{
closed = 1;
nodes = (
"679 134 OFFCURVE",
"764 202 OFFCURVE",
"842 278 CURVE",
"866 348 OFFCURVE",
"879 482 OFFCURVE",
"874 565 CURVE",
"797 662 OFFCURVE",
"521 839 OFFCURVE",
"429 888 CURVE",
"438 1103 LINE",
"464 1112 LINE",
"532 1019 OFFCURVE",
"678 916 OFFCURVE",
"760 882 CURVE",
"869 975 OFFCURVE",
"934 1187 OFFCURVE",
"899 1308 CURVE",
"738 1362 LINE",
"679 1386 OFFCURVE",
"574 1394 OFFCURVE",
"515 1394 CURVE SMOOTH",
"439 1394 OFFCURVE",
"316 1337 OFFCURVE",
"254 1300 CURVE SMOOTH",
"209 1273 OFFCURVE",
"76 1174 OFFCURVE",
"76 1115 CURVE SMOOTH",
"76 1073 OFFCURVE",
"77 811 OFFCURVE",
"98 732 CURVE",
"152 662 OFFCURVE",
"325 583 OFFCURVE",
"454 535 CURVE SMOOTH",
"498 519 OFFCURVE",
"537 506 OFFCURVE",
"564 498 CURVE",
"567 461 OFFCURVE",
"565 377 OFFCURVE",
"558 339 CURVE",
"509 315 LINE",
"400 395 OFFCURVE",
"273 450 OFFCURVE",
"132 454 CURVE",
"116 420 OFFCURVE",
"30 317 OFFCURVE",
"130 135 CURVE",
"212 122 OFFCURVE",
"392 97 OFFCURVE",
"572 90 CURVE"
);
},
{
closed = 1;
nodes = (
"600 -64 OFFCURVE",
"584 76 OFFCURVE",
"548 178 CURVE",
"350 124 LINE",
"288 -144 LINE",
"358 -225 OFFCURVE",
"508 -251 OFFCURVE",
"610 -180 CURVE"
);
},
{
closed = 1;
nodes = (
"752 1688 LINE",
"726 1713 OFFCURVE",
"681 1724 OFFCURVE",
"627 1724 CURVE SMOOTH",
"532 1724 OFFCURVE",
"454 1687 OFFCURVE",
"410 1617 CURVE",
"451 1309 LINE",
"665 1264 LINE {name = hr00;}"
);
}
);
width = 980;
}
);
unicode = 0024;
},
{
glyphname = dong;
lastChange = "2022-05-20 03:07:46 +0000";
layers = (
{
anchors = (
{
name = bottom;
position = "{600, 0}";
},
{
name = center;
position = "{600, 591}";
},
{
name = top;
position = "{304, 1182}";
},
{
name = topright;
position = "{1180, 1182}";
}
);
layerId = "ED69ACE7-BE83-49AD-8DAF-057B7A1FF3CB";
paths = (
{
closed = 1;
nodes = (
"1198 1660 OFFCURVE",
"1210 1786 OFFCURVE",
"1169 1863 CURVE",
"793 1825 LINE",
"440 1795 LINE",
"426 1736 OFFCURVE",
"430 1665 OFFCURVE",
"454 1600 CURVE {name = hr00;}",
"768 1586 OFFCURVE",
"1083 1590 OFFCURVE",
"1153 1596 CURVE"
);
},
{
closed = 1;
nodes = (
"1115 68 OFFCURVE",
"1130 194 OFFCURVE",
"1078 271 CURVE",
"601 233 LINE",
"154 203 LINE",
"136 144 OFFCURVE",
"141 73 OFFCURVE",
"171 8 CURVE {name = hr00;}",
"570 -4 OFFCURVE",
"969 -2 OFFCURVE",
"1058 4 CURVE"
);
},
{
closed = 1;
nodes = (
"392 323 OFFCURVE",
"410 331 OFFCURVE",
"429 347 CURVE SMOOTH",
"524 429 OFFCURVE",
"638 698 OFFCURVE",
"691 839 CURVE",
"696 837 LINE",
"690 745 OFFCURVE",
"685 664 OFFCURVE",
"677 563 CURVE SMOOTH",
"669 474 OFFCURVE",
"704 449 OFFCURVE",
"729 422 CURVE SMOOTH",
"785 363 OFFCURVE",
"864 321 OFFCURVE",
"926 322 CURVE SMOOTH",
"1042 324 OFFCURVE",
"1139 461 OFFCURVE",
"1206 621 CURVE",
"1118 742 LINE",
"947 650 LINE {name = hr00;}",
"1034 941 OFFCURVE",
"1077 1805 OFFCURVE",
"1068 1866 CURVE",
"997 1932 OFFCURVE",
"894 1955 OFFCURVE",
"802 1955 CURVE SMOOTH",
"706 1955 OFFCURVE",
"622 1929 OFFCURVE",
"599 1901 CURVE",
"602 1861 OFFCURVE",
"660 1450 OFFCURVE",
"677 1252 CURVE",
"672 1250 LINE",
"610 1353 OFFCURVE",
"539 1472 OFFCURVE",
"431 1546 CURVE",
"392 1541 OFFCURVE",
"191 1504 OFFCURVE",
"70 1347 CURVE SMOOTH",
"51 1322 OFFCURVE",
"45 1308 OFFCURVE",
"45 1292 CURVE SMOOTH",
"45 1279 OFFCURVE",
"49 1264 OFFCURVE",
"57 1237 CURVE SMOOTH",
"133 976 OFFCURVE",
"126 714 OFFCURVE",
"130 489 CURVE SMOOTH",
"131 436 OFFCURVE",
"213 408 OFFCURVE",
"263 373 CURVE SMOOTH",
"302 345 OFFCURVE",
"338 320 OFFCURVE",
"374 322 CURVE SMOOTH"
);
},
{
closed = 1;
nodes = (
"430 695 LINE",
"454 816 OFFCURVE",
"468 933 OFFCURVE",
"466 1055 CURVE SMOOTH",
"464 1162 LINE",
"528 1147 OFFCURVE",
"595 1136 OFFCURVE",
"675 1116 CURVE",
"676 1032 OFFCURVE",
"677 1076 OFFCURVE",
"674 1036 CURVE",
"642 966 OFFCURVE",
"534 754 OFFCURVE",
"460 681 CURVE"
);
}
);
width = 1200;
}
);
unicode = 20AB;
},
{
glyphname = euro;
lastChange = "2022-05-20 00:37:12 +0000";
layers = (
{
layerId = "ED69ACE7-BE83-49AD-8DAF-057B7A1FF3CB";
paths = (
{
closed = 1;
nodes = (
"791 6 OFFCURVE",
"1041 177 OFFCURVE",
"1109 294 CURVE",
"1044 443 LINE",
"872 395 OFFCURVE",
"650 355 OFFCURVE",
"480 320 CURVE",
"503 516 OFFCURVE",
"587 1056 OFFCURVE",
"569 1250 CURVE",
"593 1272 LINE",
"693 1183 OFFCURVE",
"918 1120 OFFCURVE",
"1000 1100 CURVE",
"1055 1127 OFFCURVE",
"1181 1239 OFFCURVE",
"1127 1493 CURVE",
"804 1493 LINE",
"712 1513 OFFCURVE",
"520 1537 OFFCURVE",
"459 1549 CURVE",
"340 1505 OFFCURVE",
"188 1380 OFFCURVE",
"163 1286 CURVE",
"163 1271 OFFCURVE",
"163 1205 OFFCURVE",
"169 1171 CURVE SMOOTH",
"191 1055 OFFCURVE",
"218 830 OFFCURVE",
"232 613 CURVE SMOOTH",
"243 452 OFFCURVE",
"248 295 OFFCURVE",
"256 192 CURVE SMOOTH",
"259 159 OFFCURVE",
"277 131 OFFCURVE",
"323 95 CURVE SMOOTH",
"382 49 OFFCURVE",
"484 -20 OFFCURVE",
"555 -20 CURVE"
);
},
{
closed = 1;
nodes = (
"848 495 LINE",
"886 569 OFFCURVE",
"901 638 OFFCURVE",
"885 705 CURVE",
"97 660 LINE",
"65 605 OFFCURVE",
"49 573 OFFCURVE",
"58 493 CURVE"
);
},
{
closed = 1;
nodes = (
"878 814 LINE {name = hr00;}",
"916 888 OFFCURVE",
"931 947 OFFCURVE",
"915 1014 CURVE",
"77 969 LINE",
"45 914 OFFCURVE",
"29 892 OFFCURVE",
"38 812 CURVE"
);
}
);
userData = {
com.typemytype.robofont.guides = (
{
angle = 0;
isGlobal = 0;
x = 0;
y = 592;
}
);
};
width = 1208;
}
);
unicode = 20AC;
},
{
glyphname = florin;
lastChange = "2022-05-20 00:37:12 +0000";
layers = (
{
layerId = "ED69ACE7-BE83-49AD-8DAF-057B7A1FF3CB";
paths = (
{
closed = 1;
nodes = (
"431 -429 OFFCURVE",
"545 -342 OFFCURVE",
"583 -281 CURVE SMOOTH",
"596 -260 OFFCURVE",
"606 -238 OFFCURVE",
"609 -214 CURVE",
"552 1021 LINE",
"530 1326 LINE",
"574 1268 OFFCURVE",
"639 1217 OFFCURVE",
"789 1189 CURVE",
"857 1254 OFFCURVE",
"911 1494 OFFCURVE",
"873 1568 CURVE",
"760 1565 OFFCURVE",
"673 1576 OFFCURVE",
"509 1613 CURVE",
"239 1513 OFFCURVE",
"155 1262 OFFCURVE",
"155 1262 CURVE",
"339 -137 LINE {name = hr00;}",
"235 -133 OFFCURVE",
"82 -107 OFFCURVE",
"46 -99 CURVE",
"26 -159 OFFCURVE",
"13 -205 OFFCURVE",
"17 -281 CURVE",
"95 -357 OFFCURVE",
"223 -424 OFFCURVE",
"328 -438 CURVE"
);
},
{
closed = 1;
nodes = (
"808 865 OFFCURVE",
"812 1020 OFFCURVE",
"779 1088 CURVE",
"524 1034 LINE",
"447 1049 LINE",
"92 1005 LINE",
"59 950 OFFCURVE",
"46 871 OFFCURVE",
"61 800 CURVE",
"754 792 LINE"
);
}
);
width = 862;
}
);
unicode = 0192;
},
{
glyphname = franc;
lastChange = "2022-05-20 03:08:00 +0000";
layers = (
{
anchors = (
{
name = bottom;
position = "{538, 0}";
},
{
name = top;
position = "{538, 1529}";
}
);
layerId = "ED69ACE7-BE83-49AD-8DAF-057B7A1FF3CB";
paths = (
{
closed = 1;
nodes = (
"425 -20 OFFCURVE",
"698 -129 OFFCURVE",
"709 0 CURVE SMOOTH",
"723 154 OFFCURVE",
"573 557 OFFCURVE",
"524 696 CURVE",
"529 701 LINE",
"624 647 OFFCURVE",
"732 616 OFFCURVE",
"837 616 CURVE SMOOTH",
"862 616 OFFCURVE",
"887 617 OFFCURVE",
"911 621 CURVE",
"934 646 OFFCURVE",
"962 729 OFFCURVE",
"962 815 CURVE SMOOTH",
"962 869 OFFCURVE",
"950 929 OFFCURVE",
"921 973 CURVE",
"779 944 OFFCURVE",
"693 924 OFFCURVE",
"511 897 CURVE",
"441 1233 LINE",
"373 1475 LINE {name = hr00;}",
"127 1541 LINE",
"64 1477 OFFCURVE",
"21 1357 OFFCURVE",
"21 1275 CURVE SMOOTH",
"21 1267 OFFCURVE",
"21 1260 OFFCURVE",
"22 1253 CURVE",
"366 28 LINE"
);
},
{
closed = 1;
nodes = (
"989 1121 OFFCURVE",
"1024 1228 OFFCURVE",
"1024 1330 CURVE SMOOTH",
"1024 1425 OFFCURVE",
"994 1516 OFFCURVE",
"930 1549 CURVE",
"576 1447 LINE",
"127 1541 LINE",
"218 1251 LINE",
"433 1184 OFFCURVE",
"688 1109 OFFCURVE",
"921 1075 CURVE"
);
},
{
closed = 1;
nodes = (
"866 250 OFFCURVE",
"878 376 OFFCURVE",
"837 453 CURVE",
"461 415 LINE",
"108 385 LINE",
"94 326 OFFCURVE",
"98 255 OFFCURVE",
"122 190 CURVE {name = hr00;}",
"436 176 OFFCURVE",
"751 180 OFFCURVE",
"821 186 CURVE"
);
}
);
width = 1075;
}
);
unicode = 20A3;
},
{
glyphname = guarani;
lastChange = "2022-05-20 03:08:19 +0000";
layers = (
{
anchors = (
{
name = bottom;
position = "{586, 0}";
},
{
name = top;
position = "{586, 1529}";
}
);
layerId = "ED69ACE7-BE83-49AD-8DAF-057B7A1FF3CB";
paths = (
{
closed = 1;
nodes = (
"641 -184 OFFCURVE",
"625 -14 OFFCURVE",
"589 88 CURVE",
"377 70 LINE",
"319 -264 LINE",
"389 -345 OFFCURVE",
"549 -371 OFFCURVE",
"651 -300 CURVE"
);
},
{
closed = 1;
nodes = (
"748 1818 LINE",
"722 1843 OFFCURVE",
"657 1854 OFFCURVE",
"603 1854 CURVE SMOOTH",
"508 1854 OFFCURVE",
"450 1827 OFFCURVE",
"406 1757 CURVE {name = hr02;}",
"447 1369 LINE",
"631 1314 LINE {name = hr01;}"
);
},
{
closed = 1;
nodes = (
"440 -18 OFFCURVE",
"453 -20 OFFCURVE",
"465 1 CURVE",
"470 320 LINE",
"493 516 OFFCURVE",
"528 976 OFFCURVE",
"510 1170 CURVE",
"534 1192 LINE {name = hr01;}",
"634 1103 OFFCURVE",
"814 1029 OFFCURVE",
"905 1010 CURVE",
"960 1037 OFFCURVE",
"1088 1227 OFFCURVE",
"1034 1481 CURVE",
"691 1450 LINE",
"629 1482 OFFCURVE",
"430 1540 OFFCURVE",
"369 1549 CURVE",
"250 1505 OFFCURVE",
"108 1380 OFFCURVE",
"83 1286 CURVE",
"83 1271 OFFCURVE",
"89 1205 OFFCURVE",
"93 1171 CURVE SMOOTH",
"107 1048 OFFCURVE",
"128 830 OFFCURVE",
"142 613 CURVE SMOOTH",
"153 452 OFFCURVE",
"161 295 OFFCURVE",
"166 192 CURVE",
"171 159 OFFCURVE",
"187 131 OFFCURVE",
"233 95 CURVE SMOOTH",
"282 57 OFFCURVE",
"361 2 OFFCURVE",
"427 -15 CURVE"
);
},
{
closed = 1;
nodes = (
"574 -20 OFFCURVE",
"703 223 OFFCURVE",
"757 347 CURVE",
"781 336 LINE",
"767 217 OFFCURVE",
"751 135 OFFCURVE",
"745 48 CURVE {name = hr02;}",
"795 -2 OFFCURVE",
"882 -19 OFFCURVE",
"965 -20 CURVE SMOOTH",
"1021 -20 OFFCURVE",
"1084 2 OFFCURVE",
"1114 23 CURVE",
"1050 499 LINE",
"1148 720 LINE",
"1079 804 OFFCURVE",
"994 842 OFFCURVE",
"871 842 CURVE SMOOTH",
"794 842 OFFCURVE",
"726 827 OFFCURVE",
"703 815 CURVE",
"703 778 OFFCURVE",
"710 655 OFFCURVE",
"764 497 CURVE",
"691 435 OFFCURVE",
"521 280 OFFCURVE",
"472 282 CURVE",
"208 346 LINE",
"208 214 OFFCURVE",
"167 174 OFFCURVE",
"261 95 CURVE SMOOTH",
"317 49 OFFCURVE",
"375 -20 OFFCURVE",
"446 -20 CURVE SMOOTH"
);
}
);
width = 1171;
}
);
unicode = 20B2;
},
{
glyphname = kip;
lastChange = "2022-05-20 03:09:07 +0000";
layers = (
{
anchors = (
{
name = bottom;
position = "{662, 0}";
},
{
name = top;
position = "{662, 1529}";
}
);
layerId = "ED69ACE7-BE83-49AD-8DAF-057B7A1FF3CB";
paths = (
{
closed = 1;
nodes = (
"1156 644 OFFCURVE",
"1164 770 OFFCURVE",
"1137 847 CURVE",
"886 809 LINE",
"650 779 LINE",
"641 720 OFFCURVE",
"644 649 OFFCURVE",
"660 584 CURVE {name = hr00;}",
"869 570 OFFCURVE",
"1080 574 OFFCURVE",
"1126 580 CURVE"
);
},
{
closed = 1;
nodes = (
"462 -20 OFFCURVE",
"525 -9 OFFCURVE",
"568 19 CURVE",
"557 208 OFFCURVE",
"522 520 OFFCURVE",
"488 683 CURVE",
"566 1489 LINE",
"518 1518 OFFCURVE",
"463 1529 OFFCURVE",
"400 1529 CURVE SMOOTH",
"251 1529 OFFCURVE",
"119 1456 OFFCURVE",
"82 1399 CURVE",
"118 1189 OFFCURVE",
"160 968 OFFCURVE",
"230 756 CURVE",
"181 613 OFFCURVE",
"133 258 OFFCURVE",
"123 62 CURVE {name = hr02;}",
"176 12 OFFCURVE",
"272 -20 OFFCURVE",
"391 -20 CURVE SMOOTH"
);
},
{
closed = 1;
nodes = (
"841 791 LINE",
"747 781 OFFCURVE",
"531 763 OFFCURVE",
"444 747 CURVE",
"432 589 LINE",
"505 576 OFFCURVE",
"683 563 OFFCURVE",
"793 556 CURVE",
"932 554 LINE"
);
},
{
closed = 1;
nodes = (
"1126 -19 OFFCURVE",
"1189 9 OFFCURVE",
"1230 69 CURVE SMOOTH",
"1274 133 OFFCURVE",
"1324 245 OFFCURVE",
"1324 350 CURVE",
"1206 452 LINE",
"1162 415 OFFCURVE",
"1116 382 OFFCURVE",
"1071 366 CURVE",
"995 440 OFFCURVE",
"910 703 OFFCURVE",
"870 780 CURVE",
"693 632 LINE",
"699 583 OFFCURVE",
"722 317 OFFCURVE",
"765 201 CURVE SMOOTH",
"800 109 OFFCURVE",
"849 27 OFFCURVE",
"929 2 CURVE SMOOTH",
"972 -12 OFFCURVE",
"1013 -19 OFFCURVE",
"1051 -19 CURVE SMOOTH"
);
},
{
closed = 1;
nodes = (
"821 671 OFFCURVE",
"1195 1078 OFFCURVE",
"1228 1372 CURVE",
"1124 1504 OFFCURVE",
"927 1549 OFFCURVE",
"842 1549 CURVE {name = hr01;}",
"746 1505 OFFCURVE",
"687 1375 OFFCURVE",
"672 1233 CURVE",
"813 1183 LINE",
"781 1038 OFFCURVE",
"632 813 OFFCURVE",
"559 694 CURVE",
"692 644 LINE",
"725 572 LINE"
);
},
{
closed = 1;
nodes = (
"480 615 OFFCURVE",
"488 741 OFFCURVE",
"461 818 CURVE",
"210 780 LINE",
"-26 750 LINE",
"-35 691 OFFCURVE",
"-32 620 OFFCURVE",
"-16 555 CURVE {name = hr00;}",
"193 541 OFFCURVE",
"404 545 OFFCURVE",
"450 551 CURVE"
);
}
);
width = 1324;
}
);
unicode = 20AD;
},
{
glyphname = lira;
lastChange = "2022-05-20 03:10:02 +0000";
layers = (
{
layerId = "ED69ACE7-BE83-49AD-8DAF-057B7A1FF3CB";
paths = (
{
closed = 1;
nodes = (
"556 502 OFFCURVE",
"565 1129 OFFCURVE",
"561 1265 CURVE",
"690 1167 OFFCURVE",
"765 1134 OFFCURVE",
"875 1112 CURVE",
"932 1163 OFFCURVE",
"1016 1286 OFFCURVE",
"983 1471 CURVE",
"688 1491 LINE",
"638 1514 OFFCURVE",
"602 1549 OFFCURVE",
"542 1549 CURVE SMOOTH",
"487 1549 OFFCURVE",
"365 1481 OFFCURVE",
"309 1442 CURVE SMOOTH",
"258 1408 OFFCURVE",
"154 1332 OFFCURVE",
"151 1271 CURVE",
"295 320 LINE",
"540 316 LINE"
);
},
{
closed = 1;
nodes = (
"905 -20 OFFCURVE",
"969 12 OFFCURVE",
"1020 80 CURVE SMOOTH",
"1108 200 OFFCURVE",
"1087 439 OFFCURVE",
"1052 533 CURVE",
"904 561 LINE",
"804 327 LINE",
"540 358 LINE",
"334 341 LINE {name = hr01;}",
"264 410 OFFCURVE",
"156 418 OFFCURVE",
"61 378 CURVE",
"23 243 OFFCURVE",
"80 37 OFFCURVE",
"169 -17 CURVE",
"285 -10 OFFCURVE",
"393 61 OFFCURVE",
"445 150 CURVE",
"513 80 OFFCURVE",
"711 -20 OFFCURVE",
"835 -20 CURVE SMOOTH {name = hr02;}"
);
},
{
closed = 1;
nodes = (
"780 833 LINE",
"818 890 OFFCURVE",
"843 967 OFFCURVE",
"827 1019 CURVE",
"88 984 LINE",
"56 942 OFFCURVE",
"40 893 OFFCURVE",
"49 831 CURVE"
);
},
{
closed = 1;
nodes = (
"742 551 LINE",
"780 608 OFFCURVE",
"805 685 OFFCURVE",
"789 737 CURVE",
"127 702 LINE",
"95 660 OFFCURVE",
"79 611 OFFCURVE",
"88 549 CURVE"
);
}
);
width = 1200;
}
);
unicode = 20A4;
},
